<mxfile host="Electron" agent="Mozilla/5.0 (Windows NT 10.0; Win64; x64) AppleWebKit/537.36 (KHTML, like Gecko) draw.io/28.1.2 Chrome/138.0.7204.243 Electron/37.4.0 Safari/537.36" version="28.1.2">
  <diagram id="w8gqnspZIC27UhuPMeOe" name="ページ1">
    <mxGraphModel dx="786" dy="516" grid="0" gridSize="10" guides="1" tooltips="1" connect="1" arrows="1" fold="1" page="1" pageScale="1" pageWidth="827" pageHeight="1169" math="0" shadow="0">
      <root>
        <mxCell id="0" />
        <mxCell id="1" parent="0" />
        <mxCell id="wmhQNWDctoch9JXFlcYp-1" value="" style="shape=image;verticalLabelPosition=bottom;labelBackgroundColor=default;verticalAlign=top;aspect=fixed;imageAspect=0;image=data:image/png,iVBORw0KGgoAAAANSUhEUgAAAmgAAADdCAYAAAAPd46mAAAAAXNSR0IArs4c6QAAAARnQU1BAACxjwv8YQUAAAAJcEhZcwAADsMAAA7DAcdvqGQAAP+lSURBVHhe7F13vCRF8f/2zGx6+R2ZIx1HOMIRjiAi+eAAlSjpAMlBRIkCgpIEVMQEiAqooKDww3gKigTJIFngyOGIR7rw0r4NE+r3R3fN9vTO7s7uexfE/d6n7+3MdFdXV1dXV4fpER9+PJ/QRhtttNFGG2200cZSA8u80UYbbbTRRhtttNHGkkXbQWujjTbaaKONNtpYytB20Npoo4022mijjTaWMrQdtDbaaKONNtpoo42lDG0HrY022mijjTbaaGMpQ9tBa6ONNtpoo4022ljKIOZ+8FH7mI022mijjTbaaKONpQjipVdeWzocNAFg6eAEQggAANGSZ0gIAQItUdksDTzoEEIsFXXDWCr5WUrqi9tScphMj9UwSFk0y0U1mEJrvLB6SHm0RmPRoL6tk9UneTajVKq2hr4Jpl7juQHOqxYviOS5aED8nwDEmHWvdUgWNLmHslz8iOpuYySp608sxlllhBdQvfawyCEE4Hk+0ikbBCAgwFJ6MM5lTYQgkDzZAnD9xZ27ggAsIeD5PjKODQAoewEsy6prvBYVUraAF1SulwQPULpiW9Jslb0AjmNVdRqLE0IAvk+wbcmT5xOEJQBa9B1JHIgA13ORS6cQqLa0BNgAINu0ZVlI2c1xoFcn/27FDnAaC4BPQEAExxJN04lDM/yYcS0AXgDYVnIaiwKC9UNUZCSE3hlXdIfLECBaGI4T91x/xrfN9CY8z0cmZcMn+ZsdAiGECmYKA6awWwC3abDd47Y8RrrNQAjZDzmWlJnr+Ug59hK1dUSSHzeQ7ageAtXeFqXMiAhEhHTKRpl1hZI7keMHAiDgei7SqTRsC3C9YNz4EAERBWMQpN6o46DkVrOyLAGUyh4sSyCtnJElCdcn+L6PbNoJjVZSyKqS8mgmnQlSTmqhWEIumwE0Y9osdIPbCoiks1ose7LDdawlxgsbfNcneL4XOiKtkDPVsRUazEsQBMioAQY0PaiHUFeM+43S1QMBKJVc5DIVubTKS6M0tUDKCSmWPaRSDpL4Z7rcoAZJIVdjnDmwhexUPNdDJpMKB2DNwtTdRnbPhKXK4RNQLJaQy2Va4iWsK+bHisqnGZ6CgFAqldDVkTUfRVBLh8z75rWJRs9HRovo6sgiUOVg2ehlqlk+ITvtsGOsFa8BLAsolz0IIZBJ2XJgajYOEzE6Kvlkr9d4mABCTRL4BJRKJWSzGQRBIwnWgOJf17WacmToDrr2O18ooiOXbZi+5vNGsmwCpVIJnbkMSJGUdqM+zPamV1MScPzKNcG2hGzTqq/2E/Bhgu2JyYeFMciL4irCyCBg6cWAbwdBgLLrGk+rwaTMwPIw7zcboHjxA1/S45sJoSv0WMANwveDkLdmaIrqami6LAxOFwQBgiCQtE3iLWAsJFzXRaBaAamBWrOB0zLM50mCpEFwle7qtseMawaOw0iarlYAZHl8X+puECSnyXEYLBczXqKg0vq+X9GdBkFPy0aKO1oK5BJPqwEAAl/qrixbq/TkiJ1R/bx+YHieH9ZRK7wgTEMgtfzVcoDU3Vr9SVXdqmA+5zrke+ZzPZ3+XAcBCJTdRQ0bQ7USQxKwlDMUkzQxBICAArlMBynnZiF5V0uTzScPwfUSBHKJvmVSSl9QQ66NwP1JQIDv+bI+TV1SoRE4+5CPFviBSu/7fnMDdCMisa4kJhAfVag6gqqjpmTcIG7Lb3EKpTHMmDSqqjL1TBNWXLPTeHrsgKQy84okt4tmw3iggbybQivGgSHGmZfxhNUCf3r8sciFwXraDA9xICJ4nhdet0qPG2Kr6aEces9rPNBphKYMTA14nhc6IknBNsRWwURoYxIGHUSyk+Olsrg4ZvrqeAQhtC0YMfFqhZACd5QxvCQLFWLskOgw86tOH6XVqC0RpP32Ay0Q4KMyCAj/cieuQkBR+yqXvirP9RCofHQIrZ3qDaO6HJX7tZ4nCRCcZ1QxmIcwHt/ne7HP5bJsVdyEQU8nqUm+zHhJgj64MHnloOcnhBFPPZNOGLej+FBFJybwc/DMcouBBzioUa4qXqrqqSITxNCPC1XxlHRYvqzCZrpaQV8tJpL2JfK88rhFNDnVH48KgThSeiPnoN/Xb1CoSAmDMjD5fAElV65lUyDHT4VCAaS8bE2OIYjkdLjvS6XVZy0Qk8Z1fZTKbph3UgitTAwuZxBDyw/kPhcvIPh+AN+XM5Slkiv3myh+iSD5UbyXSi58NVpDDP9JQQR4XoAgUDIh+TcIpAK6AWG0WMLwyCjyowWUSi5GRwsYHS2iUCjJuii5odw9L0CxVHE8hBAou2W4fhBRcBh1H95Tf/VyBQQMD+fh6pvrNLB8+LfvE4rFcqgPUHQtS3ZyrIuNqpVplV0PRPK35wXwlayYH7Nhxk3fR/gjwPOkbslniq6qax0s03y+EEuXwbzm8wW5N1Tx4fsE1/UjtFmmo6OjcqCkZWqOveL01uSxCg0j1EcjRyQJWiah8a53lq2WSRjpdIOeFCLsXKo3/+sw21LlgXFZQ/k5fSwNHaRko6fhNlWD9riD8+TMk8KsD0UjCAKgyXoxIWUhV1Jaxhjy1xHR3XHCWMiNnReBQDl5SUVUKx7rbq3ntcAl4KKY6c1+oGmYo43FiUQNvwEokPsOujtzyKTkHjjLsiAg78WN5BlEQDbtIGULNVqsZob583y5TymXTkUq0zd7rxgwC0EQgNjZ8QlBQAiUk6LLwrFkSFkCaUfuG8ulU8hlUhgYGoGjNrULAeTSKVgqTS6TgiXkM6tFm0hqVJR2LAgh6dr81xbwfULKEujIZtDT1YHujhxymRS6OnLo6siiM5dBd6e8R4pe2rGQy6QqM6RE6O3pRsqW6stKHJCcRXJdD6VyGaWyC1/JSWhyJLU3qbe7E2nHijilOsLZYbVhuCObhi3UTEAgR/3C3ASUAClbIJty4Hk+UrasoyAIYFmyrFweUg6RdPwp/C3LJGep2LhYAujIZkKjJYSqe1vAV04yx/VJ5tPdmYNjbFbnokjdlLx2d+bgqMkaxwIcW+7PSdly0z2ncQTQ3dkBW8gZcXOjrH4V+AFcxb/r+nJjrfZ8fNGKJtdHU51urexr3W8C0tFqHaRXoH7fvGGgqvzm9f8SNGEJQxRLm1hM/pY4liAzlUHK+LHRqN2Y4Hy5PZnpx+ygAeNYOg3MqPl3PCHf7AJGR4v4+TW/wONPPo20I0XiBcDNt/wBo6UySOXveQEKhVL4lo9jAU8+/QzeeW8uhJCdjukwCgGUSmWkbQtvvv0unnjqafk2mXIKUpaApTZ36/AIcN0yoDkUKdsKnZ2ULcLOXajnjAUDQxgYGsFwvoCBoRGUyi6ee/5FXHnVz3Dc8cfhpJNPBQAMDAzhqWeexeDwCD746GM88NAjKKsZtWrIPS9go64/Udflsof8yCgEgIu//V0cdtjhALQ9giSdtJdeeQ0XfOtifOfSy/DDH1+BW/9+O358xU9wxVU/xeU/uQo/v+YXuOOuu+WbXABefX0O7r73vjA/27bxyCOP4smnn5F0FW1HOYbZtIOOTBq5dErKSb35yWwLAPlCCd//4Y/x4suvImUJeOz9KQQkZcwN5NHHn8Q5556HYtmrOJxhI0+GctmDAPDHP8/CV08+BZmUjcHhPN54621st912+OUvf4VCycVIoQhA0ted7fC3LX9nUk64jHjX3f/C6Wechb6+HkCl++73vo+rf/HL0Em2BVB2fTgCeOa553H5lVfh4/kLpWxU8VkKJdeHYwEvvfIqfvjjKzBvwQAEgI/nL8RTTz+Dk045DW+8+TYsVGb93n53Lr518bfxznvvw7atcG8etBkR1/UhuJ7USwSZlI20Y1XVQaTVm4+WBJJW9H8ZWilWVXVU3fjfBds7YQyclxiMZrSk2YlgCTIT1kv1ToGaWNx1KQIi8puY4gsh5OwTuJMyCIQGX/01n0PVja3eVvT9AN2duXDTH2l/UYOOnodlyU6VZ5OSgF/r/mjeAqyw3DI47Wtn4geXXYrf3Pg73HvvvXj88ccxc+ZBOOfrZyEwvNmCeltu3fU2wJZbbokbfn0dCiUXqXQqfGOLlFOXdiwMDuex0/SdMLBwAPfddx8mrrwi5s1fiJ/97GfYZ599MHWD9eCp2TxSb07yG6WplIOvfvWruPfe+9DZ2YlsNot8Pg/XdeH7PtaYtAZm/eUv8H0fjpPCzJkz8fDDD2PChAkol8tqr4tAuVzCpz+9NXK5HK69+md44823MWXKFDz88MN4++23cfgRh+Pll17GyisuH77ByrwMDI3ASTnIZbNqJk/OTFmWQMqx1RKdLOvNt/wBMw/cHwCw9TbbgUAQEPjVr36FddeejH/88w6ce+556OzsRF9fH9Zff33ceeedSKfTsB0bTzz+BLbYYnP88593IJdJ4UeXX4mLL74Yb775JnI5Oeuz6+6fg+e5uPvOO8K3v6795XW4/vrr0dnZgWKpBMdxQAFhyy23xEUXXYSUY8FXr6+//e5crL7qRPzs6mvxpeOOwWixhEwmIx1tFeed997HbX+/DcstuxxuuOEGzPrzH3H6GWchm83ipZdexCWXXIJ1114L8xYMYJkJfUANe0Nq8z4BeOzRx3D2OWeju6sbhx56KO6991488cQTcD0Xq622Gt566y189zvfxR6f2x1PPPU03ntvLhYuXIiFCxdidHQU5XIZvu/jxRdfxAYbbIALLjgP77zzHvbee2+suuqqOOyww1AsFhEEAS699FL09/fjxBNPRDabwZ577ol8fhQ9XR049/wLcfG3LsBb77yHiRNXruKX35C69pfX4bhjjsJ/np2NjadugDvvvgff/OY3QATstNNO+O63L8ZwvoDuzhzu+te92GX6jnjtjTcxedLqGBrJo6erE57WLm0BfPDRx7j88svx6KOPwfVcrLTiSjj22GOxy/Qdw/YvALi+vOKZuDgbUg+kjgYouR7KZRddnTn4xpuTuq2oRz8gqcOWZgSS2hnwXhtlN8rlMnq6O6t4aQbc9lDHJprPdLCeDw4Ooq+/F/z+vF4kUnTMcjJNtrvm81YxPDyC3p6ucElcz0f/26hMrfJEJI8/KRTLsCw50HP9ipz1eDD4MHkytw6Yz5NAqDYzOjqKrs6OlvVF1qEshylTPQ5qlIlV3vUJIyMj6O3trkqfGKpMlqqrVsoDxdvQ0Ai6u7vkjH2NrRQcl6H/Hkv+DNaZ4ZFRdHV1yPbTpGxI62t1+4IxzaBxo1E/pBJEoySFZKwiKd6fwn91uhSzPYALx8+Tgg2/4zjoX2Y5rLTSSgCADTbYAO+//z4OPPAAbL31Z1BQe7deee11XPzt7+Kd9+Yil0nhtzf/H1556QVsvfXWgHq70HM9jIyMYnBoJHTOHn/yaWyyySZ46823cNVVV2HChAkoFMv46KMPcdVPr8JGG22E39z4OxBV9ibNfvEl3HHnHcikHZTLLtZZZ13ssssuWGutyXjw/nux7LLLYqeddsI222yDzTfbHOWyiyCQM4LHHXcsLr74Ynz97K/j61//Or72ta/hu5d+F3/9699w/vnn49qrfwaf5B47t1RAqVyC53kYGRwIK9aUZ19PF7py2XAmL+3YyKYdpB0bxbKLIAgwMjKCb553AWYeuD9OPvV0PPTIo9hjjz3wyIMPIJ1OY+LEifACwj//eYc80w2E9+a+h/XWWw/bbbcdttpqK+y262449dRTkevoQCrlhHLN50ciew6GhoYwOloAtHq0LAvd3d3o6upGf18/0qk07v3XXXjooYfkpnW1VEgAMhn5SvRyyy0HABgZycN15WZ/35d/586di7/85S847bTTMGvWLOyy62544YUX8PAjD8OybHR2dql9i4qpGLD+ll0XGcfGKaecgheefwHlchk33ngjXnvtNQwNDeGzn/0sVl1lVbzw3LMYHh7GcL6AffbZFwcccAC+ee43cc011+Dmm2/Gty44H5dcdCEeeOABEAWwAOy99954/fXXYds2Lvv+ZXjooYdw0003YWRkBIODg/jVr36F2/7+dxQKRaQzaYyMFnHttdfiwJmHYNVVVsboaCF0oAqFIhwLuPPOOzF9l13x05/+FLAc7Lrrrpi+y67YZfqO+NznPoeLLr4I5513HgDguuuuw0oTV8WZZ56Jju4enHXWWfj0Z7bFXXfdjQBAQe0vtAVw9z33YYMNNsStt96Gx594HC88/wKGh4cxY+edcN4F3wqX1imUnarzOjJeHKhsBq62SUsKzMKYeBGSEMuckYQk290kcRcHiCoOwJLEEs6+GqJiIzFWfRkrVN4Uc6TE4gTLYGlpz7IdVd7KZrTuoCmM1x403djUC5HIxmWznLDxL5fLyOfzePnllwAAm266MX7729/iqKOOxg7bbYNyWS41zn7+eZz7jbOx+eZb4PY77sJPr/opVlltDZxw/LEAgFwuh2zaQU9XB/p6uuC6Li686GJsv/32KBaLuP/++7HbjJ3DvKdMmYKnnnwKW2/9aRz+xUPw3HPPIZNy4FjAtddei0MOPgSjhRKEEDjppK/g8h/9AN/+znewzHIr4Oyzz8blP/oBrvn5T/GtC85DOp1GKpXCPfc9AMdJYf3118caq6+BjTbaCBtttBF6e3vx7nvv4vnnn8fb786FrV5TBoBMOgMrdN2V02pJ5XAs4NzzL8SkyWtji099GlM33hQbbrQxNtp0GtZcax3su9/+yI/kIYTAzJkzceWVV2L7nabj8ccfQ6lUwl//+ldsPG0z3Hrrrchms7AtgenTd0J/fx96unswec3JKJfLmDNnDj744AO8/vrrKBQK6hiNiuNl29JZYziOE/JsWRYKZRdHH3k4bv/7rfjTH27BrD//EYceeiggbFxyySXoyKYByINuodU91/nyy06QI2ZXzlj6BKy77rq4/bZbsfnmm6OjowObbLIJjj32WPzrzjtwy82/Q3d3NzzPg+NU9svVgiUkr7NmzcKkSZPwr7vvxl577YWurk4AwEcffoSRkRE4max0NDtz+MMf/oAnn3wSTz7xJGbNmiWd3FVXw8+uvha33HIL3ntvLt5573384Q9/wEorrYS7774bX9h3X5x99tm4+uqrsdJKK2GttdbCNddcg1NPORWZTAbZlIN/P/pvfPjBBzj55JMgAGQy6arR57LLLouJq0zE3LlzMWXKFJxyyik44IADcOs/bseUKethwfwFKBSkg3zwwQfju5d+F8PDw+ju6kJPTw/WXXddTJ06FZZaks5kMhgczuPYY4/Feuuth+eeeRpT1p2Cz33uc/jHbX/DUccch0u/dyme/M8z4bKprCO2pFH+/pdBfBSJ+WAcoOtx0k5rUfDRLFrtA8YbusqGWNJMAZDdf/I6XZRgcSwFrERg+hqxwUw0jojzpWSvMU65Nu0Rj1e+Wt7N8MCjCs/zMGnSJPzimquxzHLL49zzzkexVMTKKy4PNyD0dnfC9QPsu9eeePLpZzBp0iTsvusMPPzgg7jiiisAtfE6ZQv4BDz1n2dxzjfPw/rrr48LzjsXhfwwLrvsMqw/ZR0AQDqdRjqdhhDAxJVWwJ///Gfc8oc/YfU1VocA8O/HnsAVP/ohDjroIHTmMrjpppuwwQZTseVWW2O3XXfD/HnzcOSRR2LjaZthy60+jTXWXAs//vGPkbIFvvOdb+OII47AQQcdhIMOOgibT9sEu+yyC750/Jdw/PHH49xzz8Xg0CAA4MMPPwQAdHR2hM6aZVnwCXjvgw9RcuW9yZMnY+utt8Zmm22GLbfcEltssSU+teWW2G67bbHJJpuis7MTKVvg9NNPx4svvoh7774LI/k8dtphO2ywwQb4z5NPoDOXgaX206+66qpyts9xYNs2VlllFbiui+HhYUyaNAmZTAa+X5mZKhaLGM3nIURlCrhQLCCVSgHKAcimU/ACYGgkDwLw7OwXcPTRR+PwI47A9tt+BgNDI1DvFIBUmlQmi2+c/XVMmrw2Lv72d/Hhx/ORSdkQaum9r6cLv7z+1/jTH27BCissj/fem4sjjzoSXzz8COyw085YdtllMXv2bHR0dGBkZBS+H/eaSAVlL8C///1vDA8PY6ONN8b555+PV199DauvvjreeOMNzJ07FyutuGI4u7flFpthw/WnYIXllsHFF1+M119/Hffcew+mTZuGM888E++++y5uuPEGjIyMYN68eVhvvfVwxRVXYu+998b222+P4eEhvP3225g2bRp++9vfIqU2Kv7m17/B6musgb/MmoVvnncBFixYCKEc9s6OLMqej2223gq/ue5XWLBgAU49VTpnp59+Or58wpdx+umn47LLLgv156GHHsLGG22Mnp4ebLbZ5vj5z3+O0047DXPenIMHH/43stk0UrbA3/72V8x5/VXccMMNGM4XMHv2bEyePBkAcPbZZ8Mtu7jnnnsAdQhlRJpNtOtFCdHCG5PjDZ650q+XBAhLUb2E/y05eUDTj8i96GXTqGdTEkFVlOCl9rEyNAa00k8vCkT40Np0w2ASGkeQOsZHh+yyWshViNAnD6+bhpYmzntMCjZWzY8OZIJUKoWPP/4YBx96GL70pRPw7Yu+hXXWXgdfP+cbyI/k5adZbAvD+QKmbbKRXNqxbAABbr75ZowWS+Em/X/+8w5sNm0avnPJRfjUpz6FG357E5x0FsPDw5Vc1evKnh8gXyiht7cP+39hHyzT14uXXnkNM2bMwKTJa+Pkk08GAEydOhWHHnooDj54JnbffXdkczlss802OOLwI3DAAQfimGOOwZaf2hKAnHl76qmn8Oijj+Kuu+4CAJx11ll46qmncMc//4m//nUWJq0xCQDw/PPPA8LGhP4J4YbuIAhgC+CYo4/Bddf9CgCw1ae3wlFHHYXDDjsMJ3z5BJxwwgk49tjjcOyxx2HvvfdGRr1xOWPnnfDOO+9g/wMPwtz35gIAnnrqKWy3w46YuvGm2GuvfVByPQQBoaurC5lMBssutyye/s/TmDNnDrbaaivc+NsbUSwW4ft+KNM111wT+x9wAISQL0T4BORHRtDXJ/d9BWozZKlUQk9XJz78aB6OOuoolIuj2GSTjQFVx+HeFlVOt1TEeRd8C9OnT8e53zgba621Fr77ve9jJC9nhu6+9z4cc+QR2HPvffHXv/4NPT09GFwwH//3f7dgjTXWwKxZs7DyyiurfDvkXj+ZRRUCCpByLFxzzTWYO/c9fPDBB1h2uWXR29eLPffcEw888ACWXXZZbLrpNMyaNQsAsGDhIFyfMDQyiht+fR3OOOMMrL3mJKy//vqYMWMGTjjhBJz45RNx7rnnYnhkGK+/8ToymQxWWXUVnHfeuTjiiCNx/PHH43vf+x4OPPBASXNgCI888gjemvM6brzhRlxy0YX4/e9/D0st6d7+zzvDL3rce/+D8MpFTJmyHpZZZhnccMMNePTRR/HAAw/gtttuwxprrAEAuPHGG7HVVlth9uzZ+Ne//oW1114bM2fOxK1/uxW7774bZs9+AQDw4EMPYb0NpmLS6qviz3/+ExzHwR577AFoS86eWmZe2sBtFq2Zy0WK1vlp2mBGofYuN293xx+t9wGLBnK5qrrDbQW1rUoyMC9LC0JWlgKWqJX99+MJPXM+0ku/FxCR6xN5QXPBV+k4+BQNHI+fm+n5WUBEI6NFGs4XiFQ6na4ZvIDIi8mD+dHvNwpF1yMioo/mLaBsRxd959LLiIjosSeeor32+QKtt8GG9PGChTJu2SUiogceeoRyXd205ae3pgsvuoQA0HY77EQfzVtARETzFgzQD350OT3/0stERDT3w48o19lNV1/7C2K4AVHJ9SkI78jr39z4O3LSWVp19Un0wkuv0HC+QPlCSYtF9Orrc6irp4/u+te9kfukyk+q/EREf/nr3wgA3faPfxIRUZkfKGy/43Raf+pGRET006uvIQBU9gK66mdXEwC6465/ERHRIV88nADQ8iuuTJ3dvWEAQFtutTUtGBiioZE87bLrbgSAnHSWJq66Ol10ybfpnG+eR9+59DLaZbfdqadvApVcn5546j+04/RdaPouu9JXTz6Ffvrza2jzLbeis79xLq0/dSP66smn0g477UxEFCn/wNAIERHdefc9BICu+MlPiZTsGO+89z6ttc4U6urpoz333pcA0IUXXUKFkqw/1rkPP55PAOiPf55FRERPPfMsbb/jdNpg6sa0cHCYfCJ6Z+77dPmVV9GLL79Kn9r6MzRt8y2pu7efjj72+DA/IqKFg8P0ymuvEylezHbg+lLHiYh+cd31tP2O02nd9TegY477Eu2w085kpzPU0dVDTjpLq0+aTHf+6x4irewDQyNkpzJ0/oUXEan2ouPPf/0b7XfAQbTq6pPo1NPPoGOPP4F6+ibQ5p/airbdfgfKdnTR1df+koiI/vCnvxAAOu1rZxIR0fobbkSnn3EWERH95sbf0QorTaTX57xFREQnnXIaTVx1dSp7AX3j3PNpj732ITLyZ9G/9c67tMpqa9CBMw+hx558im6/4y6a+8FHtMLKE+nSy75PRESnnn4GrTRxVVo4OEw7z9iNNtpk05DOz6/5RURXR0tlKpZdKrmebPsx7bdRYN6KZZeGRkYpztZV2ZYaoewFYd2SYX+SBG55o8UyDQyNxPLSTCh7QYR2M3bXU/a77Ac0f+Eg+SRp6HTiaEVoava2Xj7NhIWDwxRo+dbiw0zHz5iXZutGp8H90WixTKRsZlw8kw/mleu57PlUdL2qtM0ELsfgcH5M+lL2pe56irk4+dQrE6PsBbRgYCg2fdKg15HrSz0y4yQJPhEtGBwiV5VJ1xsO9crE+fNzU/frBTOPgIgGhkdinzcKzIen2rSZF0gRDIknzIAJczAJx8U3g6eEmy+UaHA4T8xLs0Gv8Li8awXu2OctGKDu3n46/8JvERHR0MgoERF9PH8hkTKqCwaG6GdXX0sAaIOpG9OLL79KRETf/+GPyUln6bnnX5SFUWCH4JnnnqdMrpN+fk3FQeNG/+G8+XT7HXfRN8+/gNZYcy0CQJtutjm98tobRET0wUfzwoa1YGCIiIieeOo/1NHVQz+6/EoaGBqht9+dS6+89nrIM3fqz7/4MvX0TaAp629IQyOj5PpEhbIbGp7b77gz0lF//4c/JgD01ZNPJQD0tTO/TqRkunBwmJ57/kV64aVX6PU5b9Grb8yhV1+fQ6++MYfefnculf2AimWPLrrkO/Tgw/+mM846mz6/516k41/33k9rrLkWERH9/o9/pkyuk76w/4G04sqrhHl/Ztvt6Kyzv0HfPO8C2m6HnYiUwxOoOvCJ6N77H6RsRxetsNJEenfuB+QTUbHs0XC+QDf93+8p29lFuc5uuvNu6eScevoZBICOPPpYGhzOk6d08YOP5hEA+uV1v47w+fECWedeUNGD8y+8iACQT0TnXnAhXfzt7xIpZ5BUeSwnTT/40eVEih9fa0uuX6F18KFfpJUmrkJTN96Edv/cHnTAQQfT5/fcm7bZbgfq6ZtAUzfeNGwLJdcPnerpu+xKgKArfvJTenfuB7RgYCis6y9/5SRaboWVaOrGm9KnP7MNbfGpT9Oe++xLXiD1cMuttqaf/PTnREQ089Av0oRll6fB4TyVXJ82mLoxffXkU4mIaMr6G9IWW32aGJMmr0177fMFIiLq7O6hw444ioiIFg4O0UfzFoT5M49T1t+QZh7yRSKlh+xIX3mVdKTvf/BhAkC9/csQAPrV9b+h4XyBbr7lD6r+tw8NrhdIOdZy0HTbUyswX+PloLEBZWNuxqkXuONemhw015e2z1WdTLNlcpcmB83o/M3njQKnIeWg5YsV3ebn9ejy80AF1j8zXq3A6fV8uDw8MOV7ZtpGwXTQdBlziJMt88JYJA5aTJxGgeW8YGCIXMWg3gZ8zfaaQY/jauVOWiY9PacJ1CDajGemjQu6HGo6aL4xggozqBU0wq4ynkywVkPX89DzImXMWQmZTshDTKFMunqFJ+JfBXbQPpq3gCAsOuOss4mI6L33PySlyyGPX/7KSQSA9t3vAHp37gdEyti6PtFb77xHpBS47AU0WiyHHfLsF14iy0nTtb+8TlGqOB3/+Kd0knr7l6F9vrA//e7mW4iUbEquTwNDI1T2Agq0TnBwJE9bb7NdmI5nsu657wEiJYPzL7yIICzq6ZtAjzz6OJFWDiI5Ilt90mSavPa69P6HHxNpDpqdSodyKLl+KCOWaxy4LvnxuedfSD19E+iQLx5Oe++7Hx11zHG04Uab0PIrrkxeQPTnWX+jlVdZlc7+xrm06uqT6O+330F33PUvcn3pgO3zhf1pp51nEGl5/vuxJ2jjTTcjADRl/Q3p0cefJCKiUWVIr//NjQSAZuz2WXpBzV4OjUhHhx2sP/zpL0RKluygXffrG4iIaDhfCGXEusWO0m9v+j8CQJtvuRUdcdQxNPOQL9K6629A+x80M9Tds79xLgGgS75zKZHSaabj+gHlCyUqewFtu/2O9KlPf4Z23HkX2mOvfQgAXX3tL2mliavQpZf9gLbbYSfaYOrGFChHjw3Q2+/Npd0/twdBLgzQlT/9GZGqo7333Y923f1ztPa669HJp55Ou+y6O01cdXU66pjj6NjjT6DO7l664Xc30YKBIQIQDkR8Ijr+hBMJAPX0TSAnnaV/3nU3ERFdf4OU559m/ZWIiPY74CACQJtM24y23mY7slOZsKys6zf89ncEgNaZsj5ttfU2BICmbbElLRiURj0golv/fjvt/rk96O+330GPPPo4dfX0EQCaecgXQzqsT3IGzQ8NWNimEzpori+VRzrwkrYbRI23Hr/Kbmg2qKzNoDF/HJiWGfgZ6xWpmcHIYNSwSYlCjIPGwSxXVZlU8JWtmL9wIKRhlj0ucBxfyZLpROTRbFByWDhUcdCYVqDFiS2TIWfmhWk2CnpaX9XRyGgxHHwwPZZvSNuQiW4DA5K6V/akUxTLTw0aej5cnpp9Y5Kg5BY3g6bT0GVr8sMo+wEtGByq6JmZV52g58kybaau9PTMm3TQJIem/EO6NWTMz7nccfEjQcvfrCcyHDSO48eUIxI0eXiqTZvlsM+/4IIL+MwW4qVQfmOyVqgDnQZ4r5r29kOElHobqey68D0f6UwmspdA/qa6uyxkPHnGC6cNiABSh6PUCUEQwLEt5EcLmDPnTcyYsQs2WH89lMoustksiqUyhGXBFgKrrrY6ttt+B1x04fnIZHPwggDpVAq+72GZ/l51qrzkQQgBy7Lg2BZGC0W88cYb2HHHHbH2WpNB6gwjImCllVfC7rt/Dud84xwcd/RRmLrhBiiUXHh+AMdxUCwWkU6nICwLQsivFeQyKez+2c/hc5/fAzNmzMDee++Nr3z1JGyyycawbBsp28Jrr7+O3t4+3HLLLZgyZQoKxRIyKQcEeSZUNpvBSiuthCOOOALrT1kHbkDo7u5Gb18/rrzyJ/jiITPhK7l6vgeCwMhIHp7nwXZScD1fntofUPiXIM+lyWUz+Nc992LOnDnYfPPN0dPTg4kTJ2LBggUoFos48cQT8fbbb+Pmm2+G7dgYHh7Ceeedh6kbrIc33nwTX/3KV3H//ffj6KOPwjaf+QxKZRcpx0Yqncbjjz+OM8/6Or7//e9j4ioTISwLlmVDCGCdKVOw/Q474oJzv4nlll0Gg8N5WJYNCIHpO+6ArbfZFttuuy2ymTSEJeC6Hp559jnMmDEDk9ecBKi3LD2fYKvNb47jIACwwfobYOvPbIP58+dj3rx5AIApU6Zgzz33xFprrQXXdfH5z+6GN99+B7lcB3bacQe4ng9H7eVi/fV9H1OnTsXChQsxf/58fP3rX8e2222Pf//735g9eza+853vYM8998QyyyyDLbfYHH5AcBwLAQE9Pd3Yf/8DsN/+B2CzzbfAlp/aEiutuAJcz8eqq66K3t5e3HXXXfjtb38L3/fxyCOPYOONN4ZlWXjzrTex8/SdMW3aNHR2deHzn98DK66wPABg++13wKTJk7H5Zpvj8ssvx5ZbbI6AAMdJoW/CBBx00EHoyGXxuc/vgWmbbY4VVlgRq6yyCg444ADsu+++6OvtgeU48LwA0zbZCFtvux3yI3l0dnbiyyd+Bd/73vfQp85NKrku1p+yDg45eCbWXmsyLNvBqquuijPP+jpOP/VkZNIplL0gfNO28p1f+cWCsE1D6mYjEBFsS8DzffnVhnRK0ZT0+Xw+LQVItxvKvjAtQB4HJNQZShUbFQ/dlnE2ruvD8zykM+kKL5xfwsA2tWJvKja2mh+jTCrIuAGKpRKymazaTKbSV9GogJ/LskftbiiPZgPk31KphExW9gEhTUVXB0Gz79pzloO8l6wP0GmTolFSb+2nUg587fAxTgZN5jKvCg2ojeTyqx8cUVW+nrfMLbLfKMKaqqMgCFAul5FVcgE/i0SuExQNKN211JdQqmgY0OXPPPo+oVwqh3VUlVedIMtTaW9CcPuOkU1M0PmRBOSRQOl0WuogKjLjOFSjnsI4IbHo81hoz3TWgCgvQLQ9mOUwExOg9iqqtqzaE0cRRESVAw0qiRpBqE/BQAnbOMtPZVzJ3HzOcSzt8Mbe7s7IQbWRuOpGZAOdAldEEMhD48y0jSC08ueLJfiej+6uDnjqkEKhfbQ0UI2P3yaUZawcjshlhtqYaVk2HEum8zz1bbZQSeWJ8ABQKLuggJBKyU9BWZaFkfwIujq7wjKxzDmNCf2QT0ah5MoDWzXtsywrpMFvavJnrqDSWJYFy5KfIEqnbIwWihDCQjablt9gjKkIIoJjCwyP5BEEhL6ervCZT8C7776H5ZZbDuVyGcViESsuvyzAX00ou8hkUhgZGYXneejv64HnVza38hceoPhzXRc9XR3w1aGHOjee0gMoeQl1ij6hcpihXqd8KC/DbKgmfR1lL0CxWECPOi4Dqh4YRGyoZb07FjA4nMfAwABWX3UioA6AZOPJ+XADhVbvtvFVKU/ThZLr46233sLyyy8Px7FRLJWwbL98iYIPGe7KZcO0Om0dfFiyrmKse63CVwfUQtEXQg6iUoZRCJQ94LKXy546YkW9y1SnjuJA6qDasufLg2o7srF1zbTMQyJ1yA43gKM+xWWcQwo0sFFMulj25EG1Snfj4iaBb9gmXRyk+EWdMgnVFgYHh9DX1xPROx31yqTb3Vr5NIPh4XzYB8DQuUZl0nlptQ/gv3l1tFFHNh22B50XdnCE0U6g0pMa6AGApT6rVwuh7hmRuM35AZDPS7lwmZotG6lP4NnqSzQUQ0PKNr6v5ksvgDyotqerKn1ScJm4v7QqfnYi6PW0cHAY3d3doQ006YT1FOOf6M+B5DoTQwYCwMDwCLq7usJ2wnrQCCwPqbuy/4w8l1NqRmNIQFlonilfmyD+TwkovNaeO0I2iHK5jN7e7vB03wgPesfF9zUJEORIuZJWZdoEXFc6MqVyCW7ZRU9PNzzPh6VmrzzPC0/1t6yKM8MgUkegKgeNSAqVAvk1AMuyYBlaQEThSf+pVCri9AghkM/n0dnVCce2I/LgLwjo8VOpVHguWLlcDkdNqVRKjVwY8uPerutKB9FxIISA73vwPOmsMS0uRyqVkmdeCSCbzSLwg7C+WdIUOqYSQRCEPPq+D9u2Yds2XFfOTgpLID+Sj5xnFgQBhCXg2A5cz4Vt2xDqJPkgCOTbmiSP3Uin0+jqzMlvOArA8324ZVmHOu+A/GC853lSxppFcF2Zh21bNXVeNhz5fU95LQtORLBtO6zDzs5OeJ50KCy26CSdYb3ei8Uich05OJbAaKEk6Tg2PNdTx4vIt1z5CBEdkg/5tq2sIznaKrtlpJwUbNvGggUL0NPTI79coApl2zaEJevBLbsVXRGA78kZHS6XHJFKx9z3faTTKViWDdeThzBzXTHfjnY+HRGhVC7BsR0MDg4ilUqhs7MzbEOMIAhkHhTALbtSx9Ip2KpdSRmqT2Op2WhosgfkDHQjEBHSjhU6RV1dHXUHF4KteAxt1idHfVqNB6chVNLQLOmjd2X/BOQp9eVyGT09XeobsNW8NAIbc65/7ux0cHsU/Jkz4znTGBwaRF9vX2SAWYkU+QMyykSBnG2OtdktYHh4OOwDoHjUEZZJSMfUzM+ypKMR96wROC9bAMP5AoQQ6OzIwvUCWLasc47H/Onp9GuhHDRSA+1aYD6Zhs433/f9APl8Hn293eHgstmyAUAQKBss5ICpqp5ZaY1ZPWjOo+vJw8j7+noiMkiOykyRZclBRlxbrAddVgsXDqK7uxspxwIZcmlUT4iJn0SucXSEkAOdrq7usDxJ6XE7siyBQLWnCF/mDFoSmrIaNQGoGQozDmekF0qPRmpkOVosyxkRNUoI9cU0CjUExCM4Hj3xzHKzEACK2uyMOXqqJRv9ufTK1ce5eWmmGWjlHBlRDlrFp9CjVMHkk9TIKdIIdOEmRMoWGBktwnFsZNIp2TkZ8o3Uq2FI2Si4rodMWn0dwAvCjtq2LQTq49rsVHDnw9dcBscCRgpFCAh05jKhvoR5G+VPApNGUlgCKGkzIiyWMH/mQStHEASwHTs0en5AcCy5fM1ySqq7pNJwmQWAgUHZyenPyq4yzrX7CkDxwsuK7FQm5YVByvgODg4jm80ik0mF364FGgiaZD0LdeZQ2fVg6zNo0agNwTIouT5ct3oGjcL/ojDLLPVQ1h3PoEX0LPxPwkyPcZ5Bk7xUPkGkzw6EfBnlissnCOQXOWrNoOntJy49abNWdfyQhmA6tWbQQjnXKZPOy1j6AAvAyGgRlmXFzqDp8tXp80/+6yqd5+0SJogqxiKODhc10GbQTPuSBAT5ScYgqD2DFpGrNhli/tVn0FqRr6kvreqNUGHh4DC6urvCmfhImfivkrNZFlLPuOzN8KEXm5TODKjPTrFMktQTqwAPKuJm0Cwwo0ah6oWqnLX0YdDi8G9mujqOHG3wvfCvmY+WLsKP+TwmTpLACB2amKWtuPjQlCZUBDVV3HSwVKhzMF6oZDF8QFWqBZmeR/5Q1zwjlTRwJxAEAYTapwWjvCaPQkjDZFlK8dQ9x5HOmVCzJDx7R6pjlmllvrpjxs9C503IGTITZt0ngWClbBE6H0RRUlF9kBe2bSPwAxCpAY6WgDheQrBseWQdAOHnn9gQA0AqZcsZEl1GMQEQcsZF6a5oNWj1Fv62KrTjgsVxFA2AmVI01K1WwG2ANN3Q9SO8VnnrcThepJ458HOjszLTk6YXtXhpJpiI1KP6oceNK5N8pHhR1yZPDcuk8WLebyZU0htyMcqlx48rU8hLTJpGwUSFF0M+nIGWR/i78qhCIyYvThOquXYd4T2kUaEaPksYIgxpiMTRrqHfiy2PlIueJnHQaDGq4jQKERlViEbua7T5YVVao2wcv1FQ5KL5AOqsOYPPmPQRWiqeDpM/C012CmOByUwlX/mjFhssGHmh/a7Be8yt1mAyrMPIRI/KDW1JIcKL3uG1gPEtR4UaH57Izlc1Yu6Ht8aXq7GgJvsGKPxPOqcI6yYhgToQyiky55n4VzM5mHEjBsM0QDGBoZcrNKR1Qmiw+DcqzOh0WwHzYpYtzLfWdROol47rp3LD+DtGNCITxxtLhKspjkZcOkaV2prX44kYPqp4M/IfMztanelljdBVPJi8mKzVQqN0Yy6Dgu7gISafOJi86WiVr7h0VXrUAJHoTabVC95s0noQQEtbFRDDh3ktZ9CMm4sLlXzlr1b4qKdIixR18q3zaIlg3PkxtSgxogmbdk7CgjSZbhEiqWxjOY692TqS8lIfahZLGU9pfLRrfZYsJoA7tladTz3J+BRI7g0dP3JNg/3Tyg3j7xIE289mWamyu+b14sZ456/R00mPdzaLBUYzbKFVRjCeMhgTrTElHj8QKjZmrDCpNLHyuohhjjKXBjTBkB61iWQN0Bqlqj6uGSOcZMYtEaH6aKbzFmHvv3RBspWUscpSbYhxkOOiwJjY4sStEtGW1qrk1cY4ozKD3ZZ0G20sfVh6HDTG0mQpjJWZetD7JUqSoAEkneaIxPKqXSRxJjhGvb6x3rNakHxVxhk8E9MIYWddI19d7ksKzdZTxQGRf1lnmqMSD3O/io4wH/OBCdZ7fUnTCIsK0fqWFywbPSxOLO78Fhc+qeVqo41PCpYSB02A1GGn6rvXSwV4k2flOr4jjXQevJHS3PDabAAqGw/NPBTdMH+VxuQHar+TPC+psgE7SYDhEHGZ2FHSnzUCkapX7VBbufkxPl8YeVT+1s/UlMuiQpS3Ck9mPTDiyihEvNNZpQc1Qhz4tv44oi91dAZgfYtuStahp4mPUQ12tEwZ1A0mkRiY8qgVoHhIAjNtJWhtmpKXfWkGQQ7YdFvVxvhB6nxSzWtjSUCvHb1f47A0YClx0CrSWloEo0M39ksz4vgkkm8MNguuh3GvDo2ZJLRDPqocGc0BbsJhWBSo5dDUQnVZ2AmI3m8aTEfJI45cnI6EqHU/BknqbiwQkKdqo4bjtDhhzjwv6rIvDnzySrR0od5Ap402kmIpcdDkgY1tMzH+YBthOgVJMW4mJsy/RUbaSIRaG+KT1H+4Hykmsk6PNL1aVKDof1XlGXeYs3hVoTIL/ckBheVuo402lj4sJQ5aG0srxt92L/Kuto1aSFCZtZwQ/VbM4/96fBLL1Bj/m6Vuo43/FrQdtDba+B+BCP+rD92F5hkkeVH5HefEfRJQPXOm368cmruoZxDbaKONNtoOWhtt/A8hqV8lYpywRGk1Z+6TAimHyvlwTaNWolr322ijjTbaDlobbbRh7ilL4jfUnEGqdb9JVHiQv5LwVBtjS82gVt/gNBKFe/xaItZGG238r6DtoLXRxv8AhAq+H4BIfhQ9CAi+Twh8vpYfsA+CAIH6VmglVNLoaatDAJ8AYnrqO65m2tpBflu0ko6DGS9JCECKDhGpMhm0KJAhvGeWGVJGgV+Ri3LWAqLGITCOyqEKX5KnaKjp+LbRRhv/c5AO2hI3CuMzwl1cqMetgFoHqRcpAcaBxLhg/FVjPGZE2qiFWu9Ck5J5yrHgeZ7mKFSffVavzivnZsX/k3Fk3Li3QRtD0TBvx9xphCTZy7fHzYjSnaqXo1zuTPDPeOlCWEL7FmtVbICd6EqSRQpmzZRAQ5gJzOvFjfHOX6+z+NsVxN5sIwnGJLoxJR5fcNsdb8jzQg2fwtwkGxdkRBn09GGIiV8VR5HRETFmMflGaOp/of1NkDYuyISV/GsyqcFMRhifg7lI6+jGBIGqTqIWhJKfKYLK8wREFgEqsh0nmIVsAWNMHo8miXIx9GTsaJl6KQC4PqHkeshlUkg7FjIpG2nbQtqJhoxjwxaAY1VCyhZI2aISz64RHAuOBXR2diKbdmABSDtWmL5RcCwBWwA2gEzKljw6FlJ2chqVYEEAyGVS6OzqgC0a8yLLK/lIWfI6ZQukHcmLLaTRNOVTL3AaASCXTqGzswMWquNxSDsWPNeDEIA6Cq4hQj1IGJ/Rqo2JZKPZ3fFGUrpJ4yVGE3Ix22Dkt/kwAZqM3hCtOA9xfUH4zLyxpFCjjmryV6tM6gY/i42jwXwmzOHcGNoDpwv58AIi3w+ME9FrlFyDEAJBII/9D09NFoDQTqeuRJb3zQ6eQLAtgdFCEZ7roaenC0Eg4xPJs9HqgwCVn2UJBEHlr5lXEggBlEpleJ6L7q5OeL6kVwtmFlxkkmzBEmMwgAIYGRlFZ2dHVT6oYVj1ePzT9VTdqjpoBKZRKQvBsQVG8gU4joNsJgVfHp9UFzovpP4LAknUsSUnvFRUD2bZLQCjxTKCIEBnRxaB9u1GJKAHo4xCyCW1ZuqK01sASq6PUqmInq5OKNVVWqn56QZdnd9AyZJ1l3lqFkLIpbiRkRH09XZX1ZHvBxCWwA++/wM8/PDDcBynbjsXljD4ViaodpIQQgi4bhm27cC2bQRB0ESZeDAh7QupMxKh6CZiQIEIsGwLvucjCHw4qRQooAa8VD/kQReBYAkr5KOO+KrAgyTP8+H7PtLpdHTWkmSF2ZaNgAKcftrp+MynPwU/Jg9SS7U8E2dZhu2Rv0AArBqFFUIu4w4PD6Onp1vqf8L2Ay29ZTXffmphZCSP3u7OsMx6O20EIsUL8xQ0146E4t8WQL5QgmVZyGVScAPZRzF0XuLaqlCds+fLZXPLsmQc9QZwLZh0mHYQAKOjo+jp6pBtukk5E+R2AyKCbVuwRbzd5WuTD6AySPB8wkh+BL093U3LF7F11Fo/DcXn4OAwurq74PCB1trzRvVE6j8iyYPehpqFJYDB4RF0dXVF6jgRPSHrh/0p27EiBRELB4fJD/xEnbeOqIMGCKG2s4lKwfW4iHHSpNLYKBQK8H0fXd1dCHxpzBMVTkE6aFZotAIKmi4PIDulcqkMz/PQ2dkJ13XNKHXBjqKu7M2UowKCZdkYHhlGV2dXjY5U7lnRZcpyBsmyUEByOUt1MNxJxFELwQ+V+CggOCkHhdEChAAymWyo1M01LrkfBwAcx1HGJ/lp25yfZVnI5/MgInR0dMD3/Sb5iIL1uBUaQgi4rotyuYzu7u7wPrcLKJ3Qf5v58D2pu60PLgDA932USiX09PSgXC6rDpwACJTLZUyYMAEzZ87ExhtvjC984Qt4//25yGazKjXnKeNX1Yt6rDRNUxQTlQEThQawdmxGmLtunAQ/kTd11WxEDxxP6T1CWcenrUezUuZofSaCQVjnRV5LHokI+XwekyZNwte//nVsueWWOOfss7BwcEgJpaITRATf92HZykFj2xvSrcSP2AYN3P5GRkbQ3dMtnxt2uy5Ux8J2t9qhbx75fB49PT3wfK+2/Vb5mpA6p/UBqk2b5a4HOWEg+yPLspDNZuF6box8K78r9KXMOU/P80I7ID+3V1nWTgohZFsaHR1FV1cXuJ9OXEcKgdqDadu2HDBRECvDWpBOpixTPp9Hd3c3iHg42gwIQlTXUbPgQdvIiHSKbNsGTLuLyhs90Xqq3NNhPk8KIoJlWxhRDpre/iq/46E0Jmw/gR/AcZxo+yWKirryqDY4DtexMKYOdZb4t/7cRMmVo8qObNp8lAjMTxLeG8H1pVOTy6TCGZGkGC8+SM3OjIwW0dmRDWma0GXLMPN1/YpytqKDRHLZJV8owbZtZNJOhJekJIn1RdHT7ycF51UsS+PXkU03XUc6xlpfAkDZC1Aul9HVwY5OFFy+uLqCmkW0APgBYEcHT01BKBrmaJvhuj4yKRtHHn0sDjnkYOy804568jaWArAunH/hRVhuueXwlS9/CYhpIwQ5W2rZsoK15lQVl1XA1Duo/IaH5axVKxhr+zExnC+guzNXk55ZNh2k5MAyZLsQR6cWON9i2YMQApmUHdLT45jxdfC1r1YMhODBZXxd1LILjABAoVBEZy4bkXczCNTn0Wyrkk8zNPQy5fP5yGpBM6hVR82C5TA0kkd3V2ekfvQ4+m8zH37Oz8znScFlGs4X0NmZC+snST1xvCAAhAUEvlyt0mH5BHheANcL4Kk3sTyf4Kp7ccFTcT3PV0FeuwHBC+RUaCSu+l32A9mhacEnoFwuoVwuIQBkelJ/EwSfZH6+moL1m0hrhgCQMyJuGVCCM4VMWqiFVivbhO/78CuDgghMBdR/1+OtWXAnH2hfsQ8CNag35FE3qDf7SPswc1WcBoE5kCPCGoJR0NMtSpDabI86eel8VPEUvhVYf1N6Uni+Z94CtHp0XReDQ0OAMnAet1ktyHZcHcL23VLc6jiV0CrN2nGr6ZrPmqcZF9eMUwnJaOpxh4aGAQCDg4OhTgUx7YDUcivfqHqmhUA9D4xAquP2fK9y3Wxg2vzW7RgCKd0NlL7qZQrjqfLEBmW/w798PyavmoFk3kEQRFZPIvI1ZW3e4zRqNpLrgenwX86T0+i/dTqeF8BXnYD5PHFgXrT8mwkhbxR9gcWM1yiEaVhuNeTXKDAC34/Q0GUY4S8uH64Xo36aDiqt70s/iMHP6gXOW99CYdK32MPnaUwOPC1bO1TiyDeTBCw1Uog80+mJKA1hqZGFsCCEBQtybdoSalYucZAT4uFIpdWgaOhT2jqqhG5WlhHCNM0GlVg28Eql14OePnqPq32MiCFhKlyjINPIH3pZmwl63rVQRdeQT5Wc6sSpF2TayjKtSZdB6j+9DJF4JOmMByiQtS2qRgnyhr6sINtddZuR7bg6cPtuLW51nEpolWbtuNV0zWfN04yLa8aphGQ09biWJZdqANRts0IgsgRYVdVNQNfdJY1Qd80HS4C/Wu0xjrexIGLT9Ad8T7MvLedtJGyWDttH+ZuaTl8PY6HVyO7WhRhj5gb0emoKosJG3LK+JZRTYhqUZEEZGLWxNz7IOLFQ5dGdCC5jNZ34EMY1/7YSmC8NcfdqoZm4SdFKnetQtWPebhoUs47fFLS6ahWtyqLVdM2iVjZJijwm2Wqo17GbaL3dt8OiCawDlRcjFpXuEv9nDHxagkim44kQw4tI2IbGE4k6W4OpZnjU49bPqu7DRGiGr0Zoxr4satSXm4YYAcTcGgc077zK+LVTxU8VNYva9BNhLMnHkva/HZRISZUV/l/GYlKSWtk0riOJhNHqohYPbfw3Yey1SPpsbY2Z6EROSA1EONRmWJYWjFmCNQhwORdfeWswsoSwdHGTEAkqK0GUBBDjRKeCMTpokp1xrbTwraZkgfdBMKiGQUoUNDoMps90dZjpeQ8DI4iJkzSYCHnQlUn9MNPo8eSofOw1VGsK1+S7VtCFyz/NOI2CjnB6mwyZKISTEZAPa9GiFvgIg8YHYngx+TLLzfrBR2xUFaIFjAOJNv5XoLUR0WQ7CNRfHWacpMG0m9xuOJh5men5mdm+asWtF0wQRXkB1B5ctQ83Evi5+qvPilfFMfIzn8ewUuHDzDdBiPDSAo1mYKaNBEOWrfDCdKDZeZM+VD3xfunYoO0eqnrWRNDRbE8bSR4zE92ygyYZiypgqyCdUot0zIofD4TLrlr5dIUyYRq5cWXGKGOcgoQ8ks6zWeXNgcmTOj0+vF9DBrVQSSuPXzANVBJEnCGuG1VWea+COPno0J9HnLlxQFhHZl2Y/Bi86WVpFhXptvFJh9TZaIfbErSErdAQ6gxBsH6PM8z2YF7rIJBymirn042JpxjZVNkT7SUAMl5aiBvMQtHQdxWbNKuea4zocUm7bhRkWvWpM805TBo4b863HvR4Jp2Qnva7WV4idGLkx/d0p58QradKkJHM9IsVMfLV+WnZQQOqe4OxFJSTVguxcQBJTxlUY2STNJj8cGPXhahXvJk+DLUUImmIrvSHlaYFiuGDf5v3xgTSijwWelKgAKC+ORhHTL3lqYdamRoC4vLqDT58XCVfDmOsJ0gasflodWEWQb/UR4D8sCqfBCFMbDbKNj6R0AcVlfpvEgaNVgN/Q7TloF4O0EEx7YGvayHuhaqqvOqGGnzwc6g4YTAjS1mEb3Vr+3bNMkSuaz1Xv804zFMysK0l9X3caL7jCWaLZRkHfhYEyrbHR6sLdrjiwPc5HwoFWQ0i+e3gOr3MYoU84y56b2wO2niVyhgRjgnjREZiXIktdgihlBTyPJ5xRUv0ZKJaL45IdTKUarx0zER19uMKs6HVAkcjGEf/twSxCAXWxicOJFUmpik2j/GgMWaMIxMxpJT1Mm9HMF4vZYUYMykmUHljeFFB6OySsmmLCuqlGlFDf+Pu1cR4mN5xQbW81Fuc0ZAIRrxGac08ZJCqrO+/qY7TOEAdz9Fq+jBU2JXKZig0xzOvw/vh77G+HacfG8K/K/ly3vrvuCCfNWcwTBpCxMml8jcpKg4ZRY5RicTRmnhYdi1SnFOnQ39cVQYzhHkkjG+EVqDnzdes97ZVqeckIR6qx23jvw76rAORPPm9cj8aALlvkVFbHxJA0TT1K0lAeCxSc7pbHaotFNOv2FQjggEBAduudkKq86oXKnaXP5FVlS/H022TRsOyAFsdNhq1XVFa1XnHPFc0TDqtQM7mVY6wahYhj1U1FQVrpZRldVxJR9ZVq+ZKp1wveVU9VcldwLblkWH8rGm0kiYGMu9qh7PlGTSmUW+6MTmiQhwLxodKFKbQakKTA7WofOMJIfjzF2OuoAh0eUQVvnaoyCIqlEgcoG6DWhRYVHTrISxT+FvIJfo22kjYWuOW45rGOOn+mO2/wQdfchsxYdoWsw3Xut8c4hObd+N4NK/HgjhaZtkbhTjUi2M+M5/Xgxm1io4WQQjRwpmnepDERFw+BmrdZ/Azk06SMCao9PoATYd00MaQSZyXnBhjSBpiPGgsAggxDqyNgQAnjd0rsYTB7XTMyv0JgRCQ348dszzGTKCN/xLIGQr123i2WLBEMl26ELZXvcPWnvOs1djb9Rih5b+k7e7iyrqWExW5z98LXox8mQhVqAYD0kFbUh14mO8YGBhD0nGHIeQxszZmApWKX3qctOYYaS72fy9EzAbRZiHnVMZIpI3/HYxFVcaS1oRGq2UNrtHBtY4muKgTlR2AVjGWtLUw7qJSaKXuxmrzxgVjqaNIwuZntRuV34LaiCYMb65hQCUBX0eCoQVV6dV6vYwrPzlTK169EE6RQmbMebcUgMgSW+R+gjJF1vdDeq0FAOGnshS5qudCyI+shvdVhTK/Mo5cYzfpm7RCegaNSl4CQq3VR+InDFI2AkJ9RkunrweTvjkFLu9XeImkN69rBHMfhqXLMEEA/1b7J6v0RY8bd1+VnZ8RMZ0KT40QR1N+TsiqyDYi5wrxJrJpYwmjqp41veLniNRz9fPYoOkuX1fFqRP0NmQ+azZU+gG15GXortlezfRCpeFn8kdMnAahso9Zs1NGnLh7lqjYTIYIP59YbcNCWvXKpO5bQn4SMTZO4lCp51r5VR5UPxOioh/hfq2YYGl1VTNwYqZnPk8alIxNHjgw/aqgx9H2XiaFmQ93iawzkedm3jGhSrdN+uZNK0FgeiFdo+A6g2BG69HROjkzTqMgUHEwnRr5JA2AdIpYCfWGl6RMYXk0eZh5JAphHqJiNIx8LM0w6Pc5LtQ9x9acMzMfo0x6Wp1/QNYRf6PUpJE02JYMeh78LOSDy85Ok05DPePvukLd02mYecYFjmdr9WvGaRi4jtX3ZaH4j4tn1hUXM+SDvz9rpm0isPxCY27mw8JreozXxpKE2Qa4FiMDN0OfOB0/N3VF1xfLEuG1GadeEKjoNLejVgOXybJkBxdXrnpl4rJwHPN50hDhQxE049Rqz8wXB9vSBn4mDT2uZpv1eCFN7dvQpr1PGmwh+wFJpVY+UT5Mnvm6aoAdEyxFK7SRBh2Hy1FDNkmCgKwnRhUPejzjmgPb3WbkauYjVP6WpU0axORbKwjouhtNzzQiX4EndV0vEB92p5gDH4Bn0OG3g6Dim3T4RaQgCMIzbKriJAhJeE4SmBc+x4Z5Tlwm422rqudJgyYX3jyuPw/ryaBv1p9fdWBffF76NKtOh+Mj5EVecZwqWg2CyZ8ZiPhMJD500ogTkUsgfxu6Z9JMEppNF5FPDV4itGN0Qc9Tj+MnDGY+Afjk7CCkHeVTCW8RfI6kjUWHKjtitlfDRgXcjpThN/WuWl8oTF/1vEFoJU1sUPwGQRC28YjuNiqTbnMDjV6zQeUt+QjkbyOQimfyoPPKtLieYnnReOZ61OOp2w3tS5JQxZv5LK7fiilfAH7pLFo/EfoqLdNplLd5r6lQhxembeZR9awJu2vSYDqynrTz72LyrRV8pbO6Huh5CJ+IfF8dBKIiAYh9o0CH9Lgt83a4CstbWE060WuCbdvI50fh+z56e7vheQGEEFXp4iA9zsomeNI+MmwiCU3LslAsFuF5Hrq7u+B5fmV2TzurzaTD1zyVrN/Xn5np4iCEQBAESKVsDA4OI5fLIZVy5MF+huwq/ruEzJ/zlXHkZ4TkiDAuf5NnBtcjBQTHsbBw4SAy2Qw6ctmwjhAjizhw3kRSz2rVEcI6lTBpExFSKRv5fAGe76Gnu1vWEY886pSRoKyFhjh9qUUjCq5TC8VSEW7ZRV9fD1y3wkslJn9At3KfZc4y4SBnuZLkL0dsejTWm8HBQUyYMCFCQwgB13WRy6Rw8KGHYb/99sO+e++JkdEiOjqyFSJtLDEQAfn8KHq6OnDSqadh8pqTcfJXT4Trq3ao1ac+c8Bg/a7oX/TlIFOnWF8GBgbQ39+v0iV/oUhvJ6QdyGoiWXuSZVq4cCF6e3th2xYCTmN+NUGjxb9le0KkjXFnmTR/hm1bKBSK8H0fPd2dcD3ugiVq2Qy9PUPlL9QyJ2rIP66u9DLZtkCp5KJYKqK3pzu0L82USQghnU0lR9k/mLEqOqXbSdOGEBGGhgbR398vB3xmlVOlz2Od0OsujKbri1S7psrEfcjg4CD6+/ukYxlxXir1FKEplC4xn1pZLUtEjq6JA+uYWae2LbBgwQA6OjqQyaQjdOL6nThYliXlYvGRY7JEclJOFZgFKlRB6gWwQqp/DHlGiZK6pohcISYNFpoQMpWlNiSY+UWCVRESO4m2LZe92BnhYFlqDb8RTSGMcqvf/E9TND2Nfl15XokXTpc3yl+VSaZhupwmLm28nAD5zHEsWJYt72n8xIVKXhrvWrkFp1U1y05rPF/RUKknGR+qriR/0bqSvEQdUfN5hJdG+Uf0JPrMsizYlh0+D/UkJm51sGSwYmRk5sNxjfvQ5GhZFhzHCZdLbdtuGGQ91wqSF8tSuqSulwa4ro9y2QuD50c7QBNCpWnmGBI9D9f1YzukJFg6JCYZMXXH7MxMG6XrB2roZkVPeFuH+bw66G0Wqt1YdkxbrtP2qoO0O5Frzf7o0PPWaRAkDUZkyakqv2jgth/mzc9i0sr2HI0nI8pr27bCs7WExpBJhx9V6sDI28xflSmpTLk+oGTJMmH+zPjQnAm+NuNIeqLCp/nPyL9KJ7T7tq3sbmSLSHV+ZtpKPXFQMjT44GXhSFz9uWVBQCh7Km20aWPjgqX4ZtpSvno+MXnGlMUMEjyYB7hElgBgCSEPHAw3S1eMe81gFJrTV+gozjk73u8QoWHJddhQYCpeo/yVICyl1FIRmE6U/5BeI5o6LUvtywifVWRTr0xS2JVnHJhnM79IUPKSaaRcQoMJuScrkpfmHFTua/KH/KuoVOfHdFSe0TLpgfMXYR2x/JPoCZdf6gPzXOEvGlfGsdipUPcqcVT+3PjD3yq9QU/XE1P+0fqR+mPGqReEkI1H56WiL9Vxq3SS9z9wuUMDbMq/VjDzkPXBOhgpn8qnUsmVn4sbmZSNbNoJQ8q24KlZCpMt9kEyKRsObySPiQfjnp5HJmXLz7kYA/44GjDoU514iwtSz6rrWj6rbq98r5K+Wlcq+sKdKKerjmcGpif/WjJP1aYjcfW21yDIAYykx/aumTIJUeEBod2rllutIFTbD22tJKhoxcWXPIf3QltQ2dPEBMy0URphkQCu6zBORfek1ZT1ZZa9VgjjhTZBBtnfVtMI86lZb0yP7W51kPXE8WVdRnmSdCp5VHSvOr/qwPVkCWnrhRKgTB8XqmmEvFoyf5ZwddrqIPM37of6WtGfSPyq/KsDQv1muWhB8RfCVJpaiMSrkSZUMCEvuDLi4vCIsOnBbkzeZh5JEfKrfvFfHdV3NJhlqxu5GlYdGZmkBCoKWg9J4iSBLos4HhsiNKLK2JjPFfhp+K9WxBga5nUS1KNfD0LZcF2+SWXE9/mxUMvSY4HMT5NvVd5VNxYrBADP8/Hq63Pw4suv4qVXXsOLL7+KwaERpB0LQVDZj+G6PnjbhQDwymtvYMHAEEplD54vP/rMpSmXPZRK5dCZCgJoebyKt9+di7QjzZzrBbAA+AEhP1qE6/oRHokALyD4ak9IZay8dKOVmg31Q9PTap2pAzOued0MKv5Q2K6ahpGombJwW43k3UxzjMmrKbur599EssQwZRO9bBq10lf4j48RV7a4ezWhyWisbbMOm80hpFGxvc1A6lwllZlelrMZZYxDnfRcAWbGDE4akNzcXI9WLJqNvyhh8NJqn2sqLY2JVn0npxW0xIpKxMvhSWkkjdcqWqXPxlzE7J0w5d2M4SVjw26tEAcp2xoPlwKMjhZwwgknYL/99sMRRxyBo485GtOnT8fPrr4WjiVZdyw5AyaEQKFQBAB8+ctfxmOPPYZs2oGl9ooIAKVSGdm0g1wmDV85buVyCYcccjD2/cK+OPTQL2LvvffGPl/YH3Pnvo+0Y6FY9gACujqySKds+Gq/CG9sTlm8deO/B2PitY4+1YWZxrxuBlraljW4pURRxLXRRLKJicODpSTgWOHfGvvEWoZBazxJ62il7poppy5Nod1oZBeTwrSxcaEKkXvN2w0zvnk9Vkd0/GBy9klAsvZZBU7Gmy3HgiCQyzvjiZaKpRI1m7bZ+M1iUdNfnJBlWTpLJJQ+z549Gz/4wQ/w97/fhn/e/k8cd9xx+O53v4sPPpoHxwLmLRjAw/9+DB98+AG6cvIFho8//hgAMPuFl/D88y8gZQsUSi5ymTTe/+hj3PfAQxgaGoItpNP2+utv4NuXfBsPPvgg/vSnP8HzPOy7774olFz1wk2Ah//9GF548WWkLIFy2YMjgMHBQTz9zHMol8uYN2+efNNqnNvOosDSWeNNQCvAkixLrN1tkaHxsN00TnTMMrRYpIYQrdBuOoGWhJ2mFmgsGrQwg2beMLD0OGhttNHGJx6pVAprrLEGJvT1orszh4022ghBEMC2bTzy6GP47Gc/i29/+9vYfbfd8cc/zwLUSyXnnHMOTjzxRBx++OH45XW/Ri6TwrW//BX2+8J+uPjii7HXXnvhxZdfRS6XQ09PD3IdOWTTDtZYbRVcd911eOedd/DY44/hww8/wh577IELL7wQRx55JC75zqXIph3ce/+D2GefvXHGGWdg//33w1lnnoVSyZVvCWudT0ud0NKKT0xBxgdjdIPaWFL4BFdc20Fro402FjlIzeY6joOvfOUrOOa443HEUUfj85//PHbffXcst0w/vnjYYdhxxx1x61//gkMPPRQnnXQSAGBwcAgbbrgh7rvnbsycOROXXHIJZr/4Es499zycddZZuPOf/8Dqq6+G0047Ddm0g2KxCNuyAQCjxTKy2SwmT56Mjz76CN/85jdBRPjnP27DD37wA/zoRz/C7BdewnnnnYdNp03DXXfcjgkTlsFtt92GXCYF27E/yfa/jTbaWIrRdtDaaKONxQLHceD7PjbZZBNsttnm2Hbb7bDmmmvi/ffn4s2330VHLoejjjoKAHDkkUeip6cHTz79DFZccUUceuihAID9998fK620In59/a8xdepU7PH5zwIAjjjiSAwMDGD+wkGkUg4cxwHUW77ZbBaFwihy2RzefvttHHfccQCArbf+NLbZZhv89ne/hWVbOOFLJwAATjzxy1hjjdXhkXpxR/HfRhtttLE40XbQ2mijjcUCIkIqlcKXTvgSTjj+WBx95OH4/ve/j5deehmjo6MIAsLQ0BAA4P3330epVMJKK62EUqmEgYEBAMDw8DCCgLDCCiugXC7DUwe5vvXWWyiXy1imvxcdHZ3o7+8DAGTTDm677Ta8+tpr2Gabz6BUKqFYlC8fFApFfPjRh1hj9TWQz+eRz+cBAPPmzYfn+bCEPCG8jTbaaGNJoO2gtdFGG4scAoDneXjnnXfw3rvvAWrZc7nll8PHH3+MdDqNNSeviZNPORmzX3gJxx13HFZZZRWsvOLyeOWVV3Duuefi/gcfxsknn4z+Cf342mmn4I033sAZZ56Bp/7zLC699FJ8fo/PAwBefvllXHrp9/DjK36C0884E0ceeSS++Y1voq+nG5tssgnOO+9cPPn0MzjzzDPx2quv4ZhjjsZyyy6LmQfPxO9uvgXnnnsuRkfzEGg7aG200caSQ9tBa6ONNhY5CEA2m8Upp5yC1VZbDVBO28SVJ+Kwww7DwoULcfNNN2G9Kevh7LPPxrTNpuGW398CADjv/POw//7744c//CHWWmst/OLaawEAN910Ez54/wOcf/55OOLII3DeueeiUHJx8iknI5fL4emnn4bn+bjllltw1hmnAwC+973v4YgjjsRFF12E0dE8Zv11FmwB3Hjjb3HA/gfgsccewx577IG1114HrvZJs08k2r5nG20s1RBERL72AXCgxnkfBoSQh0IyLMPVM2nE0SeSX5SXh0a66Ovthh/En0dTD0Qy/yCQf828k8ISQLHkym9xdubgKV6YH51vGGXi+5F7ojkjyGn5TbGFg8Po6OhAOmXHvu5v8qHnzVm7nq8+p5FMqHFlsgUwMDSCTCaDXCYVfiC2GTkT5Hc9AYKjPpdBBo04eqbeOJbc+O15Hnq6OsI64rhxNOqB9dgsdyMIdVhiseyhWCyir6erSl/QoExCO8ZBfjO1SSY0yHIQBgeHMKG/t0rtPC9A2rHktzj33w/77rX4v8XJeg31kWCWYT0ENUaRRddDNiX3mTHUaifsGDGWvSA8+d6kFwD48pe/go033hgnHH8sjjnuSxBC4Nqrf4bRUhnZTLpqH5op37GCanyLU9dvHbq+WPz5Pk3fTNtgQgh5YO/ggPyeYStthzS7WyufJCBVZwsHhtDb2xMpDxKWSeel2T5Ap2cByBdK8DwPvd2d8OI+ORnDh96mAcDz5fEY/EmjetDT6vXI/VGpVIrYl2YREIECyYutZGv2J7q84vJg/RgcHMKEvp6wDzBBxnlhJi1ppzS9UecfJoEuJwFggdKXuDhoYHvBMlBxkuqMWR5S/SP31ZmU3VT/yPKQfwm2Ybwaa89iwidipGoqY/SyPpqK3AQSKMliARtZ876GOBWoF388sKjpt1EBASiUXPiq84FyjgolF576koDrE3wCSq6PQDWLkuujWPZQcn2UvQABgGzKgRcAbkBwfUKx7IV1mS+WkC/IMFoso+z56nt70iiXXB9eQCh7gXTcAGy//fa46abfYcuttka5XMbZZ58NAHDsqBO4NKJlHVYJw47PONG+Vhh3tFwADYuCrzYWOf7Xq62R6sc6aGaDjA1moiZQRUcjVpVP0sBpx0hjTDCkncSDDqGNPJpJ1gj8weCmeGkAfQTZXIh+6smsq1iakZxbQxVNg37VvQRhLOBRJo1zvfw3IJNJQRgzJJlMKvx2nWPL7xqmUzaEaguplI102oHj2HAc+S1Agpx9dywB2xZIpZzwU2m5bAa5nAzZbBqOY4f1ZglJT45WLaQcC14AzDxwf9x/7z2448478Jvrf4U111gNPgEp9ZkoMsKShCyL/EKIULOQce1prHpaC5E8zOsWw5gxhkpZFG1QlktUzSgtrRjXutAQ2rpIoPAvf8EjCfT+Uf5MllCPFbG7yZK3DFPHY4OZyIAFRWhJQkB+XqUVNlpJUxdNEhTKMpoKHrlOGhQSK2wCDePvX4bX/LPJcgItplEI5VKHSFN62EzcOhgnMolg1qu8blyHyVG7NJEZ6vHMcpyh202TTS4Cx9GfN6U7kI4XL6XZllwCdX1CX3eXmmGLLh0uVqjOK0STZUsCUxcjTl6DMN5IXHdavNCuqt+6XQujmYzXCgqmTMaGCiNV/Gl56hjX7HWYdid62RRq8Y6YNpkEOrmGfWWrMJlqwilc1GhULAvjrpj1EZG5xh3V+f4dkVyaiPO2a6VpGZpxJJBsXOoRKxA3OOY/LAZfG/dNPasZVF6cXv/Mh5m3vFcZRYd5G4HT8wwF0wrziymPCWI6pvCbQCVlAxpGAczyQZML1xI0mZnlqVWm8QTzomswZ6vnHylLyFslQr0yNAow5KJXlS6nIPjv2PjeQEtCJI1nQtZX5bfjyH2ark9wHFvuSTHSLC5YlhXWUUABKCAEVAl+QPB9+UF5Xy0Js30MAvk8MILvB5Eg7weV2QyTCQWWU63n4wnmBaYZYD3X25D2jC84PjieSadW0GjDaEchbT1f/VrnrRJd2gK1Ly6SjuMYNHVE2q7RBzQbZDq1csHXMbR0gVQ9Yx3g2S+DR4Yug/BeDL1Kv1Xpvzgfg5Vo0IiLkJ/KPYhmeNDy1P7WC1WENVTpTEuoTm1BbTKtk3djjCkxIISA4zhhJZjkhJAb8WxNqOGz6OWYYdt2eMilbVXme7h+LCUvlplVJzR6Hhd0PXAceeCmzkMIQ0715GBZBv9GftCU3QxQcRzHga3245h1kASVJPUTM5+6HPg+v4jiOA4cW8rFtgRstcxjlqkWTNoNE9SBrru2JZfnwmdhnMo9vh8pm1nQFmHbkhcLUf20AaTUZmXblifst1ENIaQMzfpabFD5yiVZeZG2LTiWQMoMKRspWyBlS/3nwHEdWy79OiqkHLmcy8GxBRzHRiqVknY1ykkI1tVaz8cDpDbiO44DR9kqHZx/I7vLccL4TQS9jLrdNfsjUzfieAVkX6tv54jLL4waZ3NVvsxLqzD5rQXmMy66ENKGOBZgs93VltbNuJalBVVnvP3AgroP+YKAQP06jQucp23bkifOQ+eDZWgyaKLRcw31osp6ktsy6sWLRZigen1JjIwWyXXdcDSVBASCgIDv+wCUIoYeulyulHGkT6gvs+mjdyKCbdsYHR0FEaGnpwee50ZGUjp9TmPySUSwLAtBIN/UanWWQAhZJj/w0dnRCdct1xW30NZAhHrLRQhZfghZbh5JJYaQbzumUikMDg2iI9cB27bheV4kGsuhIhv5m/llPjzPhW07sG27Sm46nQq9KLsCAplMBkPDQ0in03BseRp8cvlKDSCSI3YoZWb+iHgreAMoeWYyGYwWRuF7Hrq7u+G6Ui66nON0JA4sP/7bLIQlUCqVEPgB+vr6UCqVKvWvwL+ZPzOfgAJYQsD35fcouW21AsuyMDIyjN7ePnieByKC4zhIp9Phm8kHH3oY9ttvP+y79+J/i7ON2iDtLc6TTz0dK6ywAs75+pkYHJaH50bjyhk0S41YLMsKZ2+JpJ410n+2dYVCAcssuww814XreZHGL20LwvYLo20RBRCWBQq4/bCuJ4eAQBAESKfTGBkZQXd3NwCEfUschFA9OmekfgshaVm25Kl5EGxbfirM9310dXWhXC6bkRCQtGOWqLgE3K75r+u5sISA46Rq9AFRuxu1ufL/VCoF15VvcXZ1daHsliN5JoOcQSXV19q23VRfD1Umx7EBITA0OIj+/gnwfR9BENSsJwLF8hrWEffTqg817WIjCCEwNDSE/v4++IGcZa62uxTqrklft8vmNqBmoOtuNpuF4zhVfXUtcN7cL/Kn8PQ+QARE1MrRFkIAPr/XLgCrSgCRS0nfGI2QekV1ZLSIcrmMvr6eqle2mQ4LtNIQWPwyjv6KtUkjKYQAisUyXM9FT1cnPJ9g2dHuMixXzKiTzGM2WgTLZf7CQXR2diKddqrkyfF0PvS8LfWGnKcdLxCHinzNJwyCbQksHBhCNptFRzYd++p5EvChn46SaVA332oEREhZAvlCEZ7no6e7E76qc7AuqFBtECtgOXF9BVxvddLEwVKvwReLBfT19kh9saIzMPXKJ4xXrC1+B74FcHscGBjAMsv0V+kGH7NxyBelg7bPEjhmo43aIM1BO/X0M7DKKqvg9FNPhhdAKWa0xYUOmmF7pb5xx6+niII7ysHBQUyYMCF6zIDWFrjNslOk25rQ3qq3cuvl1whCAAsWDKCvrw92jeVlph9nY0nxEPJiRkgAtrsjowV4no/enq7YY59MPvTnQgVX9Y3msQk6Gtley5L9UbFUxITenpaP2SCSTlq9YzbqgVQZKQAGBwfR399bk+eaUDoV0RvtSJRmyyUAzF84gL5eeURMeF/7Hcq3qvVo+qF+RPS/CRAARwDzBwblMRvpVFN0hDruhh01x7Ei6S2hmNOnIhsF1VbVCEvA0t8o4ucxwfQRWJhCCNmxoVqSQsipUFtN2Qt9Td+oEEbcvSQQkLMilpBvilmWqJpWDRGzHFgVlJK0EqBGxsyDLltdxmadML9gvpUwgqA6D84HLGc9KDkLNU0veVEj9hidqBWi/KqZ1gh/1WnigownUwoheZF8RcsM6K1PwsxDaLojuDxNlovpSIdM0xejHsK4VbLQeFCyaUYeZgh1V8mF6ZvQ67yNpR+WpXRDLRkJIf86ji2XKdUSfxgstexvW3Cc2kHaUzt+8KbpSGh3NX0KdddcojL1O0Hg+FZoY4z2E2N7TRsWBn5WL06DIMtXsS8ipm8UVuU+y8LkVbe7TdteVccWt2k1E9VsPx3yJ6RdsBRzel0lDiwLy2pop/R6DbEI7I483zOqS3o91OMxwqumx62EkBfRWDZ6CHVH35Nnpoeu1AmDCV3Z4p4zzGf6dUjDjKTuhUptPI+LPiboZVG/E+chotbENCytIE62EbnVuU7MdxxiEleWNir5NAqIJwUYzxsFE3G81INJT4/fTHnM9Gb9hPdj4vL9WqiVNknghEm2qeo8t7F0I7RBWqdO6mWAgOQsNJQOBGpmRL4sUNsxqNCRP+rpgx6/CkxHu6wVtRb0tNDL2yy98TC2GsLlshjbwD903ury2gJvxPQ1onyvmVBJG7UMZrx6QU8UWUasEfRnixLmLLHJg3kv7jkQr3OJg0lMoSpeTNDjmr85jjl2GneYhsEMMk6NUibBGJKOOwzJL02stdFGiBY6jDaWLnB3a/NWATNCEnyS9KAlASwmLM28LUokKHeCKP/TWOQOWl0Yo5ClDv/lBkwo53dMDvAnEMZE51JTz0sJG20sBWAHTF8m8v0A5bKLfD6PYkHuk4K2vObJDWvRWYXF0PTbeltLBotB+EkRz+CixeLIM0EeCaIstViyDppagwUq669LFYwp5aUSdRir82ixo8JL61y1njKKqvocT8IafZ1sXEdp3jKv2/gfhQBsSx6HIpSTZgsg7VjIZVLo6epET1cnbNvGR/MW4NZ/3I5XXnsdaceC7wfSqUtiTEnZ4CRxDZi6Pd66q7chsy0tbajFX1ybXxKg8L/WYNZvYlKJI44BRh6mvugrdTpq3V8iqMNHrINmLkPGBjNRDfAGvrjAG+x4Q2VSmosLVWvchgyWJGL5MhSU2PFtwQDXA9Mz5dE4VF4pD0NVnHpBFjqgZMeoVKePCUnjGaEWzGd6fD5oOQyRvKWuJQ1tfAKhVNq2bORy8u1aoRnp997/EA898m9c8p1L8YX9D8Rhh8k3cq+95lp89nOfwzPPPY+0Y6FYLIWOXcNm0oI+RXTRvG4hmG8UmuyY8Zck9OwjfOk2TT1PYqOawljtrmKspToL0yj7bT6PCc3ATFsr6Ijrhxj6tUkjNiSM1wzMtLHBTGQg1kFbXDCZY6OytKGVyllaYDqZSx6yglupZk7TStrFAXYgzQZdS3+W1nK0sYSgdMR1Xbz11tt48ulncMVVP8WJXz0Z2+84HYcccgi+d9llePfdd7HXXnvhtNNOww033IBZf/4jfnLlT3DAAQdgOF9AZy4DUmca1kWj5/VgpjWvxwizDS3ViCn7ItlaMs7kEkNb6VKXSwXixJHE7gLsbJg3lz4sUQctDrXk2UZrYCPR0FgvNignxrydAJymlbRLIz4p5WhjfNHZ2Ykf/ehH2H///THv43lYd9118cMf/hB//OMfMetPf8TPrroShx16MDaftglWXXUi8oUSdpuxM4499ljsv//+KJZd+dkqz080Sm8JJlHz+n8JdcqeaBYzKcaLTrMwdKhOcRcrdHHUdMRqgZaigtTBUuegLSkd/MSiLdA22vivwsjICM4880xstdVW2GabbXDSV76MzTbdGMv098L1CaPFMkZGCxgtllAue/LrGsUyvnbaKVh11VVxwglfhgWgVCzJM87+CzqiNtoYEz6h/dxS56C1Mc5oG+c2xoBAfTUiCOSp5qSu9RWCT6htXGIgCjBx4kT88Ic/wIUXXoiXX30dAFByfaRsgWw2jXQ6g1QqrT6bBmSzabg+4dqrf4b8aB6nnXEmero6UChIJ23cZnHaaKONxYa2g9ZGG/9rSOi0k/psTrHkwrGAjmwatgD8ACi5HkrlZN+ca6M5OE4K8+bNw4rLL4cvfel4HHPMMcgXS0ilbJRcTznE1ZXIm9Jv+t3vcN+99+G3N/0fOnMZ5POF8ITzNtpo478HbQetjTb+x5D07TJbAIVCCblMCu/O/QC3/OGPGM4X4FhANuUgm3ZQLJaRHy3AdSsfTW56P8j/OCqbmaXggiBAR0cOAPDFQw7G3nvvjRm7zMDwSB6plAPPDyD4O0taVVoWMFoswxbA9ddfh/PPPx+333EXujtzGC2Wob7JHGIpPNiojTba0NB20Npo438CsvMnIhSLRQBAsVREsVhGoVhCoVAJxWIZxWIZQyOj6Mxl8N77H2K33XbDOeecgx123AGHfPFwXP6Tq/DaG2+iI5tGV0cOmZQN1/VRLJbheT7KZa8dEgbX9eC6LlxXzkjKF3uk81Qsezj91JOxySab4Lhjj4MAkB8dRRAEoX/GB9gWCiUAwHC+gKkbrI8rrrgCZ511Jma/+BI6smmUy2UUCkUUiyV4njovrY02liTag7m6GB8HrdWG/kmvnHEq35jItFo3CpW84361gjEyFGJsXDDGh0qLiGS+eDhJpVJYaaWVAADL9vehI5tGZzaDzlwldGTT6Mim0dPVgcGRPPbaay+cfvrpeO2Vl3Hr327F4Ycfjtdfex2XX345Tjjxq/jtTf+H/zz7HFIpGx3ZNDIpG9m0nGFrh2Qhl0lhmf5eAMByyy0X1pdt2xgZLeKqKy9HOp3Gqaedjr7uLnieh0KhiNHRAoLARzadCuuuuzOHshdghx12wAYbbIgZu8zA32+/A47joKsji85cBrYtz0vzvMoy9eLRwBgsgowXAUmJRUY4AcYp75bItJRo/KGzsQTMZwMk+RJyFI3iCyIiX9v0y4dpNhpdCSE3DssshHxbSENA0dxrvW5sAcgXSvA8F73dXVBfK4mNa4L5JJLT+0Eg/8YtsSQpE++38TwP3Z05uD7B4tN0FQ0TOk0pCf1hRQZJ8oeWh2MBCweH0dHRgUzKDj+KzKharjDky1m7rg9hCdhmBSlwfpw2jk9bAANDI8hkMshlUvLbfwn1BCwCkks3AJByLKlrNWSKGL7kPYJjCeQLRQQBobszB1/tkwrjaGnjaJhgPa5X/jgIIXW3WPZQLBbR19NVpS+MSBkjX8+o5B0EMm0teZiIq28/AAYGBjBhQl+FjlKEsusil07h0MOOwDrrrIO9994b7733HjIZeWZWeGaTkG//ZTIZdHd34/DDD8fUqRvivPPOx0cff4RcNofu7m4MDw9j3rx5mDVrFu6++268++67mDZtGnbYYQfsuuuuWH755VEsFmFZVuUgaiIIIRAEAcrlMkrlEjw1a7SowHkKIeB5HggEx3bMaIsUBEK5VA55ASD/CsASFixLLleWS2WsssoqOO+887DzLjvj5K+cCFL1aqsVzc22+BSO/9LxOO7ooyJ5vPf+h3j7nbfx/OzZePrp/2DOnDkol8uYMmUK3n//fXz08UfoyHVgk002wR577IFttt4KADAyWkQmkwkdNcdxYNly8ZPbuA4hKnaO2wpxG4vR3STtiZSNWTgwhN7eHlgiengthf9VYNIkZb/NPiBJ/oyKfZGOa293J3wjvSkTIYw2rf56PiEIAjiO/CKECS4Tp6cgSgdaf1QqldDX0xX2Abq9agTJb4UXW9WXeTiwDlNmumwHBwcxob+3bnoGR9FZFVod6XVl5lkLHEcAWDgwiN5eOahhndQRp7uM8JH6UctvMGHySOp7uHF9dZJ6YnkIIWfCHSfaTwufiHxfGg79YD0i9bpWHAhhfH0/i/wZpVN5Vk2MiGDbAvn8KFzXQ29vj/pUiaJRnQRQFSErVEZgPqJ/ZVxSNSeYrxo0AWksi6UiPNdDd3cXPM+HZVlV5TTVgUAhfcuWzgc3DD1tvfz1Mkm5WFi4cACdnZ1Ip1NKplqeVTKWzysdgKTn+R4s1UEZJFQ8UbUXhYjkWEBlYdsWBgYGkc1mkctl1PKIKpNpOTWY9cQOmm3bgFD5qNcEmQdhKQui8wFZPCKC49jI5+UST09PFzw/CJ1PYrmEp/LLtMJSHU5Y/KicfD9QzFbkb8opApI0bUugWCyhUCiiv78XrutBCOmQhN9SVHnp9cWylfcDWLaNwA9CXUsCXf4suyAIpAGd0F/ViXC7+uGPfoi777objuMgoCBsIEynVCphwoQJePOtN/HU449h/wNnwnEczF8wH47twHVdlMol2JaFjo5OdHR0oLe3B889NxuPPvJQJdME2HSzLbDiiisCRjnGE7ZtwfN8eJ4Hx3HgOA5czw11TIIvxjd/IRDqQ2dnJxzHgW1bKJddBEEAz/PgeR58Xy5zct0XCgWcf/75mD59p3DZs1gsoqurC6+++ioOP/wwHHDAAejvn4Dnn38eb7zxBhYsmI/+/gno6Mhhs802x6abbopp06ahv7c75Oep/zyLW265Ba+88gqKxSK22morbLfddth2221gq6IP5wsIggDpdBq2Y0fsQ5w9Y91mned2JiNEbXQITcyh3bQsLBxYiN6eXliWJZdwlQ1jGnoLBtPU2q1tC/iB1CO2NTJtbSslUMmDlN3N50fh+z56e7tVu6l0mrXaJ5ffUrz6vjyDLhx06aql8quUS93mgZKyh5YlUCgWUSqW0N/fK+2UXv4apaqUSV4RBYoXK+SHKFDSlPSivFS++ML1I9TAamhoCP39/VK+UfZD6DJFnJ7U+Mtx4+iaNIUQWLhwoXTQREWmuk5U7GmlAvS+WvBgWomxljxh5C95kDSlzggsWDAgHbRMGgFFD46T5YvcUg+Y5wCWZcMPfNiWHZGH8AIiz/ejFSUgO846iAo2/rR6zgQs+CqQnMIfycN1XfT29YKCSqU1gmVZqpMxn0QhhOQlaFAmy7JQLBblDFp3F1zXk6NbBbM8Jp+ysuSIiRUjVKoEMgWXKQhCBy2s9Ni0muLxEAzyj2VJR9H1PFgizslUUTVDwXHYuDHYQctkMujoyEoHzZKG24wbB3a6QkWNKQrzoM8isWFhEAVwHCc0oD093aETzY2SapzgbZadG6eAgO/7Sg6AEFL+jSCENKDFYknOoPVJB03XF0bU8TI/HyY7Bd8PYNuycYYGiuOZ1aYZfo7PdWE6aHqxhZAzqplU7VG9ADD3w49w/HHH47zzzsMWm21qRosgULPgn/7Mtjj//PPx73//G0899RR+8IMfwHVdjI6O4p133kEq5SCdzuCdd97B+++/j59c9RPcf9/9WGetNU2SiwQ+qVmaoWH091SclsWBhYPDuP2ft6Mjl8Oyyy4H13Wx3HLLobOzExMmTEA6k0bKcUInieFV+hqAgFKpiM5cFvc98BC+9rWvYZttPoN1110XK688EVtssQWWW245GANweNIMAWpWHkoWDz/8CO644w7cddddmDhxIqZOnYrP7/F5bLbJxmHakuvDdV3Yth3aNWhtKa6dmZC6H23H1SBYlh12uGwDGY3sLsO2LWknBUCBtIcmrVqQeUhHMZ8fhed56OvriQxGo5CtxeTDsqQ9ZQdNhI6rYX9i7K5pu7g/KpWkg8a8CCES9nuVfqeW3WXbwfaPbYrOBzueQUChfYnvj6JoVk+SlAma7BYuXIDe3j51l61XBZZlhYNhGHyQGhREB8sJMjdAIDi2jQULFqq+OhPqW8RG14KqH9u2EQQ+hGVF/ARBFOnaE0MAcH1SlWfBjlniZOaEkEugZh6kjPtosSwdtO5ONMOLXiWhIauB6uqrhlBGyfM8dOYydZfPgErnp9PVl4h5OrkZcHwLwOBwHh0dHUiZllvF83wZm5fVzNW1gADP86WBrfYbAKNMkc688hMCwNDIKDLZDDLalH2zZYNW5/zbfFaPF05bKLnwfR9dHdnQQWBQDF1TekI5Fjy1rOwY0ISeMMpegGKxiJ6ujip9gVYmpqvrjFCdJanlX176TYI4PgnA4NAI+nq6jCcVFF0PIIIQsuOE6mRG8iNYbkI/Xnj5FRxy8CH44Q9/iB233xYjo8VwxlMXrGVZ8DwXnbksfv/HP+Mf//gH+vv78cEHH+C3N/wanpJtjOri5lv+gDvuuAO/+sU1WDg4hEwmC0DyFEIb0MR3kI1BasA0NDSE5Zbpx5FHH4uVV14Zl1x0IRYMDCHXkQsFGXagRjlDqPuJeREIZ0Vdt4wtt/wUbNvCJptsikcffRTrrrsO5s2bj1wuh3K5hAULFmLy5DWxwgorIggCTJ8+HYfMPBBQ7ATKwXR9irUHULrEs3O2bSOVckJ99AOC63oIggC5XCZsM/MWDOCll17CH/7wB8yZ8wZyuRy23XY77DJjF6wzueI8F10PAgJp5dzH6V8c9Hj10gjIbRS9PV1VVVCvDTG4TyO1TMnp6+VpgjT74vkeujtysem9oNKvmfYDio6n9uqkTI9ZgcsErTww8hKqPyqVSujp6gjvx6lnI4Syi0mflJcAwODgMPp7u6tojBVxcjZhPmd9iQOXKSx3jM74Wj06VrVckoB1ZmBoBB0dHUg7VlO6J8I+gOAHAdLGkvgic9BYQIESQA2bAsEOmueit6uzJSFBUyArRgGTQpgOmtH5QzMEZqNkcLmF2qPUCi9c6YPDeXR0diBl9voqjq8Ghjxpo8fiinc9Lxyd1+JFv1+dk7w3NDKKbDaDtGNHFK8WzThwXNOh0lGPF5ZLUgeNjY4pPtYVrie+1ww4fhIHTYdZR8yH7wdI1zDmiKFjgmmxAa2FsudXRr9qDxQApB0Lz85+ASeeeCIuueQSbLfN1hgayaOjszM2c8/zkE07ePzJp3DkkUehUChgrbXWwj//cRugOv6uri5k03K/V9H1kE05eOa557HPPvvgb7f+DRtMWRclV85e8iwjd3qA3JfH96A7UQ3AMxa+L2eAujqyOPX0M/C73/0On/nMZ3DFFZdjxRVXqprZqOd7scxszZDpgzUTOi0LwKy/3YabbroJN//uRnw8f6HcxzcyjPxIHsViEaOjctbmrbfewiuvvIJbbrkF//jHP7Dyisuj5PqwbAu2WqoHgGKpjGwmDQHADaRTAqUngu2UslF8bfJU9nyMjOQxoa8HUPvRZs2ahSeffBL/+c9/MGHCBOy2226YPn06Jq2+apiWAJTKHlJpB5bmPJoI26FxX2h86vdqOWjgds1qa9heoXQfatDVamcLRaueg0aqvGw7TPvBvJc9H5aw4MQJRgPzGRdL1HDQECOfetDz4HzM9Pp1LV4CAINqBtpMnxRMp9W+UeetnoOGBGUa62QKVB61HLQkEA0cNPuCCy64gBtzswh4NUagamRZMV7yfpzxI9WhlV0Pvu8jm0mHhqUZcBIWdjMC0iEAeH6AIAiQTjkNN/lRzLOIUrTIC8ulWCoj5aRgayNCaHlUdRAGPwQ5M2PxmUktQqgOwbZtOIYnbrJQD9wg2ImhJtNzWtfzEQQBMulUVcdDCeXCEDz134J8WF88zwt1N05f9I7FBD+TU+7VLkhY18Y9U3ak5FsulZHLZmAWKQDgevI4ho5sGo5twVGdvm0J/PL6X+OoI4/Cb37zG3z6U1sgAGDbKbjlMqCWigBJlIjgeR7SKQff/s538fdb/4rpO++Cv/7lT4B6cYKI5J4vpS+eH8CxLRx19DE47vjjsNsuO6NY9mDbap8TL/kIWcdcL+GzKsnUBu8D4hm+n/zs57j9H7fjhRdm46677sbyy6+AtSdPguertqEQVz8Mrif9JRDuoOOCDtcLsMF66+LKq67CpEmTscF668L1fPR2d6KvtwfLLjMBK624AiauvBI2WH89bLftNnjm2ecwf/58bLnF5hgtFJFOpUO6Qs2IObbsDLi8NdlnmapyVPizMDqah7AslF0fnR1ZbDR1Q+w6YxfsMmNXdHd3484778Qf//hH/OueezE4NIyVJ66Czo4cHNuSTp7ryRdcatgFUv+RCgDrUIVh4oFXsYRMNiP5VFFrQissaeUaSx8QsS++tC8mHf06Us+G8HmpNe6loaQQpn3Rnpl81QPLnnUAzaZXvBABxWIptC+tguuolb6eIQAUikVkshnzUYhQ3xCfj1mXrZSJ5VoolpBKyT2mzdKRYz+pvOYWmdpD9gSQxtOqazzjDFaIWvebgECT2jaOiGNfNCrzOIBJN8pHqBmSenGagkGnabE3nWB8UCtbYYzElxSEqLzIEAfSjCwR35BB7/h4/6ZPcoaj5HrwgsqINe1Y6OrIYnA4jyeffgZXX/tLfPkrJ+Gze+yJn/zkJ1httdVw00034WdXX4u3334HKVugI5sJ96y5rgu3LN8q68xlMPeDD/HTn1yB/Q+aid//301wfULZC5BNO5F9Fz5BzbY9Dd/3cfSRR6BYlpv2oQ3uWJ9FtaqpeMkCASiXy+jIZnDVz36O73z7O7juuutgAZg0aQ3MmjULUPKSqKUhUfAmYiuOvzool8sAgKOOPArXXXcdCEAmk4JPagZVBZ+AkYI8o27mzJn4v//7PxTLHnK5XDhLHul0mgDnodsCoRyaVCqNrOYYlb0AK6ywPA7Yb1/85vpf4frrr8cuu+yC+++/HzNnzsQxxx2PP/55Fj74aB4yKQeZlK2cNR+FYhmeT5WORXfMND3W0YwsYZShcrNiexcHGuXTqF9sBUytWRUgAKQ2/beC8S1FFGOjPfbUbDPGB63XuOSjOrU8ZqPGyL8ehLbEBjVC02E2QsQoNalXVPOFElzXRV9PV9VrzUnAXmyg/sZknQiWGv17noeujiw89RqwDr1ccXwKrQHpv5sBqSWDetOmstFF70WMr4rjefKFgzhek8JSy62ZbAbZlBPyYvLUCLxXl1fyqEkaLJfRYhm+7zc8ZkNHrfKLmOWfJBAqlFwfxWIRvd2dsfoCjR8zDz1vXpoxwTKKK5MOIulA8V4yHQGAp576D/7zn//g4UcexoL5C0AgLL/c8thhxx2w+mqrY5utt8Lrc97C3Xffjdtuuw0jIyMAgJ133hmbbbYZdtpppwh/xbKHGTNmYPnll8fvb7kZZV6qtC3YQu6Fy2azyKQdCABzP/gIX/rS8fje9y7DlHXWQqHkIpWSbyfXctD0LRSm7OqhVCqjI5vGT372c/z8Zz/H9ddfj8mTJ6O/txsvvvwqzr/gfPz6179GLp2Cq/Zx6kurceDlVseRM0fN6G6g9OL99z/E7rvvjlmzZmHS6qtW6S7UvlLP85DLpHDAzINx2BcPw+c/uxug5SkAlMpu1QyP0HhKYqcCAhYsWIC+/n71pnflfhAQSqUSLMtCRzYdpnt9zlv417/+hQceeADz5s3DOuusg+233x677b4bcukUoHhw1Yb2uKNjmB+dL0u9TNHb2y2XTSuPQtRqRwzmvdU+QLcvnuehp6sDgaIbxqnRFsMyqWveH6wviTcL7o9KpRJ6uyvbf2KyrwtSW41sS4SOc5x864FlOzg4hAl9PU2nZ+h11GpdCRVYX2qhURuAFqcVPqDpTNwxG0kg1MBMKBtj6osgIuINvc1ACMBXSghj6h+mEquGb4IAOELufXBdF/293dBINgWucMHT5y3AanAOGlS5asmKWBFU/q3yQtT4HDSKG4lqfHHe8iWByllUrYCdxUw2g1xanoPGMHmoB47LZzoFLaR3LOnQ+76Pnq6OKqeokVzkDfVXc46q4tQBx2UD2ugctFrQ8w4CuQTI6sN/uShhudTm8yCQwbZt2I4NR8u27AWYPXs2Hn/8cTz77LN4/Y3X4Xs+pkyZgvXWWw/bbbcd1l9/SmT63DMcxI/nL8Q999yDhx9+GM899xwmTJiAVVddFdtssw0+/elP4/jjj8PAwCDuv/dfKJY9CCGQStmho7lwcBjZbDZsS6d97UyUSiVcdeXlYX4mhDGa9QMK6wii8ehUqE9TdeYyuPGmm/HNb3wT9957D9ZYbVXMWzCAZSfIN74OnHkI9t9/P+y37z4YGS0il8vWbddQxhOqw9WaeCIItRSYSTk4/Mijseaaa+L8c7+BQslFJiOdGh3Dw3n0dnfi1zfciBtuuBF33XF7RM9FDQcNNdpTXLmE6ijnL1iAfuWgoY7N4vt6//HGm2/j9n/ejtv/cTv8wMdaa62FPffYE9tuu224n7LsySU6qDPWbNsK6ev1LVD7HDRGvToi7gPqnIXZCLp98Wqcg8bxTPphOdRffknANjdnNwHuj8xz0FCjnutBd9BI1X1S6LJt5hy0OLAeWUI5Jk00Jr0epL5UzkGrB1LxzXv6j7HqzIKBIdlXp52mZCOEtHNCvYVvGxsoRUBEfpMdFJhwAgeNSLqHch9JFESys84rB62vtxut8BIqEHvkTQhIR1IHDZA1brJZZUCaUD4dXOnsoKVTcmO+GccsZ0SBlRxcV+7zMcvRDEIHTR1Uyw2L0Fz5mF/ToUqKgAgpdVCt7wcNHTReZuO9TXESEIvYQQuLRzE6I+QBlZIHNdOpPzcMadl1QQEhl5WbwxkE4JlnZ+OZZ57BPffeg8JoQb2a34/p06dj8uTJ2HzzzSNv//kkZ5oAIJ2WMyRBEKBUKkJYFrpy2TAuADz59DO46667MHv2c3j11dfwxBNP4PU3Xsfqq0zEyGgRjuOAQAj8ALZjY3BgEKlUChP6evDs7Bcw8+CZuPuuu7Hi8suG+Zt1z3Llv/rpCI3qRwigWJQzZ/fe/yBOOeUU/OaG32CjDdbHwNAILMtCZ2cHbAFcfe0v8e677+KiC8/HqDqUtxGYV307p6rSmjCfWwD+/fgTOPOMM/H3v/8dXR1ZuH501Mz663kuAIHdP7s7zjv3POy4/bYolj2k1YwkO2icj56e7zHVONmJOAdN6adZL1A0BO9jdMtwbPkFBMazs1/A7bffjieeeAIDAwPYbLNp2GPPPbH1p7YM47hqdtBxZLqULffWMq/1HDTi/8w2pEAk7cCidtB0+6LD1F3Pk9+m1Y8naRamg6bzEsdDLYS6qznEzaYXlrRVg4OD6O/vbSp9BJqDFqiZo8TQ6l7qS/KDas02YPI/Fp2xLam7uY6cHDQ1QUcoP0oIgSCQJy5Eni/qGbRIJ2mAwoNqC9JB6+sJmY2JXhcym8pySStoykFTiDReQ0lEi84ihV75IDo6O5FJxXvlJm2dF87bdNDMNI0hR14Dg8PSQcumW3aiw55Epa1HIhJfIaAAKdtCfrQgHbTuTrnfRasjoorOMerqhKjs3WoGQi3rF0uudNB6u+F68lgFE+FZPAJVbw3yFwTkOWgybRAQfF++CGGpk/j1s8sWDg7jtddew2OPPYbZs2fjjTfeQDqdxrrrrouJEydil112xqRJa6IzV3E8XJ8QkNwUry8pmghFp2bqhJA65DhOOCty+JFHY+rUqfjaaaeg7PlwHLkHqRaOP+FE7LzLzth/331CJwOGAwaNH/4bkNSBOD51SB7l+W5vvfMePvWpT+GWW27BdttsjdGidEL5oNe0Y+H5F1/GSSedhF/+8pdYY7VV4CawOSwX0WQnp8flpdeDDj4UG228Ec4560zkC3IGj0GQHSHv87vxppvx+1t+j1l//iPKnjxpXBgOmm4bdJ5MeeoQ7KDNX4D+CdEZNDAdTlfDMeDfQVB5A9kn4Mknn8K9996Lhx56CGW3jC023wK77rorNt1003C5lGfWLMuSM2sWsGCh7HDZ0dKhn2cV11b5JRteJkpSNybY7o6MyrMw+3rkl2307CRd7XxLBVPWnifPQTM73GZgWXLQUSqV0N/bXcVLUsTpRD2YsiOSh7qSOgetf0Kf/PLBEgK3wQULBtDX3weh2o3ZX8Qh1GNVLk4TtxSfBEQExxaxDloielr/E+ugLeoZtHrQHTTP89TJzY2NZRw4P8FzuC2gWQfN5FE22ui9VkCaV97Z2Yl0yl5iDhpBvsK/cHAI2Uy2ZQcNZt7c0dXgJ45PPitsZLSAYFwcNAK0k7KbgajpoAlZOA06P3o++qitXHZlMpIbyHWHhwA8/cyzePrpp/Hww3IPmRACXV1dmDFjBtZbbz1stmnlgFGoDjAIAhDJk9Adx0lUZ1IiSn8g3wrl4xzeee99XHDBBbj++uuxySYbY7XVVkepVAQgsPLKKyln00K5XEZXVxfWWWcd3HPPPbBtG3/6wy0YLZaR1fYzmZ2w0Jwf1NCBOHiedM4+nr8Qhx56CM4440zsvNMOKJRc5DIp5AsllMtl9PV2o1AqoyOTxpFHH4sDDzwQu83YGSVXGsZ68mFerMqZyJH7tcA0uS1m0w7uf/BhnHXWWbjtttvQ29uDQqGotiHIWpdnzMkzy7LZDHbaaTq+8Y1vYNddpof5FssustoMGvOh88N5x5VLKAdtwYKF6Ovrg2Ult7kU/le5dsuuHEioGT7G/Q8+jDvuuAOPPfYoUuk0dth+B0yfPh3TNtkojFNWy4HDw0Po7e0LbZeOWm2IsSgctN6eripbJ+n+lzlo4X8SjWiYsmP7SKQctP4+eXyWYecSQW88rUDNogkBLFQOvd7GGkGPK3WKAIjIF2yawZgdNDXxYAkLfuDDiXPQ4jr/RhBqaYhhThyYTMYpBTeI4dEC3LKL/r6eqgbRCNyYwynTmMadFJaQhs/35BlbcctntcD56vmPlZfhkVF0dnbEykMqWEVhYciY24GnZnXiaCQBsbOoOWgs52bBsuAVHW4eOmrJS5ZXNoZGDlpySAGOp4PGX1jQwZ2LzELuNZDOk3RoUuotOMZwvoBXXnkFTzzxBJ6b/RzeeP0NOI6NDTbYEGussQa232F7rLbqapHN2wGActlDoVBAf293+OYmiyP8m0A+pM7k4UOJy56PK6/8Cf70pz9hp512wpFHHokgCOC6LhYsWID33ntP2QMpx7fffltuPu/rQxD4OOzww7HyCsuj7EkHO9x7qPHC4heaPvNLSMJw3Ey4an/Xc8+/gKOPPhoPPfQwUrYIZcAOWn9vN0bVMuill/0Ar7/xOq752U9RKLnyG5TGYEwHy0130PhvUljqpZJMysZRxxyHFVdcEd+++FtmtCrc8Nvf4R+3347f3fAbFFVZS2UPmXTlhR1GXP3GyU7oDlq/dNDMQUFMMsDQJb1f4/Sk6k5oBxUXyx4effRR/OUvf8YLL7yIzq5ObP3prbHnnnuGX5PIF0rIZjPqk2nyaJek7XJcHDRtT3QtBw1xMtYGmxzX9ytn+CUtgwnTQTOXW5Mi1F2tbZkTYFVl0sD9TDiDltBBq8UracvRteI0ghDA0NAIurq7wM3WLIN+HZeP/nwsS5y8HSmXy7W2By1c4pQz5BG++aDaZiFaeIvTBBduZLSAsuGgxQk0DkIZGlttOmzREQaUgYm8xano6vRqVbpqnxGjrf9uFhak49rVkQNq0DFlrPNjqUZovsVppmkEUg7agDrxfSwOGi9Z8WZ0dRkLCv9T1/8lDho7w8w/QX5vlEguWwKETCYTdlxeAJTKJTw/+3m8/vrrePDBBzF37lwIIdDf348dd9wR66+/PjbZZKOqZcSyF8D35Usgtm0jCAj5/Aj61EGSuv6Ff2Pkw7xaltqYD4SHI//mxt/hmmuuwbpT1sXXz/o61p48KZo4AXiindsm8cqCxguLX7cjSR20gGTnkbIFps/YFWd87QzsNmPn8MUHfQbNJ9kJv/3uXHzjG9/Aj370Q/T390f2RsWBnU9zz3eMOGtCqD1cvu9jzptz8NndP4upU6dihRVWgG3bWGONNZDL5TBx4kQUCgWssMIK6OvrQ2dnJ4455hjcfPPNWGO1VTBaLMOyrHCpWEdc/cbJTmgOWn9/fzgQjYlaBV2X6tlbUi8peergb0ax7OH222/HXXfdhTffnIOe3l7svtvu2GijjbDx1A3CeFxOvV5qtVXdQXPU3rZmQepUgaQOWnjf2BsF9Rbn0uSgsR3n5PX6fFOHiGTBxsVBE3IJP3TQ9FFkExBCvkzT1dUZsSs6qurJ+M39EcbJQTNf6EtCT0ReFKvW3TEds6F7ilUOGv+twyQXbmS0KEe4LThoUHQs7SWBIKGhMcEOmu/76Mxl4Cl6TMssk8kjtSDHOHB5RvIFdHXK06zjYPKhZy0Uv64XwLKtmqOMRuCGre9Ba9lBU5qbxEFDDK+swI32oCUHYbwdNH5LLQhkRyyEkAcYauQHhkbw1ltv4f7778cLL7yAOXPmoFQqYbPNNsMaa6yBHXbYHuutt14kTQCgVHKRzcg390xdE6pT0B00HabuMthAuK6LVMoJT6T/y19vxRVXXIHe3l6cc8454Tc5+e3Lyv441V6VQ2VZlWNZstksMuoFl0CKOmSEwv8kuCx6e+PvSCaxB54n90FdetkP8Nxzz+HG31wPXw2w4mbQ8oUStt9+e/zwhz/Adtt8JnybsxbMYzYYcTps1g1DqPZYKIyit7sLH348H48//jiGh4cxd+5cAMDo6Cg+/PBDzJkzB54nD/z1PA/vvPMOuro6ceddd2HZ/j4Mjxbk+WhGPmb9IsZOQbPfcqazv6klTmjp2e42SsuPA+UEMRYODePhhx7GX//6V7z44otYc801sem0TTHzoJlYftkJYbyi64GCAKlUZdZYx7g4aEpfmnbQYmzw0uSg8QDGtpMds2HqEOtzMA4OmqQzvg4aT6KYM1f16gnj7KANDI3IGbQxOmhVx2yMZQ9asiVOAhDf+El1/iNjWOI0PfJWBQ3VORS1zwjxmj/zUymT/GvyKUtagWhxiZPUMuDwyCi6ujqqOrMwniFbnZ/xnkFbODCEbNbYg6Z1po1A6iweEOBoRxU0w04Q8Fu/BXnMRnfXGB001p+xO2i9vd0ol+VxAvrbbVBOzXPPPYcnnngCjz72KBbMX4BMJoNUKoVdd90VU6duiHXXnRJ5EYDUyeqB+p6kY8sluFr1KNRUeT6fR19PV6iLHC38GyMf3rwOAPc9+BAu//GPQUQ45phj8bnddwW0gUtHLgOfv2FniYhDxRCQbTqTySJly4NzTb5NnebnrTpovvpG5TPPPY8TTzwRD9x/b+g4FJSD1t3dDceS9TF9+nRMmTIFV111FUh9HLrekQi1HDRoehwnW51voRy0YrGIzq6OiKNSDwsHh0EU4IorrsRf/vIXfOtb38Ken/8soGZRU/r3/xrwEN5TM5sLFyxAb19feNacGVcnx/okVNAHxEn6WU7PAwIiiizTv/L6G3jk4Udw3333Yd68eejv78cXvvAFbLPtNpjQKz9HBaWLQojI/q7xcNCgytG0g7bIZ9CK6O/tiexBS0qSIPtHqd+VYzaakQ+XV3fQuO+phzgeheGgtdpfi3Fw0Eh7I7dVPmicHTRTd8dlD5resLkRhoZY1aPgBwZ4xNLwmA2+F0ODjFesucDNQgg5S8EOGr8kwLSoztIMP28lXxNcnpGRUXR2dQCVlwArccL/tDwNQ0GQny2xbTvxDFrcc1bATCaDbCYVqaOY6FUQim6gFIbfRCOtUSURGzcG8xw0sw6Sgr/FyIbUPGtbHyHKOPIu7yGDOl0/CAL0dneGcfPFEt6c8ybuu+8+PPfcc3j//fcxMjKCadOmYZ111sFWW22FyZMnI6edgTVaLIfOr16PSSGUgzYyMhL7MWNT3j5/0kx9T/HpZ57DFVdcgQ8+/ABfPPSLOOigA2ABcNUHv6HppSy61Miw3Wv6ZQu5jy6TySDtWPDI0F3FA8tbKDpEckRtKX7dQCq+7OQ0AjUQqGXOz++5N/bff38c/sVDwm/rjo6OYtll+hEQsNdee2OFFVbAL6+9GoFyGBoZaJ4x4NlfBnEIyyT/0/kVqj65TMVCAd2d8hBUHUyDnUHZqdqRPJ957nl85Stfwcorr4wbbvgN0o6N0WIZ6XQatjpCiWcGhPaJpzgEUG/C9fVFZjJkzdaH0DtaXuqsIz8gXq85jedVDnwG5BL0v/71L9x11114+523MW3Tadhuu+2w0047oU99f9FXH4cHCI6TglD7eHSHtRmw7uYLJXi+h94uefi0qXvMs1nH0OQ2Xg5aSTtmw+QlURnV1hAegFiGM5OUM26fAwPyHLTw/cA6TMQVO6I3MbJNCjEODtp4zqANjYwil8uFe1/5WT2Qkn8QyMFu4Ms9aDpaXuKEUclVU+0cDOOsg9TsTN4YsZioUsqw4LKI+uiJ/7bSKISQswm+76OrMxfZUwTFr/66t0xTyYcbZDITVxtcnpGRPDq75Meqox92lm8RMcI8tbPmuEG5ngdHvcUZpzB8T46I4pGyBQaHpYOWSUsHLTkqdVRx0OQbc6SMh0RjeRHkOWijRemgdXdWHLSoXiQDyzQI5KnnEQdNcwxYpwqFIoQQ6OqILoV9OG8+3n33XTz37HN4+umnMWfOHGSzWUyYMCE8h2zTTTaKlNAnoFAoqj02cv8Y7ylqLIl4BASMjhbQrZbFdTp8HUAeScEvJrz59ru4/PLL8ci/H8ERhx+Bo485Wp01V0IQBMhkMuFbhdzZ6G88sdxY83ikPjySRzaTRTplw/Mrzq2uZ6SMg0ypuBWArYyJ58kXKcJ8w7wqkOWSd1zPRS6dwoUXXYKBgYX40Q++j5HRYuhQ9/V0Yb8DDkJfXx9+cc3P4as3K9NpJ7Zt6Ihz0IiDNhLntmnaH0s5nl4AjBZG0aMcNLOuTTaCQJbQsoB8XtatGxAuOP8CPPnkkzjppJPw2d1mAAC8QB6Jw6f4CyVLMw9GAGDBwgH098kDfBHag4r2RGyvYk5vN5b2kXtzgJMYJD91NjQ4hHQ6DSJCV2cu5Pvtd+fi1ttuxd13341yqYzVV18du+++O2bMmBGe7RdAzjZZloVs2ql0kuF/jUEJBoAcD4Zs+Dff8nxp71hvm4VQ+x1L2pcEPFaYhOWBqiveA2vbNmzlUDfSdxPswAwODqG/ryfs++vSMRxyUn7C+DloI+jqqrwk0IyDRpAzi6EFSTIFHAPWGd1B86vkK/MwEel/Qgct5hy0OENRD5xd6KBpI0R+zn+JI9covByxFOGpjwczLyYtE2bFcxb631bAG69zaq9PHB3myXxWK36zYDp5dSp6HEiLVy9P3oeTBHGyJjXtr+8pagXMLzXBj4lA8aJ/6onvjQW63RNKZr7nh0ZNP+AVkI3xvbnv4b5778Ozzz2Ll196GX7gY+utt8Yaa6yBHXfYEZPWnBQ53d8LgCDwAcjPIUENivj8M3bKWxQNoPguFovoymXDF2YYBGkQeaNwvljCVT+5Crfeeis+85nP4JxzzkF3Zw5F1wPUtzN11NL5WuAjNcZSN0l1nMEvBbz2xps49NBDMWvWLKyw3DKYv1AervmlL30ZlmXh5z/9SdjxsoyS0G+mLdWCrznRcXY3zoboNpEHR44lj7D46le/ir332RsXnnduGFfva0xaOgjy7LH+/t7YejLtgUmLeY3juRlw+pHRYmTww/Wv8/bs7Bdw+z9vx0MPPoRisYhNNtkEBx54IDbccMPwLDaoZVC5NaD5NqXbl7GUzezLWoH+KblWEYzR7rIeEOTLYhN6eyK60SLZMYP3ky4NGM7LPaHmDHsScJuN68vE4HCe/MCPLOckgVDTyfICsNQZPgweKdebmeEOMD+ah+/56O3rha9OYK4CsxdDTnZuVmRE1wosy0KxWJQzaF1dkVkDxJTJHBnxSDIEW68mwXIZHh5GV1dX1aydHg8aH3refLCg53mwHRu2FX19l0FE4SirFlKpFAYGB+QxG7kcPPXpFjSoXx2kptkJhJSTAtTer6TpoWikUinkR/MIfB/d3T1hHTUFgXBpE0BII1BHR2SzWfT09IT7lQYHB8ODYV999VXMnj0bPT096O7uxqbTNsUWm2+BqVM3RF+P/C7caLEM13VRKpfguS4sy4aTcqraCITS3fAMHOUU1dH1WhBCwPelMe/p6YHruuGsaRD4CALCshP6MH/hIH7/+9/jT3/6E9Zee20cf/zxWH/99TE8MoxisYh0Ki2XQixb02dKaIbl7JFt2xgZkd/iTKdT4bEJ1dALWMmHl1R5kzy3wXq8kJqhTaVSyGQy2HXXXXHyKSdjxi4zkMukcMppX8Njjz2KBx98AAsXDlb0UKMn6izTsf46jhOOdll/+Fk9WJYVzkSOjo6iu7sbrdhdqGX1kfwIJq22Kt55by7OOeccfPTRx/jud7+LTTeeioWDwwAItqZPZj6sLwMDcokzLEPEfFVmxfi33m74/Cauo3AGrb4oaiKfz6Onpwe+7yueZX14ngfP9+DYDnK5HLo7cxgeLeCxRx/DnXfeiWeffRZEhG222QbTpk3DDjvsEH7xZGBgEL7vI52WS6D1q0nKLOyPenvh+V6V7Lj8ut2VtCu6KvfYSRctXvfrQwjAsmyUSiUUS0X09/XD85Xdjaw8NEagjvSxbVu+7U1BXXsfB7Ylcg9av+z7uTnWQKTcKq5Qdnas/bUQIuwfbVvaqtAfUaiup8pv0pZ+odpnK3wQEZyUg8GBQTmDlkohCOQZeInoCYACeVZlEMivsOgyFa5P5Ku3zZoBC5rBRpUhmYsuxZm1ScqY5/MjcF0Pff19CGLWzyRrzJ9BU3X0Y61wjIeDFlmGrG/w64FAsC3NQatBxORD54eX5TzPkye9N3LQKN4JBBB+uieTySCby8L3m+9YdCeQD03lvTbJQPJTT46DfD4v3+Ls6YbLDlpSMpAOCxFhJJ9Hd1cXUql0ZJZs4eAw3nrrLdxz7z149plnMTg4iA8+eB9bb/0ZrL766thpp52w+uqrh6P90VIZ6VQaricP6xTKyeAljlrgNmTbNnzfl41T13Q2ItIiVxdRuyEiDlo3SqUSUqk0RkdHw9H3Db+9CTfccANWWGEFfO1rXwuPNOCT9FnfSRlzCvfdxaHSHvV7Mq2FkZE8MtkM0ikHnie/SFDfolccAH7pQx72WctBi+bL8H0f2bSD737v+3j22Wfxuxt/g6t+djX++Mc/4O677gw/Ys3tQ8qWU5v2qgK2dVJ3ZTmT626lE3fdylu/cunXsCEh3dq8sN4EFMC2bGRSNq75xa/wq1/9Cvvsuw/O+trpgNLjzs7OqjwqNPzwoNq4OFA2jOXN/HBc0gbGtdI3g5GREfT29sDzYvojrcoDCiBQ+bpGsezimWeexd//8XfccccdWGbCMpg2bRr2338/TN1gfZlGLe3LdpFCKpWq0m1Sy1WDw3m55SaxgyZ/U7gtQtazEEJ+Ai22IqU86+mRbdsoFotyD1pfX2uDUSUv+RandNAoxpmpB26DRIFc4pzQL/tpsxkaiOOVdXes/bVowUGD5qBJkzo+Dloq5WBgYFB+ljGdUtsSKvnXA8uD/zqOHWn3Le9BE4iu+cbtQYNSeoaZB/FrzQX1sfSe5l8lZj4s9bq3tj2maVhqStn13HCZSIjKkoFZpjg+dZ1toL91Yalp0061FyOOjjQIlWudHU7jqW/9mVOnjLBMRl0xiL/FqT5+rX+Ls1lw++FpYF2mjUCQewYcdSxLEPjo7uqseqkkbH+G3pHabxQEQdW0uOsT/vOf/+CZZ57Bs88+g9deex1dXZ1Ybrnl8Omtt8YWm2+BNSevGZ4NBsUP7w8pu2UsM6EfUHJn2deqN4bQprXrLZ/Vk5OexA8IpVIZnbkM3EDu1wOA2++4C1dffTVyuRyOPPII7DJ9JwBAoeQinU6F+fJSCFSd18qzHkiVZ7RYRiabhl2H9zjo5WF+RMzm8lrg/J9+5jmcc845OOmkk3DkUUfigfsfwNqTJ4VfF+C4SXkL1Jtw+pJZ0rTQyuX6hGKxiO5Oeb6hCaZJhg6bIPXCRqFQkm2hswODw3kcfPBMLLPMsrjsssuwwnLLwFVL6Kb8WPfmKweN9/0lQZyOJ09dDU7PS5w63Vog5XD5vo9MJh3qcLHs4YEHHsA999yDV199BeWyi9122w3bb7891p+yTpiev16QMjdlI7rlJs7WmfbflAfUcrvQDuqNA+tfrXq2+C3xUrGlvpFB6g16/lg6VN0nBbfBgIDBAbkknmT/WNxzMU79tUDllINaZTLrCYae6rJvlQ/2YQaH8+jo6KjaDtOIplB8s1xMfVkMx2zIv3H0KcGnNZKAjRVvPqyl8I1gCdnplstl9HR1wFctjtlpVCZW5BAiQQ3FgNTLE8Mjo+jo6Ag3dpow+TAVkZQRc5zKW5wmWEnrySw8By2bQUcmLeXSDBQzcmRBcNRxBpx3Ekge4w+q1Udq/LNclm/jWpZAJpuJHGnw8YKFeH/uXDz44EN4+eWX8cEHH6BQKGDDDTfEaquthu233x6TJ0+O7Gnx1bcUU6lUOMNji8oekZ7uTgRm/TeAUI2S21KtUx6k1Kp1ycyrWCxj4cKFmLjSCgCA5154EZf/+HLMnz8fhxxyCPbbd29AdYSZTCZy3AnU/iaeUTJf9zZh6p5+31ZvZqfTaaTVlwOaAYtB9aEQojqfWiClZ7YtMGPX3TDnjTn4/e9/jw022ACplF1loDlNI7Du2rY8ZiOskyYg1FcZisUiersq+20ZIT/qv1p8SX2JHitRVl8oCADceOPvcOWVV+JrX/saDtz/C+qIFA8dOen8QOXrE7BQm0FLKmOOR02cg1YPTGdoOI8eNdsbV/RaOgdVHi8geK4XOuCjxTIefOhB3P6Pf+CNN+agp6cHm266Kfbee29MWn3VMO1IoQjf88M9tsOjBbnEWaM/iuODfwsVXJUwZdVuR6RoxdYzH+NjnIPWCgKSqxe2bYUDr7j+pBZI1S+FS5zSQWsEU258j/vpIBjbOWhDQyPo6ekKbZgpx3r1BJaBitOS36Bk4gh1zEZHDhlHnvuIJorFjqofyM8q6ljkDlqImFEwaa81u64rXyWm6niNQOPpoLkeSkX51oypg0w3ruL5fuQea06ToPDNkDw6OjrhWP/f3nXHSVFk/29198SdTYCYwAAGBMyC4UyIGfMZMJ1nPvWAH4gB9c6I4cScMF4w33kqZjxERBQFRIJEM5kFNk7sVL8/qqqnpqdnd2Z32Z3F+X4+PaG7uupVvVevXr1Kmd4NORxk5SALIk/avQ+aG9StIDz4pHIBDAQCzIPG4y8Uts3c7b7NYKAxd7UNy7KhaVpGT4YC+G7REsycORNz587F0qVL0atXL1RUVODQww7FwAED0L//gIwJnqYNJFNJ2Bab1ySGtsDLmXDPasqwkEgmUFke8WyovPLn8EsoCQLYFsubGx6vZ0DEr+vsuCJNJfjl15WYMGECfvjhB5xy6im48ooroSl8LzPbQjAQcGgQWabCQKM2kz/XkSMtQcRHpW02VFVFOFiYQU8k+RO8desW5ChXAcu24VcVnHbGmfj973+PC88/F2vXb8C2W2/VrBeiuThlA03UrebCe4Hwg+fZpO+IJy35xpmxYp0vLjEMNlcrEgriy69m4bbbbkPfvn1xzz33oKoiknEWKnEMNHYkF1GyvWwtgUp6152PQkB5h7SuvhGVlRVQSaY3pKUyIWIqCQEsfgi7ZVuIhNMrQeNJHZMnT8ZHH32E5cuXY5tttsGxxx7Lpiv03t6JywbbvoFS6rm1BSR6MvStVKchyW6uThfykCHhQRPbbIgyae4dL7RkoOWKz50/6rGKs1CQdjTQGhqbnHm/XmXZHJ/An4swYosaGe744HofPF2VTycIh0Pw+9LHr3m9nwU+RYsNcbKOZcbjjjLQcsWv8NWKhmmgiiutQiErirYaaLphIpFIZlQIARGvF+PF/Yx7pHXCR6W5EMJt2mEGmke+sgw0dz7zBBsmsgvyoFHKMqPwfb40laChMQpdTyEUDgMAgnxDVIGNtfVYsnQJ5n4zFz/88ANqa2uxYUMNBg0a7OzU37v3DhkrFQ3Lhm4Y8Gk+KK4hIaGcxG8BYaAlkwlUtMVA40aFKJd8YdkUeortgeVTCTbW1uOxxx7D3Llzcdhhh+Gyyy5Dtyq2wSWkOirLqUwuM9DYvCyNn4iQC+7yEN+0nQw0Is2Nc+sW5ChXAULYuaSnnnoqHnjgAQzs3w8bNtVhq+7Vzcpuc3GK+ZLyHn7NhfcCIcyjLVbl5dIv+SDDQJMyREGhEAKVMI/SzTffjBkzvsBtt92GY4YOgWFR6IaOcDAAi58kUF1V7Rh5eYO0z5E9EDKTh4HmljkZlOtvuQ2gYI0fWyTA9vsDgFVr1uGTTz7BJ598grVr12LHHXfE0KFDceCBB6LPTjsA/LQPn98HarOj2YTXXOaRTIe7Pm0OA010jJt7xwstGmjORybc+aPcQKuqqiiYBgHSngZaQxOqKpmB5mUwesmL/Ju2h4HG9d1mO+qpMw00kbli8qDphoVEIlEy0CR0toFGCFMyuq6DgE2Gl5c0xxIpzJ8/HwsXLsTChQvx/fffo2fPnqiorMDgQYOx5157ot/uuyMcTG9ZwoYsUyCEnWOpqopnD6Y5tKeBVmjahmFBURT4VIKUYWH8+PH48ssvMWDAAFx77bXYodd2sMFOXQhLRwK5yZFTdAw0boh40S6QS/ZEne4sA83mm9XOnbcAI0b8GV98Pt2Z9N2db7Dp5pFArjixmQw0tye6kPhyGWgCyWR6iHn6jC9x2+23YZ+998GDE/7GnutsdXd9XT0qKyuzOiX5gHawB80tczKoh4EGKW6LAkm+76A8B3VdzUZ8/PHHmDlzJhYtWoTDDj8Me++1Nw466EDs0It51kybLT4R2+MAyBoSlus0JANN82j4BVqSoQ4z0HLE584fLUIDrbqy3LNtRA55kX/TIjTQ3G1A5xpo3D0oG2iFKHMB2s4GWlIMWbmei3i9GC/uZ9wjrRM++hsw0AR9wqiRabAsPkxhsVMQ5EnAALBhUx1+/vlnzJ07F4sXL8bq1avR2NiIAw7YH7vssisOPfRQ7NxnZ/il7qujZBUFqko4LZk9lkLZ1b4GGuNTS0il2Oow4f17570PcM8996B379647fbb0H/33WDzcH4/m4vjpskN8biYDDTwRg4A2x8uj3IF2MrPgE/F6//5L6ZM+R+efXoi33YCLZ5nmCtOdEEDTcCyTAR8GpK6iT/96U9Yu3Yt7rzzTgw+YD8kdRObajdh655b5yyT5kA3k4GmuCZsi3Jxy5wMmRa3gSbaJtFeEb7/oG3bGV70FavW4IsvvsDLL78MRVGw44474sQTT8Sxxx7j6B+LAolEAoQoCPCpAkJmKecn4Z0LEGTNKRLIR35KBlpuEMmDlqssveRF/k1LBloaXvHTIjTQUoYJPZVeJOBmqPztzhN1K39RawsElXYnFosEvITQTUeGIPKkO8JAa+l9Ads1B83m88ooGLGEL0/3+XwZ88GSuokffvgBM2bMwIIFC7B48WJ0794dPXv2xMEHH4z99tsP/fr1c80ho8zQs0woRIHP58sYbrA85sMJuPPjBSLNQducBprN9DwIAVI62ykf3DB76qmn0KNHD1x55ZU49JCDQAHUbNiIbt26O0MykNKTaXHTCT5kCjHXrx0MNE3THHnJFzJdcoPqpjcXbbrOVmneftd4KETBX24eh8ZoDKZloVtlRYuymwtd0kDjqwhj8STKwkEQAG+8+TbGjx+PK664HFddeQUamqLQNLZ3HHLIRS7Q9jLQuO5taGhCRWW5swjDec7/uGVOhkxLvm2AbVN2VBvfz032rC1asgwff/wx5nwzB6tXrcbvDv0dhp04DAceONgx1pI6WxUuLxwi3FgTnQt3gyuQD30lAy03CAEaG5tQyeegbSlDnG55KRloEhS+itMwDJSXhZwJooJ2Ea8X48X9jHukdcJHeY+yKRpHWVnYqRxuuOnIEESe9OY20NzvCrjjgGSgKUSBYejQdR0+nz/LQ1bfFMUP3/+Azz//HN999x1SqRTWrFmDAw88ELvuuisGDBiAPn36YKvubGsL8B6rruvOcCVA2H5JhEDlwinTzK70xHzaTF68QDrIQNMleQSAadNn4KGHH0I8Fsef/vQnnHH6qSB8ErSmaewszqqKjNVnueQHyJRRmxPTHgZaYzQOf8CPoE/znGjdHERY22b0EQ958qKN8vNe/ZqCk045DZdccgnOOO0UNEbjsCwry4PmFUcudEkDjYNw5W+abIXjqjXrMPa6sYjH4njggQewa9+dnZNC3EfNNAfaTgaaQGNjEyr5nCLqwSe3zMmQacm3DaBcByjOhs42QIAoP0JIrED+etZszPh8BqZP/wyBQBB77bUXhgw5Eof97hAnrpRhQdfZUVOhUAAWP4szo05LdQ0ufnvlqWSg5QZph1WcjP/sd3EbaLyXXghExAIlA43dz7jnqpD5gnYxA839vuCBGKogXCHohgHLtJzevEAiZWDx4sWY++1cfL/8e8ybNw89evRAt27dsN9++2Hw4MHot0c/5+gksZeUz++DaZhs9aKmOTIoaBIbnzr5EUMRLRho7vy4IeJTnW022s9AE3yDxDuVAPMWfIfHHnsU69atx9lnn42LLjwf4GVn2zbKQgHYYDunV1VVOp43kZ6bT246sRkMtEAggIBPLdhAExBGCDzo9aLNtCwENBXrajbiiiuuwMMPP4w+O+3QrIHmjsedjkBXNdBk/lAKxGJxVETY4ponJz6D559/DjfccCPOPvMMmPyIs3yNNNrOBlpTE2tw3bLlrpdeacm05NsG0CwjkG1z0BRLIJVKIRwOgxCSsW/e7DnfYNKkd7BsGTvebfCgwRg2bBj2Gsg2xAXXT6bJjpoSvBFGYK42wStPJQMtN8hvykBrRQUTEQtsSQaaLu2D5mao/O3OE3U30DkqY0ugkoEWLgtDJfm5cDMEkSe92Q00QQdliSpcLnSdHXfk9/sRCPicFVTgZ1muXbsW06dPx8KFC/Hril+RiCewxx57YI899sBhhx2Kfv36ZXjVbD4x3udTkUikoKpq1nmRXhBZk7Mo8uw20Jxvj7J2g7SzB82ybPg0BRRs89FgMOCU+wMPPID33n8PF15wIa6++mrnMGjTZN4iARtAHT9bMW8DTZLRdjXQYnH4fX4E/a33oFl8ojXJY4iTSEPA0z6fgccfexwvv/wyVFVFPF4y0OT/pmlD13VEwkF88+183HLLLaisrMQzzzyDikgY8STb7080Frnoou1ooBE+xOl40KSyEem7ZU6GTEtr2wAq7ctp2zbKI2HYlM1rFLvei9MLLAp8Nn06Jn80Gd999x0CgQCOOOJwDBt2Enbps5MTp+hAqaoKn09jdYwg63QCrzyVDLTcICUDrXmIiAW2FANNN0wk+T5onWmgyfugdeYcNIr0RnzBYBBBv5ZVLgAre8qP2/C7NgTVTQvLl3+Pzz77DN//8D2WLlmK7t27o6qqCoMGDcIee+yBvffe27XtBRuytKkNTWUeMnEiQiyRAqUUkXD6tIdCIPLsZaCJ5y2BZBhofKNaXu4yvOJy+CUpSqG4QQGfStAYjePpp5/GtGnTcOihh+KCCy5A7+23ZUMpho5gIAhVFcfLpONqaCjMgyaeob0NtGgcmk8reGNjmZfsiCh29JObx27aROcq6Nfw2BNPYf78+XjumYlIpAwYBtu0uL0MNIUbw+53WwIpAgON8rKiFGhobERZuAwBn4o7x9+DyZMn4+abb8YJxx0D8Hqrqrm9abSdDDRBU0NDEyoqyh3Pu/Oc/3HLnAyZlta2AdRloFVEwhmbJds210m2jUAg4HSOYokU/jflf5j19SwsWrQIFRUVOOSQQzBs2DDs0Gs7J/4UX3ntxS+PWyUDrRkQ1z5o+Tgw3L/l+l8y0DziF5mLJVLsJIHysnbZZkNunAoBM9DacZuNVoK24ypOw2BK1s0fAVlIBTKEmBtoDU1R+P3Mg2bwvYXE8KK8xxAAxJIpzJ83H/PmzcNXX3+FRCIBPaVjt912xa677oZjjjkG2223ndMbBTfIDINtttqcQekYaKAZx3EVgpYqZr4QBlprN6oFf55IJkEpRXk4BBvAxKefwdRPpmKHHXbAmDFj0Gu7bQCe71Ao4BkneFyNjYUbaAKFLBLIgjR8LAw0VVNRxvfbyhvyNhsFGmgWPwrsmhGjsM8+++DySy9GPKnDsi1YpuVs46PwuNxlAo86LUApOztR7LfnVR9bAmlho9pC4hMGGm0hjlz5AWGbI9fW1WKrHt2hAJjx5Ve4/fbbsf/++2PcuHGoLC/jOigExUOB0PYy0PiIQZu22WiHNoDmMNC80gOY3tBTbPNfUTrxpI5PP/0UU6ZMwQ8//ICysjIcccQROP74453TC2wA8XgClFIEAkGnbN3pZBlonNduHrcE0bkQBppbdnPFJ9Mj0m2LgUZ5njIMtBxl2xJIG1dxOu/wMF7tgFecbnpphoHW2o1qWby5DbRWCDOLMP3fXX/dxLkzJiAaXGGgFaTMkc5gW3tPaA8DjZHjoDWVCTx+TQEaojGEQ20z0NrLg9YUSzgrvURFF0gZFubOnYuvv/4ay5Ytw8KFC7HDDjugW7duOPDAA7HPPvugf/89Mt6BdB4eACiK4sk7UYZOHsFWpVEwg8b0MIpaAhE9Lt4wuPnsQNCSI34FTF5SqSQq+NE9brjzA54n0XG0eQW3KPDmm2/i2Wefww479MaIESOdw8yTuglFVaAQAuJ2L3AQwuJq5Ao0o4ESwuAF6VkhHjQBd9kLhdUYjUNVVZSFCjPQiLTNRt4GGn9HqKCzzz0Pl1x8CY4/9mjopo1UKgXL4gYa1xEijlx1yJ130cj55CFOj3DNQeiX9tyolnLDpLl33WUnYNtAXV0dKisrmbHgU2FS4Prrr8ec2XPwyCOPYN+994TNy9bNR5G2LeabNkNDc6CbwUBrDS00TwNNpoPJEBs5EPsSCqxZV4NPP/0UU6dOxaJFi9C3b1+cfvrpGDp0KKr5UC64/vT71CwvkNtAE2VSaN4Yfc140JyPTMj5Fnlti4EGoafaob0m0j5o7vwIeMmL/Jvxjv1utYHGRwGLyoNGmU7MIIAome2YF3HuNKjkQXM2qi2QFnhUztZa5oQPQQgDzWsIQhZmdxq0FcaCFyhlk1VlD1qWcnQ+pDSlxo3wx6bJFIfbgBYQ8YhvIShiWEhRFKeRFbJjUeDbb+dh8eLFmPrpVDQ2NCCV0jFw4ED0798fgw8cjN123TXDIKNgykZRFfi19BConC3bfYNDyBu40orFE6AUiJSFYLUwxCO/64aQG8FXUWZw8z1HHITvWK/rqbwMNMKVnJjTIiYfT502HePHj4fm03D9dddj6JAjAHlIRDLKCP/pRQ8VQ5zVlU6vDM3QLyBIpC4DrSUvhFexizrd0BRjBlo46Kk8mwPhcswMNGa8i/sCbv1CuNH748+/4vLLL8drr72GHj26gQCIxhKwLHa2ommzQ6PF++JbxO2UmSwTvBEW5SLI4A7HZstIhrsD2C4eNB6vgFccXnyCZKB161btdBIUXvb/fWsSnnzySRx55JH4y83jAD53tKyMLTAgvENAJA9Aa0ELNNAg6TkBUZfb0gYIOqLxBKhtozxSBtNmJzPIsDkh8n0idSQpBRKJ9NYmAFBb34gPPngfH300GTU1Ndi5z8447tjjcMwxxzgrtCnvfCqKAr/fD1VpuweN8nrdkgeNb3bk6MCMxVVS/pwpFK0s37byCDwewrfZaLUHzdWWe7WPXnG66aVc39U2NCIcCiPgz9+DxsqZyZOS66gn06bUslhPlfAzDfMBIcRZJecNnrx47BEt5atmorEEDMNAdVWFs39MS3AElUuU2HyU8E0IRaNdSJ4UhUDXDSQSCWergkyIBNP/MwU9c1m1mB+Sb/oirGgIGrhV7vOpvAefHR48Xfk/JIEzTZsf4+LiU8aKRnb+IgWFbdnw+31ZxtWML2Zi5syZ+PHHH7Fs2TKEQiFsv/32OOigg3DwwQejT58+jsEh3gGARFLn+WHzyygofOI3b/hkMDlkZecFRSGIxeKglCJSXgaLe1lywav8nfBi7paLT2nZYcEYT5zXHRCFQE/pzECrKM/wKMuw+QNCCJu/wod2v579DZ566iksW7YMl19xOS656A8An1hMCODz+XKWkfseCFPEjY2NqKqqgm0zvnvVu9xg8k0phaIo2WlAlFnu8qZ8Xl9dfSM0TUUkUgbLVadZuTI+C7kjPF3Bf4UwA42FF41FZroyfZRS+DUFb016Fy+99BL++5/XHc9EY1OMedCqKpwOS7pBSvNazq44NN75zx9qfN4R44tc95AzTwJCvySTCVRVMl3nll3PMndB8N+Zg5bBZ8ZDFi4zTzIIYceL1dXWoXv37k5HxebTF4J+DQ1NMVxwwfkACO69914M2GN36KYFQtI6Tp4H56a9ufRlUK436/ipBkKXNwd3WkC6DYB4TiRFlAuOPDMvk6YpiEbjzINWEXHmQWaCSY9TD6Q6IYJaFluIoWkqW3AhRbFi9Rq8/977+Pjjj1FXV4vdd++HU045BUOGDHH2YjP5nF5d16EbOqoqyp2tc1jWOQWOjsosE5kflFJnLq8wjLzKT9QJIUJyPRfxMQOtyvN9GV7yIPhMuaHG6iJLo4XoAFechJB0Z5SmO5fu8GmI5zw9l+3iJatu+rPlgIXRVILaugbmQQv4MmTXHYcXRLnIXnEBx0CT4VW4bghixbdTIcRzURCiQLkScYQArMxUlSAajbMhzsoKx7hqKX240tY0xSkY27azKmc+cSqKAt3QkUwkUFVV6TQshOs/d54EKKWcwdSZVEuR7rmwOFpOH1I4VVVQW1vHmR5wGnk5nLsSymmJYU3DsLIMNNu2HQ+ZqqrQfBqCvvQE/VgyhdmzZmPOnDn4+uuvYZomamtrcfDBB2OPPfbAvvvui759+6IslD46KZZIZexDJpQ4KxtGa3MQZadpapayoZJsqYqCaJQdZlxeHoFpWi3GzZ6njSxFITJTs/jkVk5yGQuIPKVSKcQTcTZMlMObZ9s2GhsbEYlEEA76sXDREjz22GNYtmwpzjzzLFx66SUIBwNIGRYsy3KMWU9wuZZlH5LceCnQfGUPUtiW3nHy6cou5Y1cfX0j86CVlWXIrpcsCNllz1gYYaDJ8iNYxl7K5Idu6IiEgrj/gYewfv16TPjbvUgZbMuIpmgUtmWhsrISppl5ZI+MNF1MVjJkAiyvwmsinsv0yZCfif+KokDXdSSTSVRVVfBVqiwu+b2c4LwXxrOiEFg221fQbXBm0Z6peUHAOgv19cwoEuUrjC22zUQIKgFefPkVTJjwAK655hpccdkliCdTSCSSKC8vh6oqzepsQlhH3qu802B1v7auDpUVlU5jla6imXly3nLJuGygyZ0i93vZYKmAT9+IRmPcQCvPW7+IdERa7LcNIJ1/22anFwiPGQAsXrockydPxowZM1Bbuwn9+w/AKaecgoMOOgiV5WUAgE11DfD7/SCEwO/3Z84H5DLhllnnMe8UUq5fRRmJTrkczi2vMgQfG+obUF1dndUeZYDTxKLK1CeCdmGgZabr3RF2Q9DY0NCA6uoqULGHnQuiI+bIj1RH5LwKZNYQXgYueuR3RN1VVYLa2nreVvtdzoXm8yTyLxtoQvYBgFBKqXsoLx8Qvhs7OKGymx1cZgRhcjm40yF8YqVhGJ7zMvIBdYbmvMeS84XC50UlEglUlpdlxSPnSYbIn/OI/yjYgcFBMyYeZo5ry2Hk8hVlICDSFnPQBH/EnCcZDU0x/PLLL5g2bRp+/PFHzJ8/39mpf/CBg7HP3vugd+/eGRvDgg9JikomVli2BdRjLoFbNyrtsIpTQJQZ9ZBL8VyGOx1FLBJIxFHBVxOJICJO+Uy+9Rs24Z577sH8+fMxdOhQjBgxwlHCTbE4QqGwp6vdDSLLmnTPBtDIJ86ypqEwyIsExJYfuZArbsrLpTEag6pqzvC4u+wyG4fMPImgYg6aqsrmchoyfTpfwXneBX/A0KFDcenFFzk8iMaTbIiTz3EVdUPoXwL2IdLwKl85rDsvAs3lCZJ+SSaTqIiEs9Nw/W8OlsWUOZHmM0L+5j8cRc/vCwh5kbe2sF1DTqwjZyIc9OPnX1di3E3jQCnFhPsnoPf22yJpmFAUBbZls8U9bdS9dZwWOT8Cgl8yZFrb0gYIPgm9G0ukHEPKU3ZzlKd4Bg9aRSKUsiPnLNuCpmoZ2+Qs+G4xpkyZgs8//xxNTU0YMmQIBg0ahEMOOQSRcBDg00tk2ZL1vrsNELApYBgGVEXNWa+FV4043urMuER68sT81oBwu0F4bFvbRhIADY1RVFVEAC7LMqirffSqB7YwaAmB5kGH+z88+E657NY3RhEOh+GXytfrfTdEeTDZTe8q4DynlNnK7oTzARuBYEx1N/qUXzZnQnPtTtK1W3qhEMyx+SqutsC02VlrXrQ4eeIFKuZruJ+LitJaUgQ/GppiCJeF4XNbv1LZQqpIIhSrkGw/N4CiIsKMAAHdtLFgwQJ8++23+OqrmWhoaEQsFkOfPn2w//77Y//993cmqAs0RGPQVA2BQMAxIgqRG1Eu4O5tUeEzwuTIjzuNRMoApRThoL8gGgQcPknvyrwSzwRy0QFp09zyspATn80NBlVT4VMIYokUHn/8cbzxxhs45JCDce3Ysdhhe7b8PqEbCPiZW1x1zeOUIegRz73yTcFW21aVRzyftwQxrAKkVyu2FvJZnDItIh/u8nWnRsU2D4raYp0W8yPrG6M444wzMHHiROy2Sx/neTypw7KsDB5BlgNOTK4sU0eZp2UXrcgTWtAv+cLmQ2iKwjpe7nTsPPIETm89n2jdHFIGO98UAG69/U5MmzYNY8aMwaknD3MMzjK+X2Nb0NAUczosbog8UT5PzJ1Ue7QBQjbkzZ+96pHgs/u+DCFbcIVzy4xpsSFlTdMcum0A3347H++//z5mz54NTdMwYMAADB8+HAP79xNRwaRAIp6Az+eD36/llDkKtgUNIQR+zkd3OJMbK4rwYnuEgcQjr3LJF/JCnVayCuBzIiv4pstuUCETkkHrptei6flfbZXdxmgMobB3W50Logwt/se200cPChBKmSO2UJACPGjgHh3iUmLg8cSTOkzT9NwctiUQrjyZBVp470mGIjxoyQQqI7k9aCJfubwdznMPqzwfUKnBcVvl8ChbgBcEn0OiuTwO0XgSi5csxueff44F8xfg119/RWVlJXpu3RNHHnEk9tprL/TdpS/CgfRZdOACrOts64tolB1/Ihpu6sHL5iCXm1CwckPiBS85UDaHB80jDpku9zMBJi8WUindafxtABbfQJYCePGlV/D0M09j++22x5133ondd+0L8EZA0zTWueErSXOIkye/3TSJutWWHq7jQQOFT/XuaQvkKBJQx4OWXsXppV9yla8cb3MeNJk2w2AHgs+aMxe33XYb3nzzTWczX0V40GwLlZG0B03E4XRyPHSUnIYYQRF1Xg4nkCtPAkK/eHnQ3HG1hFweNEh5gkeeBAiX1U2b6tC9e3Xzssc3TxZTGmZ+PRujR4/GfvvthycffxTgHRV37z9fCJlpzoMmDGTk0LuiDrdHG9CiB03IDL9PPOTB4nOGhUfKHQdc8VAKmKYJSpGxH6RpA+9/8D4+n/45vp33LSzTwrBhw3DiiSei/x67O/UikTIQCPiy6gk4XbpuQFGUjFMiRFjqyDcF+Lw2N70if2LlpFedzgekgzxokOqsyI+7bNrDgybuebXVXu+7QYRXFDk8aK1ZxQmeaXnY111pWmpQwMMIl3LxbFTbhm02PCpza0D5cm95iJNKDLcpYOgGTNOAqmoIBf0ZgqObNmbOnIlFixdh9qzZ+OWXn+Hz+fn8sX0wePCB6N9vN+kNFrdYNafxI4fABV80uKFQCD6VrRyT32sJlA8PsYmcFBrvJVAPORHIVZYKP/yZUspXcXqHywcijVxptQRFOhosGAwilUo5QxHvfvAhnnryKYRCIYwYMQJHHn4owHkjJppDyC5hCl1193KkMnKXUxa9hK2mc/ZBa0W5iLkTNI9tNnLFLep0fVMUqqoiEi6MR7IizXebjVQqhXAwgFde+zfeeecdvPbKS9BNdjID4d489zYbueqy+Hbn3XadJIAW5NcLjn5JJlDVTvugwcULrzjcZQepYajdVIvu3bt5ehBYbU1D4aMdQb+GpG7ihhtuwLx583DXXXfhsN8djKRuAkDGSrZ8ofCVjvms4vTKD22HNoC2YpsNAUd++H+Tn8XJDDTvYUPw8vXIDihlXlLbthHg3rFYIoWZM2fivffew5IlSxAMBvG73/0Op59+Onbtu7PzbsowYZoW/H4/NK6vkykdGp/j6wb10C/wyB/dDNtsuMsjX5A27oMGV769jHqvON300ozpSFvwPmitNtB4BttaOdEeBpqrsgmhLhTUZaAJt7ToRRKSOXTR0BTFDz/8iJkzZ2LBggX45Zdf4Pf70atXLxx66KHYY489sNdee2UMW5kUsC0bpsn22NJUNofEDZvv89IUSyAYCjouXEcIM0J7g0oGmvDOEB53rvIR+XSjPQ00SHLcmjiYgWYgHk+gW1UFAOCLr77Ggw88iFgshksvuxRnnXE6wL3EqqpA0zQnb0I+mIHGlIQb1KVIBNz0Er7tgec+aHmiPQ00ts2GgrJWGGjg9Sh/A01HOOjH6GvHolv37vjLTeMQS6QQDgVyG2hghZtRlyXjUDwXkA004eERvMkXQr+050kC4PGKV73icJcdeLqOgdajG7Kb7UwDjUj51XUDhBAE/Rr++9Yk3HbbbRg+fDhuHncDwDshueY65UKbDTReDm1pA2hrDTRJbrgYwcjTQGsOCoCkYSIei6OsrAyapjp6P57UMXXqVEyaNAnLly/HVlttheOOPw6nnnIqevbo5sQh2tNUSudnFmcrGS/9AhetQle1t4HWWl6RdtgHjfsLgLYYaO28D5owqJ3n7eJB8xridBHnFb/IXJsMNJ5WWxmO9jDQ3EYFSQtAIWCraik2bNiIioqKrPkqFgW++uprfPvtt5g9ezZqNtRAVVT07dsX+++/Pzs+afddM96x+bwoRVGcFZ7NQTy2eYPbZg+acCfz5fCiaHLxKqssOdrTQBNyk4uG5mCabKKv3+eHpgDf//gTbr/9DixfvhxXX301zj33XAR8KnST9YLZcGZmHCTDQMv2oFFRvqL8pNJ2780Enh+2zUZbDDQ2NNN2Ay0KhXvQvJRnLoh4SQEGmmWxIeXTf38WLr30Upx04vFIpAwE+ZCPp4GWoy6Lb1HuAsxAs6FpajsYaOzkiU430GygtrYWPXp08xziFHkUv0U0hOsTMZS/as063Hzzzfj111/xwgvPo89OO/IOiQo/9/63hDYbaO3QBtB2MtBQgAetOSjc0IvH484COovPWZOHQX/6ZQW+/vprfDrtU/zy8y/o2bMnTjjhBBx77LHOwq6EbsDg01XYSlCWD6GDvMpLplWEa28DrU1HPRWdB63tBpq3B81DCPOBXADu993EuZ+D80UYaO111JNXOvmiow00ytMUwcSYuHvSYjSexOLFi/HlzC/x7bffYkPNBlBKsf322+OII47APvvsg4ED9sgot3hS58vxbQAEPp8vy8vZHERcNjcgGptiCIVC8GuKp/JsCdT5SHtbm3s3qyw52ttAUxXv3pcXBE2WZcHPhwpWrFqDO+64HQsWLMQFF1yAq6++GprCZFrzaVAVFRTpybcC4iflitjyWF0ryKIeZeWVZ5rjLM58QV1GtDtNGV7pQ5RpGww00dgR3sgBaNZAEzxMJHWccMIJeP7557FLn52coWSlQAMtF4QHTeVxIgdfmkMxGmh1dWyI0yNI8/njfEommWfGryn4x79exNNPP4PzzjsPI665CuCGnJBv0sx0gvY00Frb6NMCDTR40CL+WxbbxqIlA625PAkDLRaPsSFxSV4si51eACDDs7ZmXQ2mTv0Ekyd/jHXr1qFv37446qijcPjhh2Obnj3Yu9ww0ZT0b2FMysjQV+1koMHNK4985wNCgPp6RgtyyKlX2YrfbpnyahvlMM3xTzbQ5A6JF01esMU2JFKdBngdcxto1PkoDF4ZaE6QwZNxPGimgapypkA7C4qSeZKAmxQ3U915khkJSajdsGwbhs72IQMBwqFwxsqjWCKF2bNnY+63c/Ht3LlYt249VFVFv379sM8+++CAQQdg9913z1gxkjIs6LoOQpgxBsBRDjLTBU1u2nPB5kNvDY1RhEIhBHyq4+XMlb9cEEGbSzpX2QooBIgnUqDUznv4zP2cNtNzypUfSoFkMglVVRAK+NEUS+Dhhx/GW2+9haFDj8Lo0WOw3TY9nTNFfX4fwI9YSadPeCkwvjBjSC4VmrEJaMEgQFNjU6s9aE7eZY8A/5FL9r3K1m2g5cMjGSKs8NA3965hsDlR02d8iXvvvRcfvPcODD6BXnR+3AaaHJ+b3+78yqA03cOVZSgfEN6Jbe/D0tEGA82mwKZNm9CtW/fseuB88P/N6AzTtGCaJspCAaxauw6XXHwJqqur8ehjj2LrHt0RS6SgKAp8Pl9WHOJ/IQba5gDhZaiR5g20XDS0FMZdX5oLI6Dw4eJYLOZMzM94j7DpPQDbRgNAxmbhK1evxTvvvIPp06dj7dq16Nu3L0477TQc8rtDsFU35lkzbSAWi7Eh62DQaTPgooe0wkDLJ0zBEB04AtTVsc4opLSc8nU+MpHJJ+rUQC/+eNHvVSZeBppI3ysON0SnmHXkmf536GkPA81NtIBMnFv4wJNpdwONFE6/QJsNNJG8e+hMqki2zfYlk70lq9eux7p16zB9+nR89fVXWLN6DQLBALbfbnsMHToUAwcOxMCBAzP2zNFNtlM1i0/lh4yrTGggbb5KkMX0QiDcrg0NTQiFQgj6tVZ5OdFMucmQy8wrWHsaaJTvAg1JZNwVinAXNKUUPpWgMRrHiy++iBf+/gL2329/jBw5EgP793NW5/n8PrZZsRNP9kaFQglSaWNL+VnBcMqKoKmpHQw0qcwcvZBD9t3k0g420HTdQCjgwxNPTcR33y3CU088lrEQw8uDJseXzRvv+wyZXgbvMN4gGQZacXjQvAw0r/fB64dHNE49opQiFouhoqIcKgHuue9+vPjiixg7diwu+eMfYHCPjyod8waJtnY10AgnuAAQ3ti25EHLRYM7jKjX7H62B82dJ/dz8GzohoVYLIZuVRXZBhpHOi42/GlZFlRNhaamt+5Ysux7fPzxx5gy5X+oqdmAfffdFyeccAJOOOEEp11JGiYIAFVlw6cyreJ3mw20VvAmA5KBVltXj6rKqszHgmbnIxNuPrnvy3nORb+IQsiMp4Hm4m9zSLcB6Q66Q4/bQMsb3OggQjlIguYWQnHfDdpOc9DA4xfDcfkUihfEEESrDTRumJl8B3TL4sumg4EMgyyRMjBr1iwsXrwYs2bPwto1a2HbNnbffXfsu+++OOCAA7DXwP7O8ICAbtp83hPrJTHvDIHi2ptJZN+SNh+EB735QDQEjY3MQAv4tYIbXAFRbrI72c2rXGUr0FEGmkgHgLO9wEuvvIbnnnsO2267LcZeNxb777M3bAAbNmzC1lt1d+RFTi6XKIowYvjPqZBOiMJht8MQp4DCG2wRRy7Z9yrb9jbQ5HtuiAUCI/9vDHbZZReM/PPVGTpEJXkaaDk6BAJyvonoBOVirgzXe8XkQZNXcYo4vN7PBSdNaQd02XP51aw5GDNmNPr12wMTJkxAt6oK5zxPwvW0oC0vA0185OIVYc9F3K2B2oIHDR5llPGc02DzBVGEe8vd9YXS7HZT/gaPym2gCbhp8ALlW3cQQpx97ABg6fIf8P7772PWrFmoqanBgQcdiOOPOw6HHXaY006JU00URXHmLaNAA80LMt9bo6MECAFqa+u5By0di1x+cp0VkH/Lc+iJ+13xvsgn56s7LprDQBPIp5xsmj4WTuFHPTny0GoDjScuiHSOVMhRebzip14GmnhQACifh2JxA621jG+rgSbybrs2S6xraMLSpUvx+eefY/bsWVizZi2qqqqwfa/tcfhhh2PQoEHO/lgCFMDGTXUIhUMI+AOO4hNFQyUL3125BVk237WaECVDSRQC26ZQVIJG7kFrrYHG6GUEyxMh8xFgGR1hoMkVDwDe/3AyHn74YWg+DWPGjMExRw0B+PBAKpVCMplE9+rKrG0TRHxZkOoI5cpc8Tj4uhCQdjPQKAC2N5uXosklcwKi3FproMnh5KPWQDz2QuM7pPt8Ppx88sm46aabcNjvDs7gQ74etJboE+HESluai7fNgGxpBpojE2nDDLxjmEwmnS1nRo2+FtOnT8f999+Po486EpTPL5T1QD4GWktQpAPf831HQJaXQgw09zOhO2xp4mVnGWgClLLNkTVNcxbOCMyaMxcfffQRPv/8cxiGgYMPPhgnn3wyDj5osBNO7vC0xUCjQlallevu8msJTjkBqK1rQGUlG+J0P88F+blls7nB7vsCjny76qmA4LVsoLlP/WmxnEh6dE3Uo4zHXgaaF7EyqLCApfeEFZjrXa/71MtA82jkWoJguPCg2a2IA1KFcBtoIn7Kf1uWDdMyYVsWFIXtli6joSmGuXPnYt68eZg9ZzbWrF4Dv9+P/v37Y6+99sIhhxyCfrvtkvEOuIcMANv2gjPdvTms+KbcyMjFN8LDGYboBbWiQFrwoBVSxrLSEhvpUilPEL9bEGhhoNnUzrvxdz8XZUcp27lZJGnZFMlkei+zOXPn4d5770VdXR2uueYanHHaKQDvXYqJuSnDQjQaLchAE2EIN6pEmELLVIaIq+0GGkBBoXGDMeuZRKv8LSAUVkNTDIqq5M0jASIZr6bFvBAK8V51bJpsg9qff12JK6+8Eq+99hq6VVW0yUDzSocirURVaZPlfCDzn3QBA60QiLRsm51qIKdDABgmO+tXJcD7H36E++77Gw466CD87d67Ab63YllZ2DHs6gow0ERalKdF29AGyHEU4kHLyC8vP3HLamEVJ9M/zutZz8HjymWg5QM5fsMw4fNrbMGGzRc6+dLDzRTAtM8+x0eTP8Lcb+ZC01QceOBBOOOM07HXwPSpMutqNiJSHoFP88HHvXJe/BFw17XW8sgNAjbEyQy0dCSe8cnDkvybetRNN5rLFwTPW/CgNQchL8KOsiw2NYM250HzItQLhDcIAunJ0N5Gmtc92g4GmqBDZny+BeSGArYzfDyebaDJNLk9ZJvqG7Bs6TJMmzYNCxYuwMYNGxAIBrFD7x1w+OGHY8CAAeg/oD80KQ6xDN22LVBK4fP5M7xkCve8lZeXZ6RFPYRLQKZR4Y2IYVpQSPsbaF6rXlqCcCmL/Ii8FALFOUmgPTxo6aM1TMomCAPAkuXf44EJD2DJ0iU47dTTMGbMaMcYY+5+FlDhG3fGYrE2GWjgq7689ijKFyKu+oYGVBeBgdbWjWoJX8HG7nl75nVdRyjgx6efTccjjzyKt998Azo/e5ZIyrOtBhq47AqPK2ml7IJ3mIrRQFNFB9QdMAeEvEGixSsdy6LQdR1loQAao3FcffXVWLlyJR588EHsv+/eANdTpJUGGvi7VKKprW1AwQaaywAgzj5oNhu9UNLeX7fsueNy56stBpoMXTfhFwaaNDpg2BS2ZUNRiKMLk7qJmTNn4oMPPsD06dNRWVmJI444AieddBL23HOAM+3GkTnx7Sp0d7nBxaO28IoU4EFzypZfkOqvoFnIvwz3/1wQbXU4HELAx04wyReE84PwepS1DxrlG9U6Nzwy6AU5YkhuOsK9AKLCiG8vCAXaFgMNPJ62MhySgRaLxRGJRJBKpaCoStYRSLFECt9++y3mzZuHb76Zg9Wr18A0Dey5514YNOgA7LFHf0f5CFjSBo+qqoLyJftiHh94PojCylJT2PERZWVlnscruSu3KGdZGKnoxSqqM6coA1k3suE20IJ+rVU8QjsYaFQy6CmlKAsH82r83c9F2dm2BdO0EAj6ofIhlvvuuxfTpn2GoUOHYvTo0diqezUsHt5tKBNhoMVj6F7VegONgkUo6k5rIOISQxBeS9gJN1pyQTwThogcNP2MfTt58Miv8KCpqsp4VKCxKPoSbJuNtBfCDTH/7M7x96ChoQET/nYvovEkQqGgQ5fCPWi2bbNtfNwGGv8mHnmRIWRXeNAKlV0BXTeRSqWcg9szaCkgQstihig86Bby5PVMgHBPSm1tLbpJBlohEPQ2Z6BRnkeT75kGAC++/CrGj78LV199DUb++WqA79OViCdQWVmRpcMpryNy9O60aDt4Z4TsFmqgyc+FbLDheUZ1xvQSbswJHSTfc6dDhIEWj6FbZfsZaLLMQ/pvWhSmaWasBE3qJqZMmYL3P3gfS5csQWVlFYYMORKnn34GdujFzhMGdzgAaUcDpd6deNLOBlpFZQWbWiXue/DczR/wPAvZFLLjRj50CZlpjQcNnB7ZQMvaB83rLE7qrg1uSBkjYt6VVCGIK3O5oqKSR0Ss4nQrrXzgLuhCCkiGwifwm6aZsTlsfWMUy5YtxZdfzsTs2bOxatVKVFRUolev7XHY4YfjgP33x6677uL0LGx+dh1bVUlgGAZz9fP/AHMxq6qYuJlZ4JTa8Gsq6qWtLRxvHv9gFZzllMXJCkEuOsqNECJ50ET5uHkkwrshrPr6HGPshUDEL2SQetCQC0LGVAJEE0lQm6K8LOSpQN3wem7bYKcaKASJlIFHH3sUb/73TRx44IG48cYbsd02PZ1dvCPlkYzTDwQIgGTKQCwWRY9u1TA9PIteZQqJJpvzsbm5EIVAbN4ovBsy5Hri1FUpvfSkfO9NcyHlJxedQmE1xuIghBTsQYMUd3oOmrcHzTTZId4XX3o5jjjiCPzxDxcgntQRkqYcEG6gAWj+bEV+pmUuCP1GpJqabz0gvPwUPjwuplB4edBEGsJwd+dZwLIs+DTWGMiNroD4n+t9AnZI86aNbKNaQWMhoPyD5miM3TD5IqeQ34fvf/wZY8dei2QyhYkTJ2LnHXtjAz8XFKK8+XuUsrrK/ks54j+Jh2wLnhYEPpc5ztujyvKIp+zKddr9TKRt22wfNGeYkyteof8pX/lK+DZIorrJPCBcvySTSWebjdbwCbyj7nOtoJUh4rS4kUb4KnNN0xwHQX1jE9555118Nv0zzJ8339lj7fjjj8eOvbd34jKlU1HctAr6W5sPAQJgU209qqrEKk4Wq5sfbmTqO2lVtrjv4q3QiWIhHnXxn1I22tAQjSEcCsOnkrz1AkQ95DImdnjIeE4pa+ZbyJcnWvtesSMaT2LFyhX44osvMHfuXGyo2QBCCPr164dBgwah/4D+2GXnndyvweIGYrGWiRe/aB4VReFlIuZmbSnQTRsffPABnn76afTt2xc33XQTttumpztYizBdQ96diXiSeZW8eEo5L7c0nHbGmXjgwQfQd6cd3Y+KEpY0xNQSBB/l4F73WgvDYtvHdBYmPvMc/vnPf2L06NE45ZSTEfSnvTedCS9d2Vp4dQrAO0TFojcKRcqwMHnyZLz/wftYvWo1dtttNxx22GE4+uijs06+2VwwbNbB7kwIOWmMxhEOs/1MC62fIrxwQMggumlTy7L4ODl7KjwzuWAYBiLhIBZ8txh33XUXgsEg4vE4fyofSCPB8ybLhW0xm1N4lByPUAFojwolejyrVq3Chg0bsGHjBhAQ7Lrrrujbty969OgBSimampoQj8dgmmz+mFiGrCjMQ0Yp6/5lKdV8ssSzriiKs5Gt2I0+HR9xdpGWIYaCBP8sy4I/4Ed1VTUeeugh9kwmgueXUjYZO5tIglQqhW5VFfjniy/j7bffRmVVJZKJJHu9BTlpb4gep8i7oijp1cMFwLIthIJBrFy5CrNmzUKvXtvjyCOHIJlMora2Fj6fz9nstyWwnjLrado2O5pIhlcZEcJ4ZTPXgOtZYXkBj09VVSSTKRx//PG44rJL0NAU43lgNcM0TQSDQTz++OOYPn06fD6fQ7uQuebSFvnwyo8b7AQLFk54DjYHCGHTBr77biEGDBiIYJB1IIistLk3g01iT9eNVoOXVaHxME8Jk1fLZPrWq1z8AT8aGhowauQoHHXUEERjMahKeosEwzAQDAYxevRo1NbWsrN0FS8fmkAuXUpgUxu2xY4hQytlr7XQdR2UUmy33XaYPWc2fv7pJ+y99z7YeuutAa67OpIeGWIvMZ9P4+UnyRRN72so9JEblNrw+wPQdR3XX389Bh+wH5piCUenCL28aeMmjB8/HqtXr4bf74NhsMPmZYhy8Pv9XOZYfaaUeeg6ChQUpmHCtEwoREEoFMJWW20F0zSxaNEiLF68GIqiYKedd8JWPXrA5/Pz4+1YmyN0tGijwMsvnafCQPkOBWJUSsSZ5kf2/pOQnot02eJGd6vHylfTNCiKikAggGvHXou9BvRHymBtspiJSinTvbW1tWyI0++HTe2M/DYHQggs2wLhbbqmqZke2mg8SZlLkxsoTkOdG7qeQs8e3fHJp59h/PjxuOGGG5BIJqDxDe6y4GTIG3KhgqQNxc6AYRoIBAII+AMIh8OglE1yra3dBJ2fZSY2hfVqkNsLuSq/gFcDIQufZVnw+/3YuHEjnn56It588y2UlZXBpnYGf1tqeOPxOLbdeiuM/L8x0HUdF110EdatWwufL3NeXkeA5S+9mV8umvOFqqqIRCKg1Mb69TUObymVx1ccHZ0hley2GHpLN/yMb1IR5yCRNGcs5Ga7JyzTQvfu3fDSSy9DVRU8+fhjqK1vzDAyTdNAMBjCRRddhD59dsYJJ56IDTUbEAiwPd6EkhMi5yYtJ605QBQChbC5KJmdi5bgLuXcECT5/X6kUmzPOi8Q0TGReNkmNE+WJzIaEML2DksTxCJMJJLo1bsX7rzjTvzud7/DjTdej/r6xoz3TdOE3+/HaaedhnPOOQe77LILkskEFMmIyxeC5y3pms0FSm0kUyl0q+4GRVFQX18Pyjs7GXWwoyAb3pwtzZVLdueQNdiGYaCqqgr33nsvLr74Ygw/+0zUbKx16pppmQgGgli7bi3OOP0MXH/9dejevQdMM9NAE/wpJqiq6gyB6roOwzDQrXs3VJRXQNd1JBJxpFI6FL5Pj1tvuPPjfl4IRL0mcJVTukplw/Usd/qsbtq2hbvvvht//eutOOqooxCNssVPAIuL2hSaT0NDfQM7q5p3fFkMbvlwQ6TB7AhmoHHZh6CVUmpRSm3paglJ3aSUUjprzlx64smnuB+XUET46ZcV9Kijj3X4KvM5n6spnqCUUnrdDePoAw89khF3CcWFhx55jP551P9RSik1rMxn4v/w886nk959n9I863oJHY8bxt1MJzz4sPs2pRIfjz/xJPrVrDnuxyUUEc4651w6Zeo0SimlKalCstaT0pqNtXToMcfReEp3npVQfDj+xJPo3HkLKPXQqwL1jVGqm9ka1d2eui8q2V8er1NiU0pNq7AeVCqVQlkogK9mz8Gdd9yJf//736CUSpPes1FI/J0OtwXu/l/koJSdB1kRCWPBd4sxevRofPjhh/BpCvhoct6IxWKoLC/DdTeMQ3V1NW668XrUNTQhFArygimhs2EYBsrLQrj3bxOwZs0aPPrwg85ebQJiz7DzLrgQJ510Ms4bfjY21tYjHA4DUv3sUvV0C0M8HkO3qkqMGn0tevfujbFj/g98a0QHpsnOHj1h2Mm4/vrrMOSIwzOGzwqG0G2dwfYupFPzhdC95ZEwzj5nOC677HIcd8xQxJM6Anw3AMtiK1rX1WzEueeeixdfehE9t+rpOW2l6FDsbaEsx150iudezyQIz7Jt2zj99NNx5513YvAB+yFpmPDxKQEA8+JrCtsBgA1xatIQeDq+nOBeOOZBkxcO8se2x0a1LUEsb/969je444478NZbbwEEUJtZylNI/CW0DZRv6REK+LB46XKMGDECkydPhsZPWygEsVgcFZEwrrthHLp3744brx+LWCKFED/+qITOh2Gw1Yz3P/AQVq5ciUcffjDjPErwVVwBTcW551+I008/DWef+XtnYiuk+lmqp52HWCyB8rIQxoy9Httttx3Gjvm/rPoqVq6eMOxkjBs3DocfeghShuVsGlpC54INcTIj+qxzzsXll1+OY48+ComUgQDfvsLiCzPWb9iEc88djtdeex09e3QraPVfCZsXwg61beCkk07CnXfeiUH774sUXw0rQF3bbGTsuJBHW0v4SlH2nb3NRm6LqoQSSiihhBJKKKGETkHJQCuhhBJKKKGEEkooMpQMtBJKKKGEEkoooYQiQ8lAK6GEEkoooYQSSsgBZ/9QfnJGR6FkoJVQwm8Maf3SgZqmhBJKKKELglLK9y1Eh+vMkoFWQgm/AYi1QSRj0+jSks0SSiihhHzRkd4zlAy0Ekr4bcDZnFo6LUD8Lm2tUUIJJZSQCSI6tOKw+05Amww0cRRF+hIZyr5K6DxQUHbEk4ScfMniHQskeCx+l9A1QPmcifSRJsTTc5ZTHkoooYQSfqOg/KzNpsYmoBPavjYZaOCKHZCHTUooOtD8h86zuChueLfrJXQRiEmubkO7ZJiVUEIJJTQDgvQpDx2sK9tsoJXw20DJPuviyNNAL6GEEkooQYKkOzu6DSwZaCVkIFc7XoATroSiR4mTJZRQQgmFoqM1Z8lA+40ha0jL1SXI6SmjgFIaC+vyoJSCkFK170ooVbuuD0JKk4C6LCTGdTQXFSI12vlfnMiOpbWEdoQwxLxYSDOep0N09ATJEtqOrDpb4mOXA6XefCyha0HoVU+lW0Lxgrr1J/+WfmcacelnzV1ecN7l/xUKwKYUts1OVc/rEisCO9rf104gACyLwrJos3WFUsAwLMD1TlcF5XmiFLAB2GKFn3RfwOZh0qv/0KU0i2UzXom5nQBgmjZr7OSAOXgrsm0Yluc7xQ5KaZrXNkB5nWUeNHfo4oRXPTVMi+fHFVjiLzjfbDvNP/Hd1SDz0KbSZOUOhs3L0DTtrMtNEuV8awm2neYZpewd8V/oJuSon8hRN9N0WjCMzMs0O6fsINVHm8K16WnnVUbRnncEhAwzHluw7LTNYZq2UwpEkgv5OaWAaVpwiq4DYVMboVCI/bZtWBbXrVI7QW3KeAzetkrlm+sSci+3sVS0yzxuhYANXSkK8r/4EElXUfQyFACmTeFTCVSVIJkyYBimIySUsjC2DagECPhUJlgU8KkEPpVkMKYrgXCeKYTlUeG/ncrBfzOZ4GGUrjEcJugWefEpjFeqklbufk2BQgBdUuymacO0mDz4VAJdN1kFoswoCPhUqKTr9UUIIYy3hNVZMazJeoLFX3EJV1aCLzZv3AKaCk1JN+iiIVcA+DUFKuHhfCyc4J/Dxy7GyEy923n1UeNl6NeUrEtTMiVK4XxrDpQCmsJ4Zlk2bMrqoF9TYJpWRoWzJd0rIOqmQgBLMtjTdKoI+DIvv9Y5ZQepPso8ZHWxcwTSNG1HrlIpA3YOQ41wfirNaA1haFg2M7BNM23EEP5cJYzfjMcqfAqBpqRlwBDGviQX8nOVAH5NhUbSxk1HQVEUxGIx57eqct3K20xxX1GUjPLKspu8LvfoBm97xbfCLL0CPWicmx1ZSO0BAsCwKHwKwaw5c/Heex8gFPAh4NPg15QMw0tTgClTp+Hd9z9kgkKAeQu+wyuv/RsqmMB1tfxTbnhaNu+N07RyEzJi8fvOZTMPIgCXN624ICgT3/Gkjg2b6tAYjTnK/evZ3yCWSDqNNXij7lMJps/4Et//+BOCfo0pEoUN7k75dBpq6xudStdVYNs247OrzopnxQ7LZuU9Z+48fDHza4A3vp99/gXmzJ3nKHs9pYNSQDdtvPHW21ixag00Arzz3gfYsKkOb016B3UNTXj/w8morW90+N5VwOqrrJ87lnfC+E2kDCz/4Ucs+/5HfP/jT1iy7Hss+/5H/PDTL6hraGKNFa8jhmVjw6Y6CFLdaoNw/bl+wyY8//d/sjqoECxZ9j2eef4FBHyq856um1AJ8O38hfj4k6kZxsIbb72NWDwJTQEsm3WwN9TWYd6Chfhq1hzMnbcA3y1eii+/moVZc+bi519XOsaEuDoKtm2ndSsvGJvSZsyezQPBJ2GsGoaFUMCXZWRbFkVKN5BI6tBN2/H1pVKGM6okwzQt+BRmYAudqhIgpZuwbYpoPImmeAIrV6/FRx9P4bo5jp9XrMRnn3/hvKcSYF3NRvz860rMmjMX3y1eimXf/4imWBwfTP4YP/z8CxSFpQcP2doskIY4qRhtdHjJgti2Ddtm5SQ/a+mycnjQxKUoAIjS/Caz7ktROlao2guJpA6fSpDUTfzxj3/EXXfdhUcefwK3/PU2vPbvNxyrd13NBqxYtQahUAg33HA9pkydhlVr1uGqq65CfX091m3YiLXra5j7sQuBcIufCM+ZdAk4XjXnO22WFLOBBjDPmALg1xUrce3YazF27Fg8/NDDmPHlV3j7nfdw22234aknn8L/pn6K6TO+RFM0jjfffgeffPoZJk6ciAkTJuD9Dyfjnfc+wEOPPAYAePDBB7FixQoAQCeOkBQMRWFecSIuwWRS/HwkAEzTAAB88803mPPNHKbsDROPPvooevTogYceeQwLvluMcNDv9LLfe/c9lJWVYenyH/DEk0/gk08+wauvvob58+fjySefhM/n6yR/RevB6iHXz0rH695EIgkAmDp1Ki6//Aq89vprePKpp/DUU0/hX//6F2648QY8/czTAACTD0F+v3w5bhx3IyyLNaK2nVnqItz48eNx77334pLLrsB1N4zDX/7yFzz/3PO48KKLcfnll+Omm25yZPXJJ59EzfoaxJM6muIJ1GysxWOPPoalS5cilkihob4BBMC0Tz/FXXeNx8qVK/H666/j1ltvxc+//IyPPvoIt9xyi0NPR8sBUdIebWcfQhCpS7n5QXmjTwA8/OjjGDr0GJx66qm4+NLLsWZdjWNgK9wDGvL7EA764deYZwgAd2ioMAyLUc879wGfip9+WYF33nsfz//9n3jx5VdR19CEoF+DohDU1NTg7y/8HXfeeSduvvlm3HrrrZg0aRImTZqEm2++GVOmfop/vfQKNtbWwzRNTJw4EbNnz8aXX36J+++/H01NUTz26GPw+/xQuPdUtGcdiQw7iI9OsPt8s365DVUyw3tdXh609P1WOgWKXL9nQWQ/HPRjU10DzjjjdIwYMQKPP/44+vbpi3/9619Ys3YNwIXzww8/wpgxYzBp0iQMGjQYf//73zFy5Ehs1XMrzJ07F1dfdTUeeujhjB5HV0NzLBTPqGSUEUKczU6LFaJnunHDRgQDAVx44YVobGzEunXrsHLlShBCsHbtWvz4ww8wTRMA0NjUiBlfzMCUKVPQs+fW+Oqrr7BkyRJMnz4dAFBRXgGfz5eRTtcAl06ayeyObhRaA8sGVE3DjC+/wv/+9z98MuUTvPHm27jwwj9g1apVmD59Ot5//32cddZZWFezERs21eGRx57A4sWL8eCDD+JPV/0JY0aPwaefforzzz8fb775JoYNG4byshCaorEup78cdLDXB1L937RpEw477DDcesvN+Nt9f8P999+P8XfejvPOPQ81NTWA1FjW1dVh9arV8PvUrHljSd5JfvHlV7F+/XpMnDgRs2bNQjKZRENDAx5++GF8O+9bnHbaaRhz7RiEAj4cdfSx0DQVyWQCV199NUaOGIk///nPWLNmDSZMmIDTTz8dL738EgCgsbEJpmkiHA4jHo+jvr4e3bt1h23bWL9+PR/56OBCRHFUOdO0oBLgoUcexf33348HH3wATz31FFatWoU///nPgERmfWMUCxctxj9ffBl/m/Agbhh3E64ZMQq33n4nfvjpFwR8KiybeS4VAA889AhGjhyJF174Ox586EEsWLAARxxxBD746GMQAvTu3RsNDQ2wbRu9evWCz+fDTz/9hHvuvgennnoqnnnmWUyaNAmRSATz589HTU0NZs+ehVdffRWBQABff/011q9fj//85z945LEnMPGZ51Df0ASFe5k7A6x9dN+VVK7Hs5YgXhHfClxWoWTMbREgvMemAJg6bTouvPBC7LjjTqhvqMfgA/bDlzO/xPDhwzFm1EjHQ3LxRRfi+OOPR2VVJQYMHIDfn/l7vP7667jhhhvwzDMTccwxx+Cyyy5zJ7VlwmnnWyFtHQi5oqiqiqqqavTt2we6noJhGOg/oD9M00TPnj0xaNBgrF23FuFwGJUVlfhu4Xe4+Zabcf7550PXdfz5z39GWaQMAKAbumPMldAxoJRCUwj8fj+SySSqqqpQWVkJVVMxePBglJWVYfz48bjiiivw1ltvoXv3amiahmQygYqKCpx15ll49913cdJJJ+HVV1/FKaecgtdeexU1G2tRHinb4nTc5oQwZkzTxJw5czBl6jS88cYbePvttzF12nRMnz4dekrnYdk7tk1RXlHOPSzpWfyWRR1vwaGHHorrrrsOjz/+OI47/jhEIhHss+8++HzG59ht192wbNkybLNVDwDAmDFjsGLFSkyaNAl33HEHXnj+Wbz66ivoP6A/br31VnzwwQc479zzAAChUAiGYaCpqQmJRAKpVArr1q1DIpGAaZpw2vLiVmebBWLuWyRSjn/84x/Yd++9sPOOvXHJJZfgp59+AgAYvBEcPXo0rrrqKnz00UeIxWLYbbfdcdRRQ9DU1ISLLroIP/78KxQF8KsKXnz5VTz//PN455238Yc//AHHHXsc7r/vHowaNQpjx47F+poN8KkEy5YtQygUhKZp8Pv9mDJlCi6//HKsWPErqqur8eyzzyLo17DNNtvAtm288sqrmDZ1CsrKyvDuu++iV69e6NevH5544gmoqopIJMLY2KH1OX2WcUeAcWwLFVbhK9D4xJNffv0F1103Fk898Rj0lI7tevVGeaQcf7v3boDPO7P5PKynn34afXbug2232RavvPwKlixZgocefAh1dQ149913sWrVKldqWzgonMUhRQmp0gQCfnw962v85S9/xdq16wAAP/34E6644goYhoGRI0ciGAwiGo2isrISCxcuBAHByFEjcfzxx8O2bcSibFIoAelgBbB5wVZxFjEf+fBKSjcw+ID9cOGFF6Jfv344ZugQJBNJWJaF2tpazJkzB8lUEgMHDoQC4JqrrsTJJ5+C4447DpdccgkMw8Bnn32Ggw46CIMHD8ZVV12NX3/9lQ1BuBMsISf8fuY9PvTQ32H33XfHDz/8gI8//hhPP/00Vq1ahe233x7nnnsuwL3sABCPx6UqQ6EQAtO02bBZwAfdtLHzjr3RvXt3LF++HN2quwEECAaCsEwL8XgcGzZsAABsqmvAUUcdBU3TUFYWwcSJE/HUxGcwdux1iMfieP755zFu3Dh89913AIBAIIDy8nL07NkTFRUVqKgox7bbbovtt98e2267LZ/G8tuUAE0lMG3g8ksvxmGHHQYA+Hr2NxgzZgyuvfZaHorCtIFbb70VkydPxqsvv4jbb/0LLr34Ivz+9NPw4IS/4dBDD8Wzzz4Lhc/pfu655/Diiy9CATBlyhTssssuAIBLL74Ie+65Jz784EMAwDnnnI1PP52GJUsW4+uvv8ZTE5/Cddddh1deeRXLli1DhHeKN9VuQnV1NW699VZMePBhKIqCGTNmYJ999sGwE45D//79cfmlF8PHFw91tXmlhWCLl1SpA4dLLvoDhhxxOL6Y+TVmz56NXr1648ADD8Qbb76Ff730ChYvXQ6FexSrq6vxzTff4JtvvoGiKIhEIqioKEdZpAxb9dwKfr/fldKWCVn2O7Ln0BbouoFdd9kVw4cPh8/vQ21tLXw+DTU1NYjH4wCATRs3IZlM4qgjD8cTTzyBUSOuwTVXX4PPPpuGuXPnoqKiAgDYPJotrAMjz3koNlDeQdJ8Pvzw0y947bXX8M9//hNHH3scBg0ahJNOGobHH38c++67Lw4cfCD23HNP6JaN/33yKd566y2MHTsWq1atQp8+ffDee++hvr4eI0aMwOzZszFo/31h5LH9QwkMBEDQ74NFgR133BG2beNPV1yGiy76Aw466CD84YLzcMUVl2OvvfaCYVFnPo6u61BVjUfCVr37NQXTps/AJ59+5izIamxqdObuaKqGlJ5CMBTMGILUdR133XUX1q1bh1AohPkL5qOyshInnngirrv+OgwZMgTDhg3DAQccgHU1G+H3+7H//vtjxYpfoaoq/IEANm7ciLq6OgwbNgzfzl8Iy7K6jC5rT1AAqsKMqqBfw8OPPo5zzjkHd999Ny48/1ykDIt33ih22qEXAoEgYokUovEk6hujWL9hEwCgsrIC62vWAwAWLVqE6upq7LTTTkgZFlauXOEYfwCgqgo0n4afflmBl156GZdddhlOOeVUDB8+HE9PfBqnnXYannnmGZx11lk48sgh+P7Hn/HlF1/ioIMOwpw5c3DAAQfg8MMPx6hRo9DY2Ii/3Hq7o5t10wbpgivsC8EWbaBRblSYNpA0THz+xUxcdc2fccEFF6C2thbnnnsuvvzyS6xevQav//t1PPYYmxieTOoghGDw4MHYe++94fP5YJomdMOAbVmwrU4a9O4UCE1GO9qXXDDEMKxpmdh6662xzz77oHev3li9ZjWWLFmK/fbbD8FgEIqiYLvttoNhGhh/z3249dZbsWjJMvz888/4+edfsMsuu2DTJqaM/H5/URs0hYJ50Nx3iwcKAMNgK/cmT56MVatW4aqrrsLAgXsinohj6dJlsG0LP//8M+bNm4f33nsPi75bhH/9658oKyvj82BewAsvvIAx147ByJEj0dBQD8Ngiw7EcPWWrNTbC5Sv3lQJMH/+fMycORMA0NDQiJdffhkX/OGPuOiiP+KMM87Ar7/+6jQmlFJoGjPQUskUKJ8k9Nhjj2HRokUA1yQ79N4B1dXVqK+vR0pPIVIWwYaaDSgvL0fv3r0BXv+OPvpoDD16KMrLy3HlFVdi6dKluO+++/Dcs8/hiSeewF133YVQKIg5c+bg2WefRWNjIxYtWoxnn30Wk958Cx988AEopZgxYwYeffRRpFKpoq4DmwsEQDJlwKcSXHvdDXjyySfx0eSPcPFFFyJlWFBVles65mkjBAiHAoiEg6iqiGDrrbrjp19X4JVXXsXwc4YDfDpJPB5H9+pKfPjhhyCKgj0H7OFMF1qwcCF23mln9NlpBwwcOBA1NethWSY2bNiA2bNnY+CeA7Fu3TrEYjEcdthh6NGjB/bcc0/ceuut8Pl8ePjhh3HLLbdgyJAhGLjnQDzxxBM47zw2nN0Zcwkp38+uo+BpoBGP1QaZF5fuLiTklmnhlVdewV577YVbbrkFw4cPx+hRI3DLTTdi1IhrcMvNtzgMVxQFyWQSc+bMwcKFC3mjRuDTfCBEYRPmO5JLRYEiZ7Y0BBsMBLFy5Qq88uoroKAY8ecR+Pbbb9GtWzecd9552LnPzjjpxOOhqiq6de+Gl15+CW+88QZGjx6N++67D9tvuzV23W1XgC88ELzeEnhe7MYmBRDwa0jpJq656kqMHDkSAHDRRRfhyCOOxGuvvYZFixbjjTfewAEHHICysjL0798fL/7zHzj22GNRW1uLUCiEzz6bhuXLluOMM85AVXU1HnvkIebJ4UN2xV0KxQEiPMgAZs+egx9//BELvluMqqoqnHPOOXjpX//Av//9b7z//vvYpc9Ozns9e/Z0hijLy0LwqQomPvMcfl3xKy6++GIAwMJFizFp0tv4/Zm/x9Spn2DZ0mWwLAvvvvsuKisrEQgE8MFHH6N7dSW+//57bKjZgLKyMsycOROxWAz3338//v3aK/jgvXcQCoWwYcNGnHTi8Xjn7TcxevRoBAIBHHfccThiyBCUl5fj8MMPx8QnH8ffn38W5ZFwhzayxQKdb6nx37cm4csvv8TypYvRb1c2HBnwqY4HVK4ciaSOhqYYvvzqa9x+53ic+fszcc011+C4Y4YintQxcMAesCwLI/9vDMaPH4+r/vQn593fn3UO+vbpi8N+dzAogL/cPA6/+92h2HnnPrj00ksRDofQrbobYrEYYrEYrr76alRXluOM00/FXnvvhQEDBqBbt26YOHEi+vfbDaZhIBqNYocddkgT2MFgHl/33c0HTwOtRXQx+0xVgFAogEceeQRXXXkFIpEIPpv+GT76eAr++9bbmD7jS7z55pvwB9iwpWma6NatG2688UaMHDUS1dXV2KrnVrj77rsRCvhgGIbTQ9zykdZkxWygKCS9itOmNr7//nusW7sOtm1j2623wrhx4zBt2jQAgGkwL0pZuAxHHnEkRo0chUQigQ8/+hBnn30Wps/4EnfdeRcLa5lQVbYv05YC97YHxQYCOPVr3bp18Pv92HfvPbFkyRJsv/32WLlyJSKRCNauXYPTTz0ZAZ8K06ZYv3499t9/f/z1lpuwfn0NNm7ciF122QXPPP0MDL6pbQfvUtGlYdlAJBzErDlz8cYbb2Dq1Km45557cMMNN2Djxo34ZcUqrFy1EqtXr8amugaAz0k64ID9EQgEcMWfrsbf//kizh5+Hl599VU8/tjjKC8LwbSBurp6KIqKjRs2IplK4cwzz8Tuu++OXr16YeDAgQiHw1izZjXiSR1ffPEF9tprL3Tv3h0HDDoAGzduxKR3JuH9Dyfj5VdfR11dHcrKyrB2/Qb85dbbcfTRR+OQQw7GJZdcgkMOOQQ333IzJjwwASefejr+8a+X+L5yxV0H2htsTy3W3D/33HPYtGkTbr39DowafS2uGTEKf739DiQSKWakUdYGqgT47LPPcOKJJ+Lee+9DbW0t/vGPf+CqKy+Hbtrw+XwgAJ555mlEIhE88cTjOPLIIbjtjrtw4oknYscdd8SLL70Iw6Kob2hCUjdQW1eLb775BuFwCKmUjlAohN69e2PHHXdEXX0dovEkCIDzzj0Pf//73zFr1iwsWLgAjzz2BN5662088sgjuOSSSzDt8xkI+NQt3tBunYHWxQpFkJtMsj19mpqaULO+BkuWLMHSpUuxcOFC/PjjD0gkEgCAeCIOVVOxevVqjLtxHGzbRlV5BLPnzMaxx5+IWDyGnXfeWUphy4XM6mI20MCHQwBg2222xYQJD+DBCX/DX275C6LxJIYccRhCoRCGDx/uTGLVdR3jx4/HWWediXvG34njjzkaI0eOwoIFC/Ddou8w7ORTYRom+vbtC7sLeJ/yRbHzMWmY0BTgv29Nwr///ToIITj992dh9uzZmDBhArbfdmvcededmDTpHfzhj5egvjGKm2++BcuWMy/MaWecibFjr8WRRx6J556ZCEVRYNls3hEFWwhUQsswLdaR+c9//oPhw4dj3733xJNPPonhw4fDtm3ccccduPeeezFy5EhMmjQJAGAYBnyqgqeeegp9+vTBgoULcOSRR+KNN97AQYMPcHg7cOBA/PLLL1i6dCkm3D8BF55/Ls4bfjZ22HEHHHXUUbjw/HNx2SUXI5VK4YorrkC3bt1QX1+P3592Krp3745ff/kVP/70I5YuXYJUKolQKITFixdj9erV+M9//oMTjz8Oa9asQWNjI3pvty3ee/cdXHzxxZg3bx4SiYSzcOy3AsIXCaQMCzfeeCNGjBiBnj23xoABA7D77rujX79+UDXVmYPt82mgAI488ki8+eabeOftN/HIQw9gr4H9EUuk2K75CoFJgb4774S777oDgw/YH7ZtY4899sCdd96JByf8DQF/AD6VoLa2FuPH343Zs2ZDVVXcP2ECtt56a8QTcaxYsQLra9bjtVdfw/Lly/H8P/6Jl156CS+//DJmzZqF1159DVOnTsWLL76Iq668HDfccAPuHn831q7fAJWwUxG2WFBKqWlTatH8r3hSp5RSOmvON/SkU06lumlTw8oOV2yXYVNKKaU1G2tpXUMj+8NhU0pXr1tPKaU0ZZh09dr1NGVYdOXqtbQhGqOUUhpLJOmPv/xK6xuj1G5FuXXUZdppHi1asowOGXoMTRkWpfyZTLf4774vrsZYnFJK6XU3jqP33j+Bl0MqK1wxXIKPAjzL1KaUpgyLrqvZSH/46Rea1E1qygF5OYgyopTSREqny3/8iTZGWf4tHo87zWK4krpJKaX0bxMepCNGjaaU59eS+Cvk4fwLL6L/+e+blFJKm2KJrLiK4RK82bCpjq7fsJE2RuN06fLv2U1KaSJlOL9XrF5Dk7pJ16yroZvqGmgiZdB5C75zeCl4rZu2p3wX0yVkbfS119H7H3iIUo/6KXh9/Ikn0c8+/8LJozuu9rpMm9JoPEkplym52tQ1NNH6piita2ii8WSK2ryO6JarcnEkUgbVOXOj8SSdMnUaXVezkVIed1I36YpVa2h9Y5Tqpp1RT9fVbKRr12+glFK6sbY+HSmldM36GmpYjMcCumXTuoYmunot0+myzIi2anPIg2mn0zrz7OF08v8+oZS3mSKMoHNdzUY6ZOjRdP2GTZR6xLU5ruYgSs+Le7aHnAmZ1E2LpoxsnZrUTUdnJlIGjSVSDk8FjxMpg9Y3MhlqaIpRw6L015WrM3SxkD8q2R5J3aSxRIpSjzy2xyVk2bAoPfGkU+jHU6ZSKulVcYk819Y3OnVTftbSZfE0WDnaWXS0zoPWRaEQ1nveqns1IpFyJFIGkrqJpG7CMC1st3VPUAA+TcW22/SET1PQa7ttECkLw6JAOBhAnx13QEV52W9yuKTYs2uLeTMUSBkWOxLEZl4TTVOw9Vbd0XfnHaFp7Aw/yk8HSKQMKATwaQqTBYsi6Pdh1z47o7wsBLvVruZiRXFzUtTTHt2q0LNHd5SVhbD7rrsgqZtIGRaCfg1Jg9Xb3ttti4BPxbZbb4VuVRUI+DXsvecAaJqCWCIFTWPD06rasXNHthSIieJJw4RPU2BaFE2xBFKGhaqKCCojZaiqiCAU8INyj7uqME9NNJ5EPKmjMRqHbtrw+zWoKoENFufQIUdg6626I5EyoGkKfD4VvbffFuXlZVBVAp9PBeXHtvXcqju26dkDFgWqqyuRMiwkUgYSKQPb9NyKn21IEE/qbGGDQlBZEcG22/SEDeYRiiVSSOom86QWjRO5Y4WS8oUfTbEEovEkO4IplkAskcoKB65TDYstvxK79wuIOemqqsAn6VRRzj5+ZBfh80rDQT+LgwCV5WVQFIKgX0NlOZOhikgYmgLs0Gs7+DQFiZQB3bQQDgVgWJTV/YAPiZQBv09FOOjvMG94R+kOdzJtancyZbxoJL5F2GBHNAQCPvj9Gvx+DZqmwua5kC8hAIQ3GiKMGC7Z4tGFMkk4uQoB/FyZqPyMOfFMPBfhNYUdXyIQ8GvQVLY1gLjEuyV0DERZi/omfvv9Gnw+Vk/9PlZvRRi5boqTAkOhgNOIlNB6UF7elBu64bIQNE2FRVlnyKKSnuSXz6ciHA4iGPQjEglD42c/ynGK9wJS/XOf8qgQIBhkxp8lnRns86kIBHwIBNLHdxEeVsRHXfo7FArA7+/YucPOBt9eMsgX3HXk1AnKj2uKlIVQFg6iLBxEpCyEcCjghBHUUG4gaGrm+SOCx/IlIxwKIODXsp4JfcqnuTl6WNyXL7hlfSgAABuDSURBVAAIBnzw8Q6WphL4ucEX5PwVvN3cIGTzzdtlsabjdqeigBPQGmS+1spISihucLbKFbRYUSh9boXQEvINV/zYcnLihZIm2rwgvM2QL4FC6pNXu+Nxy4FX+Jbg9YoX3ZsDFDRdGB7bMzjJb2Y63GiOP27+NRc2H3i9357xdwQsy0ZZWRiAx/zdZnjnriOeFw9ICIuLfzkXM9AKvMSBvVTIH0EXKerfJuRemiwYRP4v3VdkXvP3AMLPcSxuCAWzOa5ih3wcF+EH96Z5K/Ou+Pn4W0dWfc3iY1eQyN82MvUlP/Be4m36XsfWR7de66pXR4Dws1v9fuZhFHoVon10wqWnUIi2M59L4Z5EwtvarOemzc7fMq38L4NvU2DbNggIFEKyegclFA9s24ZlWbAoW/FimhZMi8Kw+G9+GaYFw7RhWBQmvwSvxX5IJRQvCIiz1YhpmjAtCsu5pDqbYayVUGyglDr1jdXX9GVZJmugpG0TSihO2LbtbIxsWRZvPylMzkO2x6KHV6aEIgOFbrDzZoVeNUzGT8O0ebtqsnbUZmd/i/a12Yu3tYbB213DhGkDhs2O2zJtQInGoohGo4hGYwVcUVC+TQEhZIs+C2tLgGma0HUdqZSORCKBeDyBWCyGeCyOeJz9j8cTSMQTiMfjzsaBsVgM8Tg7k1LwuoTiBZE2UNb1FHRddy7DMGDarKFQ1FLDXuwQW1zEE3EkEgnniscTSOkmqLRbv+w5LaF4YNs2dJ017MlUEqlkCslkEslEEokkq5c2tZ1OVQnFBVGrbEqhp3S28CXK7KV4LM5toSbEYnEkk0leP+NOmFg01vzl2F7RzN/cxopGo1CqyiOorqpAVWV53ld1dRUI33eKUtphk/VKaB38fj/C4TDCQb+zYibvq6oKABAKh0o9vSKHbbPNIwGgojyCslDAuSLl5dAUQPNpHTc+UEKrQAhBgA+pVJZHUFFe5lyVlZUI8onuwstW6jYVJzRNRTjM5i5FyiIoLwuxqzyCcNCPYDAIupkmn5fQdhDuqVYVlZ1u4VNRVVWF6spyVAtbqKoSFZEwysvLUVFRgYpIOON581cFC1tdyX5XV2W1v4rNd4wu5DJNphjEDuuWxY5CKqE4QSmFZVuw+bYSBV3cRW+aZqklKHIQkh7idOt9cR6ipmqwaalLVcywLMupd+45KQKKojhhShWzOEFp2oim1NvPKc8PLqEIwVnj6FXbhs1XFFt8OBPgc9U4hy3K2k633eR5UWY/WTZbjODETdmKZmcrr+zJqM1dJYHqUuA8IwXzGSD8fEtP7VJC0cLmDYK4LEnBlHhZ3FCUzEZbsMvNtpIeLn64+Ui54SY/L/Gx2EGd0SOZV6x9dCwop5tECNvGK7stzb5Y25wZl/M/Y5uNAi4REesV5FIfJRQNhGZoFVr9YgmdCGqzmmlTdomhFErTyqaEYgXXznyvJyp/O/OVSjzsSmD1Thhoad4RlzFeQnGBcIPasjMXyWXYTMKz5hq2aNGucr7S/Be/RBCF8Ijc7zZ3iVjEe5lRl1BCCSWU0Bbk3HrBuZ3jeQldCoRvtVFCccOrPjr2UDNw204Zl7C7JA+aO0xpOVcJJfzGUGoQSiiheFDyhRY/8hp1aKNelecpikEvhblcC73EcElG/CUUMVoSMMHbErZsUJQW9JRQQgkltBWUD1mz32zqiDCssm2mHJcclk8Yky8F/EdBKPiFEjoTwi6XhcF5VjLMflugSC/8KKGEEkoooUUIBwebaya1mXLb6XUvD4j5iRDzFKWLaeoCIyyha6HkLymhJAQllFBCCfnDcWjIow78q6NMJsUx+tyut2aujiOvhPZE5oTEzKuELRNiJZHCvWaUloY4SyihhBIKgbMFBtjM/o7SoGwfNI8Gu7mr48groT1QMqd/2yBID3OXqm4JJZRQQv5gjg1uoEmHpbcvvDcyLg1x/gYgL+V2DG3RVm8eaSuhyLC51EoJJZRQwpYO0X667zn3iWzE5ef0SsfDXvBqp0uzhX8L4JaYh4zx3kG20JSwZcEZ1ix1xro2SvwroYQOhuPOyDC8MkMwr4dkr7UIIsI7caZP+3HCUEopP04qb+i6jlDAj9nffIvbbr8Nr7/+OkDTZ3OW0LmglELXdVRWRLBg4XcYPXoMJk+eDJ9KYEviRiV9LzZBdgtWPJ5AeVkI1153A7p3746bbrwedQ1NCAaDrpAdBwqaw9z8bcIwDFREwrj3b/djzZq1ePThB6GbNjQt3f8yTRt+TcH5F16E0047DWf9/nRsqmtwDnMuofMRi8XQo1sVRowajR133BFjx/xflj1mWhQ+leCEYSdj7NixGDrkCDRG4/D5fK6QXRHUQwN1HVBQgLL6WF5ehjPPPBtXXHEFjj/2aMSTOgIBPwhhZy/6VIKajbU499xz8eKLL6J79+6wLKsLzA8tJh5tLloos5L4WapnnHEGxo8fj0H774uUYcHnY3aOaEMVAPVNUYRDYfg1xWlXW6JMhLH4C7adqbMJAFiUUt20qWHRvK9oPEkppXTWnLn0lNPOoCUUL35esZIOGXoMTeompZRS06bUounLsNi9DB5L/xuaYpRSSq+97gb66ONPumIvoZjw8KOP02tGjKKUUpoyrAw+Jw3G//Mu+AOd/L9PXG+WUEwYd/Nf6N8mPOi+TSlldZNSSo87YRidNWeu+3EJRYSzh59H3/9wMqWU0nhSz9C5lFJas7GWHn3scY5uLqE4ccKwk+nMr2dTSilNpAxq2qzNFO0mpZTW1jfSRMqgNm9j874k+ytlmFnPiU0ptexsl11zSKV0hIN+fDNvPq699lrcfNPNiMfjUDW1YBc8IQREYdaqaZrOPfadf3TCmhXfrYIUgXzeaIumsIQ2pc9BQGDbNlRVgW3bUBQVtm3nXR7i/VAohFWrVuH555/Hxx9/jHDQD0vsryLOQHdW5mZEwFePANFoHBWRMK4fdxMaGxpx4YUXYt26dZ3UY6dQFBU+nw+WZbXbuYT59HYyQZzVkAovSNM0nXviYp6+NHXpNOTU2FPKO235Ix3YsixUV1fj3//+N0KhEO6/7x7opg2f1BszuAft0suvxLbbboOjjz4GGzZuQMAfcMK0C3iGNU1zPJ0tbZK8OUEIAaXMb9xZK1jFJpYAhaaxepO+l0YikcBOO+2EO+64A0cffTRG/vlqCAkHL1rdsBDwqTj+xGE46eST0X+P/ohGo/mPXkj6TVyiLsl6Nx8UXm+8wOqJQhSoquqUi2VbHl5yuby8nona5n6WPyilXLexPaksK/MMRh7K+RQpsd/sH6UU4XAY99xzD0aNGoWTTjweiZSBYIDxXnhBN2yqw7BhwzBq1Ch069YtKy1CCGzbSut/oZRbW53kYikgDkpt2JRCUzVH3wl5LhxCLwpetQZp2bVt2/E8iisNr/hbeg4nDCGAbVPcffd4PPjgQzhw0P7QTQuapjptJqWApgB1DU0IhUII+DVnNCovEMDmQ5jMg5ZZj4lpU2pZ6cqZDwxDRzgYwNLlP2DcTePg9/mRSiUzarbXLy8IJUWIGMPlA7OFZBJwVZe2QTBe/O408PKQlWchsG0b/oAfAX8AL7zwAgBAUdhERGHbEJJpoAnDzeZjoYZuIBTw4YV//AuvvfYaevTogUQy4aE8Nz9EhaGUQlEIN2o6ng4BMaQhK4e00dixUFUVhmlg8KDBuPHG6xGPJ5gxwIvHMk34AwE89OBDmD59OoLB4GalNdsoyrd+plcztYeMUUrZgdRcmeZPRy4w+lgM+cTDQgs5dTpaVL7PflNQ+H1+NDU1YsSIkTj22GNhmIZDMgGBruuIRMIYPfparF69GqZpQlWV7E5WHkiXTZo+t9HY0choDzoJlPJOOS8KRkr+9FBKEQwF0djQgFtvvQ2D9t8X8aQORVEc4zPgD6Cmpga33XYbNm3aBE3THAeFHE9nloNAZ+s2L8hlI8q1PWWXEMI7DMxB8te//hUD9tgdTbEEAoFARn3RNAV1dQ3MQAv4sw5NbxaE6wThlHE5uZgHzeUkylcmxLyW9oBdOhh0s0CUKwVgmJbT0xY8ppIHTea7+G3bgKoA0Ribi1YMaGsT294oJnoammKoKC+DaVGoapoqwWdF6Zh6VqrPuZGPvBgWa3D8muLMG5Vh2azn3laY7RRPe8CigCSyXR4iP4YlPOuZehfoevktJnnpSFrcc3oFKOdxfWMTQqEwAj7V8XrnYy8SPicRuTxolFJqSkOcJE8HFgFg2RSWZUNRlLSlz18W1mxzVi2lFKqqIh6Pw7IsVFaWw+LC3Nx7blBKoShiOFBxeu+FQlEIUikdlmWhvCyElGE5Lt18kNXjyacgPcDKRUFjYxPKy8sB7m53h3Hd4Wmz9CllzNYNEwpRoGkKTJMNmxYCSik0hWBjbT1CoRDCoQBMYdG7ScgBwof7qG2DUsDnU0H4wgQ5G9l5YtkRnhSh4KLRGGxKUVEegWm2zrvogADUbl1PVchLKpVCZWW5YwS58yHkUaTBvoQnkz2zrLTxnA/c9CoKkEoZiMfj6F5dCYuyYWpBiSBJeCAz3+dnwFE+JEuR4cZHFm9oOj/SyiUWjhn0dfWNvEfpK4hHckNmGBajSeEeygLrtDBwEikDuqGjPFJWEC0ybNtmdUHTQBSA2u4yaR6KQqAQIJFMy0suWoQ+83jkwDTTukl4kyHxiX3TjGO95LSY7FFs2rQJ1dXVBek5AUFnaz38aTD91tjYiOrqKti8PoooveqUOz1GC4FtC+86k9F8IaJTCevkKIqCsrIQTNOGonJeuOp3dj1Klwn4Yrpg0A/b1b6mwwKGYXqWPSEEmkqQMkykkilUlpfB4tMgxOhGsxDZ5/SKxl8lrPPkdvJQ6Ya7rAV9hmEgGouiW3V1YV4ipGkh3BOnqApsbju408sJJz82CFHQ2NiIiooKaCrh+kvKtuCTKCdedoJf4rlIOxcdIowwnLzEXAFQ3xhFOByCX1MZLTyNlkC4gSbKxd0+Z81B8yLAC4T34gTcMiaIa45ISlkvP5FIwrJsVETCBVmfApR7BmybfRfyrgyFsDkelmUiHAzAsFhlzxfUPY+IC1ShoLyRa4rGEYmEPfPjdc9d+TUF0E02h0FRANOyoboZ1QJEPHUNjQiFwgj6NUdReNHgBUGX8JCLjogQZAGv+OQ8EX5F40lQUETCIRQ6f9INofBaE4dCgJRhQk/pqIiEc1ZM8d9dx4ikKEXDki/c9BLuIY3F4qiuLIfJ64KAmyYvyGFUpXneyHmQQbnCamiKIRgMIuBTIXcAWwKRDD6T9yy9DMF8kK4DNnRDR1ko2Gp5EYatpilOtXaXSXNQOP1J3YSu6yiPhFk9cgfME7K8eBnibpnL+s1lr66uHpVVlWzqQ4F5opLeJYqrMrcCjY1NTkdHlgN4lLcXD0We5PLIFyI6wvULIQRloQBMl1dPpoN6yT8vEwrA0E0E/BosqQMo00295v9yEMLS1U0LyWTKaRtJK4qZdYQpVIU4Xm33YKVMh5smoUcMw0I8Hnd41BoQrm8duXEXYAtgZcbKMxqNorw84vCnuTwJiPQcPvIw+doNbnqp40GLsg5pKz1ozEDL7qQX1lpvJrByyiM3v1UUKMSZSGu6Qj0QRY2SuGw2NFcXRaPiXOI+/25/CctNS5dE+xdQm0AFE5sxFvJCW95t5vViKS5POnIRLSAZAy2BcK+xuASEQYJcNOQBgpaJcKefcfE4SIEjW3mhwEwRAuZRb6PlUmCynYY2ZpOjq+Q2DzCXpvtuJ6PY6CkhDUmB/hbB2/aM/0UD0UDKlmRngzofxUNTEcMtXx2OtP26mZDbjUpFe8RTbxMNOdJoDdoxqlZBGIzwmPqzpaF9DLQtqJAo2nc1SFtQlMZiK5HOxhaSIQlMif42IStr1qBINzobnBYxj6QYsCXV6c0JybHH/rueu7E5y1TQIdPTURArxSGVSaGgzkduME/d5i3H9gYrjy5EcCuQZaDJjGr2cpSNuDzCUIBSNrm2y4CyfMHJnztAB0Dq+ctl2VWRzgOXFVnhufLXFfPqyAun/7cI6uiEFtuCDkNmPe5cqkTqnU1HV4CsC8R3Lj2RcbnlsJBL4pEAi4c/lG6K+DsaWTTnfaXbaDj5Sl+2zb6z0shIvfggeOPFuy0FWQZaZ6Gz3aYCshHRmRDKoaTQix+O0flbZ1Wx5T+jo9P5xMl1ulj0HVBEyleCbDB0JtiIStpo4TfzQnsXq2xkbQ5szrg3B4qlrd6cYAZae0tSK1Bchdy51Ah2FEOjUkL+cK/w+S0hvTqqJLNdDoJlv2H5zYXWLqwi7dyKtGdcbmQsStisKW0OFFlnp53BDLTNypP8ii+/UB5o9YubAS5aioW0YqGDgVFTXDSV0F5obYNWQieBsNV58v9WobXvtRc2W/qtaxwpTdeF5utEc8/SyC9U29E8re2Pjk2t66EDhjjzEHCKLFZlLfX1uNLvtjdaKTYuWjYLaXkirXPTVLg3VewcMHo6s2xK6DhsiXwWtagoqlMbQKUGmWRsp9D85YnOZnRnp88hyjF/5E+4vHnvloL8c//bRJsMNCYw4squyOySThnIBedsOuev893sJacjVY5sGvK8HAryE5us991XPmFyXe7EXCBSgKx3+WUDrp3EW3chR4m4w7V8iR3hc/DQ42oPuOPMuFp63twFtCzbvyHI5eLck353dci8zld+vcqkWEAANseK126RJ/m355VVB9rhyqAsNwgPmPU+jyPju4CrNZDfc8dFKd+d3vVcBrvX0T4rb7jLg5D8eZILWfHxOD2/C73AhXELQNp+yraj2mSgOWingpKNgHyjzDdcR8ARHPFf+t3REGlnGL6dSFA66U4kgoO4qeh8kkroAtgi54TS7N5XPtUhQ8+59F5noDN1m1fmN4feFY32loQtLDttRLax3j4GWjvpLZk4oTeau4oRxUhXMdLUmciSn1IBlVAghJHvVqhAF1sNx3vuAm4d63W54XXvNwWpADLasM286rKELQ9ucWkfA81LSxUIuWfgJrKEtqEd2MNt+9ZzJv1m83Fsib3EroZiKP40DexXMdDkBdlIk7diyNiWoZjB98niP0vIQh6Sl0eQ1iLbp1JCe6EYS9ZNk0JcxlFr0OrX+YvpWUlpCAXX3CUgXOyyq13EWMglxZj+lfnAeeSk6Xrf67uQS4aYs5V5MzOg26DJGZfrf+vAYvHKe16X85GOrZBLhszrfOCOS363tfmR388LUjivV/KOh0Omg32nIyi0fDKRx5uuvDiX16te9/JBa9/jcBq3NsYj4Jk3D7RomAmy8oyvPeCW8fT9TB3j1rFeV/pd/i3+t+JKRyb/yYY7rPy+/EyWe3daLV0yCuGN+/0CXmXweEHkoz2GSttk5LlezWqPWoAInVE+gkfSTVGG+Vzpd9x3xP0cyPmgMIhoCKQ6INWjdkoGAKBQXikJb+jFVQha0kc50cyLbnq8LvAoKM3xXeAFsApBqc3jaX7ne/f74p5DV2svHo9t27BtdhKDcJdnXh73pHic/Ej/C4XzLuH0ALAsCtPO/7Jsyt4xLVimBYuyBQwmRVbYXJdlAzZ/j1IKW96gMIdsyMgqY6mc3eVW0EUpbDvNB086hB6hnBY5PX5P3C8EXrQI2bXttuxo1PKbsszZ8mWztzPy33J03mjtexyO7Nvts1GtOwq57JFDZ2WFp5TRI8WXK3x7wKHRxSdBC9MvdhYtopVx+MzjEzTK9GfIcysuAKA2HDpy8UqWp4x34UFLa2hy4uB1mv9uCeJ9+T+cRpuXqaQG3Gz2pJXrOkVNL7KTd/wvBG3RBJB478iLVFbNyrv8rvSOm0fO83wvJx4uuzwOAfd/Bzkf5I8smvkf0U6L++0F0hRLUNM002dQUgBgApolSQKUCZ9t24AjiGIJMDvxnoLF1ZKAK4qCRCIBy7ZQUV4B27ahKCQvQbRt26FDVRVYls1WzuTzsgcURYFhGrAtG2VlYSSTqWbjy+hNEFEusvCysigUFBSaqiEWi6GsrCzDSMsIx/87lrtEj6IQ2DaFaZrQNI2vKPLa1M99R6RBHB5qmoZEIg5CFPgDftgWK/dCIOinoPBpvox7+UDImKIoiMViIIQgEonANE1AKgvxW6RFpEok4DQyQo4pz09+pDhQFAW6rsMwDFRWVkp8sp1yFXSleZUpH5kyrLJw+RRtVp6YrCWTSVRWViKZTIIoUp6ai5OHcdKmgKqpoDZ1ysqm+dVnSilUVUUsFkUgGITf54dlWc2nL8D5oShs5oVpmqCUOrx3yi6PuATf/X4/UqkUDENHKBSGaZn5y65IizJdA7ByUQjTCTJPcxPFIlFVFYQQJBIJmKaJysrKDNmV5SQfGbC5rgOXQ8FEJvfMKG0OhBBYloVkMonq6irYNmt83WFAAMJ1Opxd9Vndojbl+tEG4WVSMDijFEVFPB5HRUUFDMMAWGrZQcUf+RF/IOpRczq7JaiqilSK6f1gMAhdT6XzxnkiylbULyGfTN+w34ZhgBACTdMyE+AQfJZ574ao0/F4HJFIBJZlsbREvW5BRgBWLiwNpl8UhekYm2byujmoigpVVWGaBmKxOKqqqrihRgHKZAJynrz0rgeP2sIrQgii0SjKy8sdvWnblniaLlepjARv4Cp/ELA67ZI3T7jyRG0Kv9+PaDSKUCgETdN4vWZOhGYhlYf41jQNlAq9S0AozS4e6i5cDxDCLHrxW+g8UYnSTEu/kw0KRSFIJFKwLAsVkTDbGsJVDrlAuUFk24CqAJYNKApPM99IJCgESBkmLNNCWSgA3UwrwSyIPPM0ROMhNyLO4wLpAKelKRpHJBLmStEdggkZS4cVPiHpfCuE9ZRN04KmqZDb6pYgFx2lgEqAWDIFVVER9GvIv2pnQsiLxouUFlg0InvxpA4ACAf9rJfpikeWvyxwvkCSnwy+FQCFALphIZVKoiJSli4zTifAesEZxLlkxrbFN4Wq5tcx8QIhzLOZSCZQURaGYVEoagFMd5WZqrjKlP9piT5KKTSVoCkaRyAYQEBTYbXwjgxuE4CAeVcZb3jnr8A6TSmTNd20oOsGIuEgTF7ehcLmjbKqEk95aw6CdABI6iYM00B5OOTIiSw3yKOMwelRFBarXLcp/2gpDiFz0WgU1ZXlrM64w7j+u5/bXM849Uc8cAdsDrwACAGisTgqysIFyQt4XgQNMk2tgUqARMqAoigI+FQYNoXiEhgRt7gtZFbwkwAwLNaxUHM0H1SKJxetisLrdCKB8kgYls0y6eZLS6AUsClzYqg87Rbs9wwoPH+mDWZER8JZsguRJ/FDQOKvwyPeTovvXPlvDoQAjY1RlJdHoPICEe2SoMsdr+ATpOciTGvoEHnRFCAaTyIUCkKoXK/0vSDiEPVRU4lTfATA/wMy1blY07e0tQAAAABJRU5ErkJggg==;" vertex="1" parent="1">
          <mxGeometry x="65" y="119" width="655.02" height="235" as="geometry" />
        </mxCell>
      </root>
    </mxGraphModel>
  </diagram>
</mxfile>
